<svg width="159" height="32" viewBox="0 0 159 32" fill="none" xmlns="http://www.w3.org/2000/svg">
<path fill-rule="evenodd" clip-rule="evenodd" d="M16.131 32C24.9675 32 32.131 24.8366 32.131 16C32.131 7.16345 24.9675 0 16.131 0C7.29443 0 0.130981 7.16345 0.130981 16C0.130981 24.8366 7.29443 32 16.131 32ZM8.49193 22.3669H11.5971C12.3282 22.3669 12.6937 22.3669 13.02 22.2765C13.3776 22.1703 13.7039 21.9817 13.9751 21.7223C14.2241 21.4849 14.4038 21.1704 14.7584 20.55L14.7586 20.5495L14.7691 20.5313L18.7963 13.4122C19.154 12.7872 19.3309 12.4728 19.4095 12.1426C19.496 11.7849 19.496 11.4076 19.4095 11.0499C19.3315 10.7223 19.1529 10.4102 18.8008 9.79491L18.8005 9.79438L18.7924 9.78033L17.2163 7.02892C16.89 6.45505 16.7249 6.16814 16.5166 6.062C16.2926 5.94804 16.0253 5.94804 15.8012 6.062C15.5929 6.16814 15.4278 6.45505 15.1016 7.02892L7.4346 20.5431C7.11227 21.1091 6.95114 21.3921 6.96291 21.624C6.97864 21.8755 7.10837 22.1035 7.3206 22.2411C7.51715 22.3669 7.83947 22.3669 8.49193 22.3669ZM23.888 22.3672H19.4386C18.7822 22.3672 18.452 22.3672 18.2595 22.2414C18.0472 22.1039 17.9175 21.872 17.9018 21.6204C17.89 21.3903 18.0525 21.1099 18.3775 20.5489L18.3776 20.5487L18.3852 20.5355L20.606 16.7229C20.9322 16.1608 21.0973 15.8817 21.3017 15.7757C21.5258 15.6617 21.7891 15.6617 22.0131 15.7757C22.2161 15.879 22.3742 16.1465 22.6874 16.6761L22.7128 16.719L24.9414 20.5316L24.9736 20.5871C25.2825 21.1201 25.4402 21.3922 25.4288 21.6165C25.417 21.868 25.2834 22.0999 25.0711 22.2375C24.8746 22.3672 24.5445 22.3672 23.888 22.3672ZM129.314 13.0365C128.904 12.5954 128.505 12.3013 128.116 12.1542C127.738 12.0072 127.355 11.9337 126.966 11.9337C126.389 11.9337 125.864 12.0387 125.391 12.2488C124.929 12.4483 124.53 12.7319 124.193 13.0996C123.857 13.4567 123.595 13.8768 123.405 14.36C123.227 14.8432 123.138 15.3631 123.138 15.9197C123.138 16.5184 123.227 17.0699 123.405 17.574C123.595 18.0782 123.857 18.5141 124.193 18.8817C124.53 19.2494 124.929 19.5382 125.391 19.7483C125.864 19.9584 126.389 20.0634 126.966 20.0634C127.418 20.0634 127.854 19.9584 128.274 19.7483C128.704 19.5277 129.104 19.1811 129.472 18.7084L131.11 19.8743C130.606 20.5675 129.991 21.0717 129.266 21.3868C128.542 21.7019 127.77 21.8595 126.951 21.8595C126.089 21.8595 125.296 21.723 124.572 21.4498C123.857 21.1662 123.237 20.7724 122.713 20.2682C122.198 19.7535 121.793 19.1391 121.499 18.4248C121.205 17.7106 121.058 16.9176 121.058 16.0458C121.058 15.153 121.205 14.3442 121.499 13.6195C121.793 12.8842 122.198 12.2593 122.713 11.7446C123.237 11.2299 123.857 10.836 124.572 10.563C125.296 10.2794 126.089 10.1376 126.951 10.1376C127.707 10.1376 128.405 10.2741 129.046 10.5472C129.697 10.8098 130.301 11.2614 130.858 11.9022L129.314 13.0365ZM44.577 10.4211H42.8597L38.007 21.5759H40.2285L41.2369 19.0235H46.0737L47.1136 21.5759H49.3823L44.577 10.4211ZM43.6632 12.7844L45.3805 17.322H41.9143L43.6632 12.7844ZM53.7962 10.4211H51.5117L55.8918 21.5759H57.609L62.1152 10.4211H59.9722L56.837 18.8502L53.7962 10.4211ZM69.2103 10.4211H70.928L75.7329 21.5759H73.4642L72.4246 19.0235H67.5875L66.579 21.5759H64.3578L69.2103 10.4211ZM71.7312 17.322L70.014 12.7844L68.2651 17.322H71.7312ZM82.109 10.4212H80.1237V21.5759H86.8511V19.7798H82.109V10.4212ZM95.0523 10.4212H96.77L101.575 21.5759H99.3063L98.2666 19.0235H93.4295L92.4211 21.5759H90.1999L95.0523 10.4212ZM97.5732 17.322L95.856 12.7845L94.1071 17.322H97.5732ZM108.597 10.4211H105.966V21.5759H107.951V13.0207H107.983L113.497 21.5759H116.018V10.4211H114.033V18.7084H114.001L108.597 10.4211ZM137.578 10.4212H135.593V21.5759H137.578V16.6602H142.793V21.5759H144.778V10.4212H142.793V14.8641H137.578V10.4212ZM150.422 10.4212H157.811V12.2173H152.407V14.9587H157.528V16.7548H152.407V19.7798H158.095V21.5759H150.422V10.4212Z" fill="white"/>
</svg>
