<svg width="218" height="45" viewBox="0 0 218 45" fill="none" xmlns="http://www.w3.org/2000/svg">
<path fill-rule="evenodd" clip-rule="evenodd" d="M22.0662 44.3296C34.2164 44.3296 44.0662 34.4798 44.0662 22.3296C44.0662 10.1793 34.2164 0.32959 22.0662 0.32959C9.9159 0.32959 0.0661621 10.1793 0.0661621 22.3296C0.0661621 34.4798 9.9159 44.3296 22.0662 44.3296ZM11.5625 31.084H15.832C16.8373 31.084 17.3399 31.084 17.7885 30.9597C18.2803 30.8138 18.7289 30.5544 19.1018 30.1977C19.4442 29.8713 19.6913 29.4389 20.1788 28.5859L20.1792 28.5852L20.1935 28.5601L25.731 18.7714C26.2228 17.912 26.4661 17.4797 26.5742 17.0257C26.693 16.5338 26.693 16.015 26.5742 15.5232C26.4669 15.0728 26.2213 14.6436 25.7372 13.7976L25.7367 13.7969L25.7256 13.7775L23.5584 9.99436C23.1099 9.20528 22.8828 8.81078 22.5964 8.66484C22.2883 8.50815 21.9208 8.50815 21.6128 8.66484C21.3263 8.81078 21.0993 9.20528 20.6508 9.99436L10.1086 28.5763C9.66544 29.3546 9.44387 29.7437 9.46006 30.0626C9.48169 30.4085 9.66007 30.7219 9.95188 30.9111C10.2221 31.084 10.6653 31.084 11.5625 31.084ZM32.7321 31.0845H26.6141C25.7116 31.0845 25.2576 31.0845 24.9928 30.9116C24.7009 30.7224 24.5226 30.4036 24.501 30.0577C24.4849 29.7413 24.7082 29.3557 25.1551 28.5843L25.1553 28.5841L25.1657 28.566L28.2193 23.3236C28.6679 22.5507 28.8949 22.167 29.1759 22.0211C29.484 21.8644 29.8461 21.8644 30.1541 22.0211C30.4332 22.1632 30.6507 22.531 31.0813 23.2592L31.1162 23.3182L34.1805 28.5606L34.2247 28.6368C34.6496 29.3698 34.8664 29.7439 34.8507 30.0522C34.8345 30.3981 34.6507 30.717 34.3589 30.9062C34.0886 31.0845 33.6347 31.0845 32.7321 31.0845ZM177.693 18.2548C177.129 17.6483 176.581 17.2439 176.046 17.0416C175.526 16.8395 174.999 16.7384 174.465 16.7384C173.671 16.7384 172.948 16.8828 172.298 17.1717C171.663 17.4461 171.114 17.836 170.652 18.3415C170.189 18.8325 169.829 19.4102 169.568 20.0746C169.323 20.7389 169.201 21.4538 169.201 22.2192C169.201 23.0424 169.323 23.8007 169.568 24.4939C169.829 25.1871 170.189 25.7865 170.652 26.292C171.114 26.7975 171.663 27.1946 172.298 27.4835C172.948 27.7723 173.671 27.9168 174.465 27.9168C175.086 27.9168 175.685 27.7723 176.263 27.4835C176.855 27.1802 177.404 26.7036 177.909 26.0537L180.162 27.6568C179.469 28.61 178.624 29.3032 177.627 29.7365C176.631 30.1698 175.569 30.3864 174.443 30.3864C173.259 30.3864 172.168 30.1987 171.172 29.8231C170.189 29.4332 169.337 28.8916 168.616 28.1984C167.908 27.4907 167.352 26.6458 166.948 25.6637C166.543 24.6817 166.341 23.5912 166.341 22.3926C166.341 21.165 166.543 20.0529 166.948 19.0564C167.352 18.0454 167.908 17.1861 168.616 16.4784C169.337 15.7707 170.189 15.2291 171.172 14.8537C172.168 14.4637 173.259 14.2688 174.443 14.2688C175.483 14.2688 176.443 14.4565 177.324 14.832C178.22 15.193 179.05 15.8141 179.816 16.6951L177.693 18.2548ZM61.1794 14.6586H58.8181L52.1457 29.9964H55.2002L56.5867 26.4869H63.2374L64.6672 29.9964H67.7868L61.1794 14.6586ZM59.9229 17.9082L62.2842 24.1473H57.5182L59.9229 17.9082ZM73.8559 14.6586H70.7147L76.7373 29.9964H79.0985L85.2945 14.6586H82.3478L78.0369 26.2486L73.8559 14.6586ZM95.0502 14.6586H97.412L104.019 29.9964H100.899L99.4699 26.4869H92.8189L91.4323 29.9964H88.3781L95.0502 14.6586ZM98.5165 24.1473L96.1553 17.9082L93.7506 24.1473H98.5165ZM112.786 14.6587H110.056V29.9965H119.306V27.5268H112.786V14.6587ZM130.583 14.6587H132.945L139.552 29.9965H136.432L135.003 26.4869H128.352L126.965 29.9965H123.911L130.583 14.6587ZM134.049 24.1473L131.688 17.9082L129.283 24.1473H134.049ZM149.208 14.6586H145.59V29.9964H148.319V18.2331H148.362L155.945 29.9964H159.411V14.6586H156.681V26.0536H156.638L149.208 14.6586ZM189.056 14.6587H186.327V29.9965H189.056V23.2374H196.227V29.9965H198.956V14.6587H196.227V20.7678H189.056V14.6587ZM206.717 14.6587H216.877V17.1283H209.446V20.8978H216.487V23.3674H209.446V27.5268H217.267V29.9965H206.717V14.6587Z" fill="black"/>
</svg>
