<svg width="170" height="45" viewBox="0 0 170 45" fill="none" xmlns="http://www.w3.org/2000/svg">
<path fill-rule="evenodd" clip-rule="evenodd" d="M14.3498 33.2703L0.847336 25.3019L14.3457 44.3305L27.8592 25.3019L14.3498 33.2703ZM1.05359 22.7375L14.5547 0.329102L28.0613 22.7457L14.5547 30.7221L1.05359 22.7375ZM48.4221 22.2313V17.6684H55.3317V14.6959H44.7717V32.9217H55.3317V29.9493H48.4221V25.1255H54.5495V22.2313H48.4221ZM62.8991 28.463V21.4752H66.1323V18.4767H62.8991V14.9045H59.2227V18.4767H57.5018V21.4752H59.2227V28.437C59.2227 31.4268 60.761 32.9217 63.8378 32.9217H66.1323V29.845H64.4375C63.8812 29.845 63.4814 29.7407 63.2381 29.5321C63.0121 29.3061 62.8991 28.9497 62.8991 28.463ZM79.8132 18.9981C78.9615 18.5114 77.9881 18.2681 76.893 18.2681C75.9369 18.2681 75.0678 18.4506 74.2855 18.8156C73.5033 19.1633 72.8775 19.65 72.4082 20.2758V13.6269H68.7578V32.9217H72.4082V24.943C72.4082 23.7958 72.695 22.9179 73.2687 22.3095C73.8597 21.6838 74.6593 21.3709 75.6675 21.3709C76.6583 21.3709 77.4405 21.6838 78.0141 22.3095C78.5878 22.9179 78.8746 23.7958 78.8746 24.943V32.9217H82.525V24.4476C82.525 23.1439 82.2816 22.0314 81.7949 21.1101C81.3255 20.1715 80.665 19.4675 79.8132 18.9981ZM99.3201 26.7943C99.3896 26.3771 99.4244 25.9078 99.4244 25.3863C99.4244 23.9783 99.1202 22.7354 98.5118 21.6577C97.9208 20.5626 97.0777 19.7195 95.9826 19.1285C94.9049 18.5375 93.6794 18.242 92.3062 18.242C90.8808 18.242 89.6206 18.5462 88.5255 19.1546C87.4303 19.763 86.5786 20.6321 85.9702 21.762C85.3618 22.8919 85.0576 24.2043 85.0576 25.6992C85.0576 27.1767 85.3618 28.4804 85.9702 29.6103C86.596 30.7402 87.4564 31.618 88.5515 32.2438C89.664 32.8522 90.9156 33.1564 92.3062 33.1564C94.0271 33.1564 95.4785 32.7131 96.6606 31.8266C97.8426 30.9227 98.6422 29.7754 99.0594 28.3848H95.1222C94.5486 29.5494 93.5838 30.1318 92.228 30.1318C91.2893 30.1318 90.4984 29.8363 89.8552 29.2452C89.2121 28.6542 88.847 27.8372 88.7601 26.7943H99.3201ZM94.6268 22.101C95.2873 22.6572 95.6263 23.4047 95.6437 24.3433H88.7862C88.9253 23.3699 89.299 22.6137 89.9074 22.0749C90.5332 21.5186 91.298 21.2405 92.2019 21.2405C93.158 21.2405 93.9662 21.5273 94.6268 22.101ZM107.564 18.9199C106.817 19.3545 106.209 19.9542 105.739 20.719V18.4767H102.089V32.9217H105.739V25.7252C105.739 24.3868 106.026 23.4481 106.6 22.9093C107.191 22.3704 108.06 22.101 109.207 22.101H110.172V18.2681C109.198 18.2681 108.329 18.4853 107.564 18.9199ZM125.954 26.7943C126.024 26.3771 126.059 25.9078 126.059 25.3863C126.059 23.9783 125.754 22.7354 125.146 21.6577C124.555 20.5626 123.712 19.7195 122.617 19.1285C121.539 18.5375 120.314 18.242 118.94 18.242C117.515 18.242 116.255 18.5462 115.16 19.1546C114.065 19.763 113.213 20.6321 112.604 21.762C111.996 22.8919 111.692 24.2043 111.692 25.6992C111.692 27.1767 111.996 28.4804 112.604 29.6103C113.23 30.7402 114.091 31.618 115.186 32.2438C116.298 32.8522 117.55 33.1564 118.94 33.1564C120.661 33.1564 122.113 32.7131 123.295 31.8266C124.477 30.9227 125.276 29.7754 125.694 28.3848H121.756C121.183 29.5494 120.218 30.1318 118.862 30.1318C117.924 30.1318 117.133 29.8363 116.489 29.2452C115.846 28.6542 115.481 27.8372 115.394 26.7943H125.954ZM121.261 22.101C121.922 22.6572 122.261 23.4047 122.278 24.3433H115.42C115.56 23.3699 115.933 22.6137 116.542 22.0749C117.167 21.5186 117.932 21.2405 118.836 21.2405C119.792 21.2405 120.601 21.5273 121.261 22.101ZM138.683 32.9217H142.36V18.4767H138.683V26.4292C138.683 27.5765 138.397 28.463 137.823 29.0888C137.249 29.6972 136.458 30.0014 135.45 30.0014C134.459 30.0014 133.677 29.6972 133.104 29.0888C132.53 28.463 132.243 27.5765 132.243 26.4292V18.4767H128.593V26.9507C128.593 28.2371 128.836 29.3495 129.323 30.2882C129.827 31.2095 130.514 31.9135 131.383 32.4002C132.252 32.8695 133.251 33.1042 134.381 33.1042C135.268 33.1042 136.085 32.9304 136.832 32.5827C137.597 32.2177 138.214 31.7223 138.683 31.0965V32.9217ZM168.177 19.9107C167.099 18.8156 165.674 18.2681 163.9 18.2681C162.858 18.2681 161.884 18.5201 160.98 19.0242C160.094 19.5283 159.416 20.1975 158.946 21.0319C158.46 20.1454 157.773 19.4675 156.887 18.9981C156 18.5114 154.992 18.2681 153.862 18.2681C152.975 18.2681 152.158 18.4419 151.411 18.7895C150.681 19.1372 150.081 19.6152 149.612 20.2236V18.4767H145.962V32.9217H149.612V24.943C149.612 23.8132 149.899 22.9527 150.472 22.3617C151.063 21.7533 151.863 21.4491 152.871 21.4491C153.862 21.4491 154.644 21.7533 155.218 22.3617C155.791 22.9527 156.078 23.8132 156.078 24.943V32.9217H159.729V24.943C159.729 23.8132 160.015 22.9527 160.589 22.3617C161.18 21.7533 161.971 21.4491 162.962 21.4491C163.953 21.4491 164.735 21.7533 165.309 22.3617C165.882 22.9527 166.169 23.8132 166.169 24.943V32.9217H169.819V24.4476C169.819 22.5008 169.272 20.9885 168.177 19.9107Z" fill="black"/>
</svg>
