<svg width="141" height="36" viewBox="0 0 141 36" fill="none" xmlns="http://www.w3.org/2000/svg">
<path fill-rule="evenodd" clip-rule="evenodd" d="M17.5777 26.5206L7.06245 20.315L17.5745 35.1338L28.0983 20.315L17.5777 26.5206ZM7.22307 18.318L17.7373 0.867188L28.2557 18.3244L17.7373 24.5361L7.22307 18.318ZM44.1119 17.9238V14.3704H49.4929V12.0555H41.2692V26.2491H49.4929V23.9343H44.1119V20.1777H48.8837V17.9238H44.1119ZM55.3861 22.7769V17.335H57.904V14.9998H55.3861V12.218H52.523V14.9998H51.1829V17.335H52.523V22.7565C52.523 25.0849 53.7211 26.2491 56.1171 26.2491H57.904V23.853H56.5841C56.1509 23.853 55.8396 23.7718 55.6501 23.6094C55.4741 23.4334 55.3861 23.1559 55.3861 22.7769ZM68.5582 15.4059C67.8949 15.0269 67.1368 14.8374 66.284 14.8374C65.5395 14.8374 64.8626 14.9795 64.2534 15.2638C63.6443 15.5345 63.1569 15.9136 62.7914 16.4009V11.223H59.9487V26.2491H62.7914V20.0356C62.7914 19.1422 63.0148 18.4585 63.4615 17.9847C63.9218 17.4974 64.5445 17.2537 65.3296 17.2537C66.1012 17.2537 66.7104 17.4974 67.1571 17.9847C67.6038 18.4585 67.8272 19.1422 67.8272 20.0356V26.2491H70.67V19.6498C70.67 18.6345 70.4805 17.7682 70.1014 17.0507C69.7359 16.3197 69.2215 15.7714 68.5582 15.4059ZM83.7494 21.4773C83.8036 21.1524 83.8307 20.7869 83.8307 20.3808C83.8307 19.2843 83.5938 18.3164 83.12 17.4771C82.6597 16.6243 82.0032 15.9677 81.1503 15.5075C80.311 15.0472 79.3567 14.8171 78.2873 14.8171C77.1772 14.8171 76.1958 15.054 75.3429 15.5278C74.4901 16.0016 73.8268 16.6784 73.353 17.5583C72.8792 18.4382 72.6423 19.4603 72.6423 20.6245C72.6423 21.7751 72.8792 22.7904 73.353 23.6703C73.8403 24.5502 74.5104 25.2338 75.3633 25.7212C76.2296 26.195 77.2043 26.4318 78.2873 26.4318C79.6274 26.4318 80.7578 26.0867 81.6783 25.3963C82.5988 24.6923 83.2215 23.7989 83.5464 22.7159H80.4802C80.0335 23.6229 79.2822 24.0764 78.2263 24.0764C77.4953 24.0764 76.8794 23.8463 76.3785 23.386C75.8777 22.9258 75.5934 22.2895 75.5257 21.4773H83.7494ZM80.0944 17.8223C80.6088 18.2555 80.8728 18.8376 80.8864 19.5686H75.546C75.6543 18.8105 75.9454 18.2216 76.4191 17.802C76.9065 17.3688 77.5021 17.1522 78.206 17.1522C78.9506 17.1522 79.58 17.3756 80.0944 17.8223ZM90.1698 15.345C89.5877 15.6835 89.1139 16.1505 88.7484 16.7461V14.9998H85.9056V26.2491H88.7484V20.6448C88.7484 19.6024 88.9718 18.8714 89.4185 18.4518C89.8787 18.0321 90.5556 17.8223 91.449 17.8223H92.2003V14.8374C91.4423 14.8374 90.7654 15.0066 90.1698 15.345ZM104.491 21.4773C104.545 21.1524 104.572 20.7869 104.572 20.3808C104.572 19.2843 104.336 18.3164 103.862 17.4771C103.401 16.6243 102.745 15.9677 101.892 15.5075C101.053 15.0472 100.098 14.8171 99.029 14.8171C97.919 14.8171 96.9376 15.054 96.0847 15.5278C95.2319 16.0016 94.5686 16.6784 94.0948 17.5583C93.621 18.4382 93.3841 19.4603 93.3841 20.6245C93.3841 21.7751 93.621 22.7904 94.0948 23.6703C94.5821 24.5502 95.2522 25.2338 96.105 25.7212C96.9714 26.195 97.9461 26.4318 99.029 26.4318C100.369 26.4318 101.5 26.0867 102.42 25.3963C103.341 24.6923 103.963 23.7989 104.288 22.7159H101.222C100.775 23.6229 100.024 24.0764 98.9681 24.0764C98.2371 24.0764 97.6212 23.8463 97.1203 23.386C96.6194 22.9258 96.3352 22.2895 96.2675 21.4773H104.491ZM100.836 17.8223C101.351 18.2555 101.615 18.8376 101.628 19.5686H96.2878C96.3961 18.8105 96.6871 18.2216 97.1609 17.802C97.6483 17.3688 98.2439 17.1522 98.9478 17.1522C99.6923 17.1522 100.322 17.3756 100.836 17.8223ZM114.404 26.2491H117.267V14.9998H114.404V21.193C114.404 22.0865 114.181 22.7769 113.734 23.2642C113.287 23.738 112.671 23.9749 111.886 23.9749C111.115 23.9749 110.505 23.738 110.059 23.2642C109.612 22.7769 109.389 22.0865 109.389 21.193V14.9998H106.546V21.5991C106.546 22.6009 106.735 23.4672 107.114 24.1982C107.507 24.9157 108.042 25.464 108.719 25.843C109.395 26.2085 110.174 26.3912 111.054 26.3912C111.744 26.3912 112.38 26.2559 112.962 25.9851C113.558 25.7009 114.039 25.315 114.404 24.8277V26.2491ZM137.372 16.1166C136.533 15.2638 135.423 14.8374 134.042 14.8374C133.23 14.8374 132.472 15.0337 131.768 15.4263C131.078 15.8188 130.55 16.34 130.184 16.9898C129.805 16.2994 129.27 15.7714 128.58 15.4059C127.89 15.0269 127.105 14.8374 126.225 14.8374C125.534 14.8374 124.898 14.9728 124.316 15.2435C123.747 15.5142 123.28 15.8865 122.915 16.3603V14.9998H120.072V26.2491H122.915V20.0356C122.915 19.1557 123.138 18.4856 123.585 18.0254C124.045 17.5516 124.668 17.3147 125.453 17.3147C126.225 17.3147 126.834 17.5516 127.281 18.0254C127.727 18.4856 127.951 19.1557 127.951 20.0356V26.2491H130.793V20.0356C130.793 19.1557 131.017 18.4856 131.463 18.0254C131.924 17.5516 132.54 17.3147 133.311 17.3147C134.083 17.3147 134.692 17.5516 135.139 18.0254C135.585 18.4856 135.809 19.1557 135.809 20.0356V26.2491H138.652V19.6498C138.652 18.1337 138.225 16.9559 137.372 16.1166Z" fill="white"/>
</svg>
