<svg width="400" height="441" viewBox="0 0 400 441" fill="none" xmlns="http://www.w3.org/2000/svg">
<path fill-rule="evenodd" clip-rule="evenodd" d="M76.1834 266.363C88.76 271.475 102.601 266.647 107.099 255.581C109.535 249.587 108.73 242.992 105.483 237.394L158.116 244.463L157.146 295.868C162.877 293.674 169.755 293.646 176.292 296.303C188.868 301.414 195.418 314.529 190.92 325.595C186.422 336.662 172.581 341.489 160.004 336.378C158.746 335.866 157.548 335.275 156.415 334.613L155.465 384.941L29.8955 368.86C18.3193 367.377 9.68854 357.459 9.81871 345.789L11.1691 224.727L64.669 231.912C63.3886 233.433 62.3325 235.158 61.5554 237.071C57.0577 248.137 63.6069 261.252 76.1834 266.363Z" fill="#1EE0BD"/>
<path d="M107.099 255.581L106.173 255.204L107.099 255.581ZM76.1834 266.363L75.8069 267.289L76.1834 266.363ZM105.483 237.394L105.616 236.403C105.238 236.352 104.863 236.521 104.651 236.838C104.439 237.155 104.426 237.565 104.618 237.895L105.483 237.394ZM158.116 244.463L159.116 244.482C159.126 243.974 158.753 243.539 158.249 243.472L158.116 244.463ZM157.146 295.868L156.146 295.849C156.14 296.182 156.299 296.496 156.572 296.687C156.844 296.878 157.193 296.921 157.504 296.802L157.146 295.868ZM176.292 296.303L176.668 295.377L176.292 296.303ZM190.92 325.595L191.846 325.972L190.92 325.595ZM160.004 336.378L159.628 337.304L160.004 336.378ZM156.415 334.613L156.919 333.749C156.613 333.57 156.235 333.567 155.925 333.741C155.616 333.915 155.422 334.239 155.415 334.594L156.415 334.613ZM155.465 384.941L155.338 385.933C155.62 385.969 155.904 385.884 156.119 385.698C156.334 385.513 156.46 385.244 156.465 384.96L155.465 384.941ZM29.8955 368.86L30.0226 367.868L29.8955 368.86ZM9.81871 345.789L10.8187 345.801L9.81871 345.789ZM11.1691 224.727L11.3022 223.735C11.0183 223.697 10.7316 223.783 10.5149 223.97C10.2983 224.158 10.1724 224.429 10.1692 224.715L11.1691 224.727ZM64.669 231.912L65.4339 232.556C65.6689 232.277 65.7333 231.892 65.6018 231.552C65.4702 231.211 65.1637 230.97 64.8021 230.921L64.669 231.912ZM61.5554 237.071L62.4818 237.447V237.447L61.5554 237.071ZM106.173 255.204C101.927 265.651 88.7397 270.387 76.5599 265.437L75.8069 267.289C88.7802 272.562 103.276 267.643 108.025 255.957L106.173 255.204ZM104.618 237.895C107.731 243.263 108.477 249.534 106.173 255.204L108.025 255.957C110.593 249.64 109.729 242.722 106.348 236.892L104.618 237.895ZM105.349 238.385L157.983 245.454L158.249 243.472L105.616 236.403L105.349 238.385ZM157.116 244.444L156.146 295.849L158.146 295.887L159.116 244.482L157.116 244.444ZM157.504 296.802C162.99 294.702 169.606 294.665 175.915 297.229L176.668 295.377C169.904 292.627 162.763 292.647 156.789 294.934L157.504 296.802ZM175.915 297.229C188.095 302.18 194.239 314.772 189.994 325.219L191.846 325.972C196.596 314.286 189.642 300.649 176.668 295.377L175.915 297.229ZM189.994 325.219C185.748 335.666 172.561 340.402 160.381 335.451L159.628 337.304C172.601 342.577 187.097 337.658 191.846 325.972L189.994 325.219ZM160.381 335.451C159.167 334.958 158.011 334.387 156.919 333.749L155.911 335.476C157.084 336.162 158.325 336.775 159.628 337.304L160.381 335.451ZM155.415 334.594L154.465 384.923L156.465 384.96L157.415 334.632L155.415 334.594ZM155.592 383.949L30.0226 367.868L29.7685 369.852L155.338 385.933L155.592 383.949ZM30.0226 367.868C18.9497 366.45 10.6941 356.963 10.8187 345.801L8.81878 345.778C8.68294 357.956 17.689 368.305 29.7685 369.852L30.0226 367.868ZM10.8187 345.801L12.169 224.738L10.1692 224.715L8.81878 345.778L10.8187 345.801ZM11.036 225.718L64.5359 232.903L64.8021 230.921L11.3022 223.735L11.036 225.718ZM62.4818 237.447C63.2186 235.634 64.2196 233.998 65.4339 232.556L63.904 231.268C62.5576 232.867 61.4464 234.683 60.6289 236.694L62.4818 237.447ZM76.5599 265.437C64.3802 260.486 58.2359 247.894 62.4818 237.447L60.6289 236.694C55.8795 248.38 62.8336 262.017 75.8069 267.289L76.5599 265.437Z" fill="#00386D"/>
<path fill-rule="evenodd" clip-rule="evenodd" d="M10.0562 324.494L11.1688 224.734L2.78335 234.406L1.43296 355.469C1.30278 367.139 9.93356 377.057 21.5098 378.539L147.08 394.621L155.463 384.941L92.6306 376.894L29.8955 368.864C18.5147 367.406 9.98074 357.796 9.81962 346.383C9.81745 346.231 9.81677 346.079 9.81757 345.926C9.81782 345.881 9.81819 345.835 9.8187 345.789L10.0562 324.494ZM155.465 384.937L155.465 384.938L155.466 384.938L155.465 384.937ZM107.099 255.581C105.428 259.692 102.467 262.942 98.761 265.142C101.139 259.18 100.323 252.635 97.0968 247.073L105.49 237.407C105.584 237.568 105.675 237.731 105.765 237.894C108.816 243.722 108.795 248.649 108.174 251.947C107.939 253.174 107.583 254.389 107.099 255.581ZM156.415 334.617L156.172 347.472C165.686 349.554 175.197 346.329 180.274 339.343L187.226 331.413C184.794 334.052 181.654 336.01 178.132 337.176V337.179C172.615 339.004 166.158 338.883 160.004 336.382C158.746 335.87 157.548 335.279 156.415 334.617ZM187.871 330.677C187.899 330.643 187.928 330.609 187.956 330.574L187.961 330.574L187.871 330.677Z" fill="#0356A4"/>
<path d="M11.1688 224.734L12.1687 224.746C12.1734 224.326 11.9158 223.948 11.5236 223.799C11.1314 223.651 10.688 223.762 10.4132 224.079L11.1688 224.734ZM10.0562 324.494L11.0562 324.505L10.0562 324.494ZM2.78335 234.406L2.02778 233.751C1.87265 233.93 1.78605 234.158 1.78341 234.395L2.78335 234.406ZM1.43296 355.469L2.43289 355.48L1.43296 355.469ZM21.5098 378.539L21.6368 377.547H21.6368L21.5098 378.539ZM147.08 394.621L146.952 395.613C147.285 395.656 147.616 395.529 147.835 395.276L147.08 394.621ZM155.463 384.941L156.219 385.596C156.46 385.317 156.528 384.928 156.397 384.584C156.265 384.24 155.955 383.996 155.59 383.949L155.463 384.941ZM92.6306 376.894L92.7576 375.902L92.7576 375.902L92.6306 376.894ZM29.8955 368.864L29.7685 369.855L29.7685 369.855L29.8955 368.864ZM9.81962 346.383L10.8195 346.369L10.8195 346.368L9.81962 346.383ZM9.81757 345.926L10.8176 345.931L9.81757 345.926ZM9.8187 345.789L8.81876 345.778V345.778L9.8187 345.789ZM155.465 384.937L155.6 383.947C155.32 383.908 155.037 383.991 154.821 384.173C154.605 384.355 154.476 384.62 154.466 384.903L155.465 384.937ZM155.465 384.938L154.466 384.903C154.451 385.325 154.703 385.711 155.095 385.867C155.487 386.023 155.935 385.916 156.214 385.6L155.465 384.938ZM155.466 384.938L156.215 385.6C156.459 385.324 156.532 384.935 156.403 384.589C156.275 384.244 155.966 383.997 155.601 383.947L155.466 384.938ZM98.761 265.142L97.8321 264.771C97.6736 265.169 97.7858 265.624 98.1112 265.902C98.4366 266.18 98.9031 266.22 99.2713 266.002L98.761 265.142ZM107.099 255.581L106.173 255.204V255.204L107.099 255.581ZM97.0968 247.073L96.3417 246.418C96.0616 246.74 96.0174 247.206 96.2318 247.575L97.0968 247.073ZM105.49 237.407L106.355 236.905C106.194 236.626 105.907 236.442 105.585 236.411C105.263 236.381 104.947 236.507 104.735 236.751L105.49 237.407ZM105.765 237.894L106.651 237.43C106.648 237.424 106.645 237.418 106.641 237.413L105.765 237.894ZM108.174 251.947L109.156 252.135L109.157 252.132L108.174 251.947ZM156.415 334.617L156.919 333.753C156.613 333.574 156.235 333.571 155.925 333.745C155.616 333.919 155.422 334.243 155.415 334.598L156.415 334.617ZM156.172 347.472L155.173 347.453C155.164 347.93 155.493 348.347 155.959 348.449L156.172 347.472ZM180.274 339.343L179.522 338.684C179.502 338.707 179.483 338.731 179.465 338.756L180.274 339.343ZM187.226 331.413L187.978 332.072C188.339 331.66 188.302 331.035 187.895 330.669C187.487 330.303 186.862 330.332 186.491 330.735L187.226 331.413ZM178.132 337.176L177.818 336.226C177.408 336.362 177.132 336.744 177.132 337.176H178.132ZM178.132 337.179L178.446 338.129C178.855 337.993 179.132 337.611 179.132 337.179H178.132ZM160.004 336.382L159.628 337.308L160.004 336.382ZM187.956 330.574L187.909 329.576C187.626 329.589 187.363 329.721 187.183 329.94L187.956 330.574ZM187.871 330.677L187.103 330.037C186.752 330.457 186.805 331.081 187.221 331.437C187.637 331.793 188.262 331.748 188.623 331.336L187.871 330.677ZM187.961 330.574L188.713 331.233C188.977 330.932 189.036 330.502 188.862 330.14C188.688 329.779 188.315 329.557 187.914 329.575L187.961 330.574ZM10.1689 224.723L9.0563 324.483L11.0562 324.505L12.1687 224.746L10.1689 224.723ZM3.53891 235.061L11.9244 225.389L10.4132 224.079L2.02778 233.751L3.53891 235.061ZM2.43289 355.48L3.78329 234.417L1.78341 234.395L0.433019 355.458L2.43289 355.48ZM21.6368 377.547C10.5639 376.129 2.30838 366.643 2.43289 355.48L0.433019 355.458C0.297186 367.635 9.30321 377.984 21.3827 379.531L21.6368 377.547ZM147.207 393.629L21.6368 377.547L21.3827 379.531L146.952 395.613L147.207 393.629ZM154.707 384.286L146.324 393.966L147.835 395.276L156.219 385.596L154.707 384.286ZM155.59 383.949L92.7576 375.902L92.5036 377.886L155.336 385.933L155.59 383.949ZM29.7685 369.855L92.5036 377.886L92.7576 375.902L30.0225 367.872L29.7685 369.855ZM8.81972 346.397C8.98785 358.306 17.8927 368.335 29.7685 369.855L30.0225 367.872C19.1366 366.478 10.9736 357.285 10.8195 346.369L8.81972 346.397ZM10.8195 346.368C10.8174 346.223 10.8168 346.077 10.8176 345.931L8.81759 345.921C8.81675 346.08 8.81746 346.239 8.81972 346.397L10.8195 346.368ZM10.8176 345.931C10.8178 345.888 10.8182 345.844 10.8186 345.801L8.81876 345.778C8.81823 345.826 8.81784 345.873 8.81759 345.921L10.8176 345.931ZM10.8186 345.801L11.0562 324.505L9.0563 324.483L8.81876 345.778L10.8186 345.801ZM154.466 384.903L154.466 384.903L156.465 384.972L156.465 384.972L154.466 384.903ZM154.717 384.275L154.716 384.275L156.214 385.6L156.215 385.6L154.717 384.275ZM155.33 385.928L155.331 385.928L155.601 383.947L155.6 383.947L155.33 385.928ZM99.2713 266.002C103.151 263.7 106.266 260.286 108.025 255.957L106.173 255.204C104.59 259.098 101.784 262.185 98.2507 264.282L99.2713 266.002ZM99.6899 265.512C102.196 259.228 101.321 252.363 97.9618 246.572L96.2318 247.575C99.325 252.907 100.081 259.131 97.8321 264.771L99.6899 265.512ZM97.8519 247.729L106.245 238.062L104.735 236.751L96.3417 246.418L97.8519 247.729ZM106.641 237.413C106.548 237.243 106.453 237.074 106.355 236.905L104.625 237.908C104.715 238.063 104.802 238.218 104.888 238.375L106.641 237.413ZM104.879 238.358C107.812 243.959 107.777 248.652 107.191 251.762L109.157 252.132C109.814 248.646 109.821 243.485 106.651 237.43L104.879 238.358ZM108.025 255.957C108.535 254.704 108.909 253.426 109.156 252.135L107.192 251.76C106.97 252.922 106.632 254.074 106.173 255.204L108.025 255.957ZM155.415 334.598L155.173 347.453L157.172 347.491L157.415 334.636L155.415 334.598ZM179.465 338.756C174.656 345.373 165.573 348.505 156.386 346.495L155.959 348.449C165.8 350.602 175.739 347.285 181.083 339.931L179.465 338.756ZM186.474 330.753L179.522 338.684L181.026 340.003L187.978 332.072L186.474 330.753ZM186.491 330.735C184.182 333.24 181.192 335.11 177.818 336.226L178.446 338.125C182.117 336.911 185.405 334.864 187.961 332.09L186.491 330.735ZM179.132 337.179V337.176H177.132V337.179H179.132ZM159.628 337.308C165.996 339.896 172.698 340.03 178.446 338.129L177.818 336.23C172.532 337.978 166.32 337.869 160.381 335.455L159.628 337.308ZM155.911 335.48C157.084 336.166 158.325 336.779 159.628 337.308L160.381 335.455C159.166 334.962 158.011 334.391 156.919 333.753L155.911 335.48ZM187.183 329.94C187.156 329.972 187.13 330.004 187.103 330.037L188.639 331.317C188.669 331.281 188.699 331.245 188.728 331.209L187.183 329.94ZM188.002 331.573L188.007 331.573L187.914 329.575L187.909 329.576L188.002 331.573ZM187.209 329.915L187.119 330.018L188.623 331.336L188.713 331.233L187.209 329.915Z" fill="#00386D"/>
<path d="M289.811 431.115L169.777 403.827L186.084 351.088C186.966 352.116 187.957 353.073 189.055 353.942C198.824 361.68 213.38 359.576 221.565 349.241C229.751 338.906 228.467 324.255 218.698 316.517C212.694 311.761 204.882 310.724 197.851 313.029L230.215 208.358C230.928 209.116 231.704 209.831 232.542 210.495C242.311 218.233 256.867 216.128 265.053 205.794C273.239 195.459 271.955 180.808 262.185 173.07C256.452 168.529 249.07 167.378 242.295 169.29L249.11 147.248L271.164 120.605L378.646 146.374C389.312 148.932 395.604 159.963 392.374 170.445L316.89 415.459C313.348 426.957 301.543 433.782 289.811 431.115Z" fill="#1EE0BD" stroke="#00386D" stroke-width="2" stroke-linejoin="round"/>
<path fill-rule="evenodd" clip-rule="evenodd" d="M169.782 403.826L289.811 431.115C301.542 433.782 313.347 426.957 316.89 415.459L392.374 170.445C393.675 166.222 393.431 161.91 391.977 158.099C397.486 162.861 400.022 170.611 397.72 178.083L322.236 423.097C318.694 434.595 306.889 441.42 295.157 438.753L175.123 411.465L169.782 403.826ZM225.219 325.156C223.844 321.849 221.661 318.865 218.697 316.517C214.935 313.538 207.485 309.982 197.864 313.03L203.197 320.667C210.227 318.361 218.039 319.399 224.044 324.155C224.45 324.477 224.842 324.811 225.219 325.156ZM242.298 169.287L247.64 176.928C254.416 175.015 261.797 176.167 267.531 180.708C267.937 181.03 268.329 181.364 268.706 181.709C267.332 178.402 265.149 175.418 262.185 173.07C258.658 170.277 251.71 166.769 242.298 169.287Z" fill="#0356A4" stroke="#00386D" stroke-width="2" stroke-linejoin="round"/>
<path d="M214.052 260.487L264.575 272.424M303.915 281.719L354.334 293.631L359.731 301.052" stroke="#00386D" stroke-width="2" stroke-linecap="round" stroke-linejoin="round"/>
<path d="M264.786 272.402C263.194 274.294 261.827 276.455 260.757 278.853C255.162 291.396 259.834 305.67 271.19 310.736C282.547 315.801 296.289 309.74 301.883 297.197C304.167 292.076 304.74 286.667 303.846 281.714" stroke="#00386D" stroke-width="2" stroke-linecap="round" stroke-linejoin="round"/>
<path fill-rule="evenodd" clip-rule="evenodd" d="M68.4291 141.899L106.311 18.7841C109.683 7.82438 121.561 1.93822 132.324 5.89294L251.077 49.526L235.257 100.989C243.558 99.5987 252.47 102.716 258.269 109.889C266.73 120.355 265.36 135.491 255.21 143.697C245.594 151.471 231.546 150.235 222.901 141.184L207.514 191.236L157.843 173.616C159.49 181.913 156.66 190.751 149.719 196.363C139.682 204.477 124.85 202.772 116.591 192.556C108.51 182.559 109.715 168.117 119.173 159.899L68.4291 141.899Z" fill="#0077E8"/>
<path d="M106.311 18.7841L107.266 19.0782L106.311 18.7841ZM68.4291 141.899L67.4733 141.605C67.3157 142.117 67.5898 142.663 68.0948 142.842L68.4291 141.899ZM132.324 5.89294L131.979 6.83158L132.324 5.89294ZM251.077 49.526L252.033 49.8198C252.189 49.3119 251.921 48.7706 251.422 48.5873L251.077 49.526ZM235.257 100.989L234.301 100.695C234.199 101.027 234.276 101.387 234.505 101.648C234.733 101.909 235.08 102.033 235.422 101.975L235.257 100.989ZM258.269 109.889L259.047 109.261L258.269 109.889ZM255.21 143.697L255.839 144.474L255.21 143.697ZM222.901 141.184L223.624 140.493C223.379 140.237 223.016 140.129 222.671 140.211C222.325 140.293 222.049 140.551 221.945 140.89L222.901 141.184ZM207.514 191.236L207.18 192.178C207.437 192.269 207.72 192.251 207.964 192.129C208.207 192.007 208.39 191.79 208.47 191.529L207.514 191.236ZM157.843 173.616L158.177 172.674C157.838 172.553 157.461 172.624 157.189 172.86C156.917 173.095 156.792 173.458 156.862 173.811L157.843 173.616ZM149.719 196.363L149.09 195.585L149.719 196.363ZM116.591 192.556L115.814 193.184L116.591 192.556ZM119.173 159.899L119.829 160.654C120.098 160.421 120.222 160.063 120.156 159.713C120.09 159.364 119.843 159.076 119.508 158.957L119.173 159.899ZM105.355 18.49L67.4733 141.605L69.3848 142.193L107.266 19.0782L105.355 18.49ZM132.669 4.95429C121.367 0.801842 108.896 6.98231 105.355 18.49L107.266 19.0782C110.47 8.66646 121.754 3.0746 131.979 6.83158L132.669 4.95429ZM251.422 48.5873L132.669 4.95429L131.979 6.83158L250.732 50.4646L251.422 48.5873ZM236.213 101.283L252.033 49.8198L250.121 49.2321L234.301 100.695L236.213 101.283ZM259.047 109.261C253.019 101.804 243.745 98.5535 235.092 100.003L235.422 101.975C243.372 100.644 251.922 103.628 257.491 110.518L259.047 109.261ZM255.839 144.474C266.441 135.904 267.836 120.133 259.047 109.261L257.491 110.518C265.623 120.577 264.28 135.079 254.581 142.919L255.839 144.474ZM222.178 141.875C231.162 151.28 245.795 152.594 255.839 144.474L254.581 142.919C245.393 150.347 231.931 149.19 223.624 140.493L222.178 141.875ZM208.47 191.529L223.856 141.478L221.945 140.89L206.559 190.942L208.47 191.529ZM157.509 174.559L207.18 192.178L207.849 190.293L158.177 172.674L157.509 174.559ZM150.347 197.141C157.594 191.282 160.539 182.062 158.824 173.421L156.862 173.811C158.441 181.765 155.726 190.221 149.09 195.585L150.347 197.141ZM115.814 193.184C124.409 203.817 139.868 205.612 150.347 197.141L149.09 195.585C139.496 203.341 125.292 201.727 117.369 191.927L115.814 193.184ZM118.517 159.144C108.643 167.725 107.403 182.78 115.814 193.184L117.369 191.927C109.617 182.338 110.788 168.51 119.829 160.654L118.517 159.144ZM68.0948 142.842L118.839 160.842L119.508 158.957L68.7634 140.957L68.0948 142.842Z" fill="#00386D"/>
<path fill-rule="evenodd" clip-rule="evenodd" d="M120.328 5.32412C124.149 4.31212 128.314 4.41955 132.324 5.89294L251.077 49.526L235.257 100.989C243.559 99.5987 252.47 102.716 258.269 109.889C266.73 120.355 265.36 135.491 255.21 143.697C254.984 143.88 254.755 144.058 254.523 144.231C257.369 143.399 260.091 142.008 262.528 140.038C272.678 131.832 274.047 116.696 265.587 106.23C259.788 99.0569 250.876 95.9395 242.575 97.33L258.395 45.8668L139.642 2.23376C132.839 -0.265599 125.592 1.16565 120.328 5.32412ZM227.86 145.197C226.078 144.101 224.407 142.761 222.901 141.184L207.407 191.222L214.832 187.576L227.86 145.197ZM165.553 176.351L157.843 173.616C159.49 181.913 156.66 190.751 149.719 196.363C149.492 196.547 149.262 196.726 149.03 196.899C151.873 196.069 154.596 194.676 157.036 192.704C162.207 188.524 165.096 182.554 165.553 176.351Z" fill="#0356A4" stroke="#00386D" stroke-width="2" stroke-linecap="round" stroke-linejoin="round"/>
<path d="M258.286 46.0332L251.028 49.7432" stroke="#00386D" stroke-width="2" stroke-linecap="round" stroke-linejoin="round"/>
<path fill-rule="evenodd" clip-rule="evenodd" d="M194.815 97.5969C195.159 98.4531 195.145 99.4144 194.776 100.264L185.655 121.262C179.378 135.712 162.761 142.418 148.539 136.241C141.97 133.387 137.061 128.284 134.299 122.194C133.784 122.131 133.27 121.993 132.771 121.776C129.956 120.553 128.672 117.262 129.905 114.425C131.137 111.588 134.419 110.279 137.234 111.502C140.049 112.725 141.333 116.017 140.1 118.854C139.774 119.604 139.305 120.248 138.739 120.766C141.091 125.617 145.098 129.667 150.395 131.968C162.294 137.136 176.198 131.525 181.45 119.435L192.135 94.8415C192.44 94.1414 193.43 94.1506 193.714 94.8562L194.815 97.5969ZM149.032 111.852L149.073 112.163C149.606 116.219 152.172 119.87 156.154 121.6C162.218 124.234 169.286 121.415 171.94 115.305C174.554 109.287 171.913 102.319 166.042 99.5946L165.905 99.5311L165.766 99.471L126.553 82.4375C120.489 79.8035 113.421 82.6218 110.767 88.7325C108.112 94.8432 110.877 101.932 116.941 104.566C120.923 106.296 125.342 105.68 128.671 103.301L128.926 103.118L129.2 102.968C132.767 101.022 137.169 100.671 141.182 102.414C145.195 104.157 147.943 107.613 148.954 111.549L149.032 111.852ZM163.513 92.8555L128.613 77.6957C119.95 73.9327 109.853 77.9589 106.061 86.6885C102.269 95.418 106.218 105.545 114.881 109.308C120.578 111.783 126.895 110.889 131.632 107.503C133.869 106.282 136.615 106.067 139.122 107.156C141.629 108.244 143.346 110.399 143.981 112.867C144.739 118.639 148.397 123.867 154.095 126.342C162.757 130.105 172.854 126.078 176.646 117.349C180.38 108.751 176.607 98.7983 168.216 94.9043L168.218 94.8995L167.826 94.7291L163.513 92.8555Z" fill="#1EE0BD"/>
<path d="M208.54 84.7004C212.438 86.3937 216.982 84.5819 218.688 80.6536C220.395 76.7253 218.618 72.1681 214.719 70.4748C210.821 68.7815 206.278 70.5933 204.571 74.5216C202.865 78.4499 204.642 83.0071 208.54 84.7004Z" fill="#0356A4"/>
<path d="M191.678 77.376C190.446 80.2131 187.164 81.5216 184.349 80.2987C181.534 79.0757 180.25 75.7844 181.483 72.9473C182.715 70.1102 185.996 68.8017 188.812 70.0246C191.627 71.2476 192.911 74.5389 191.678 77.376Z" fill="#0356A4"/>
<path d="M193.907 87.2686C193.338 88.5781 191.824 89.182 190.524 88.6176C189.225 88.0531 188.632 86.5341 189.201 85.2246C189.77 83.9152 191.284 83.3112 192.584 83.8757C193.883 84.4401 194.476 85.9592 193.907 87.2686Z" fill="#0356A4"/>
<ellipse cx="248.007" cy="368.22" rx="22.9709" ry="24.5685" transform="rotate(41.5545 248.007 368.22)" stroke="#00386D" stroke-width="2"/>
<path fill-rule="evenodd" clip-rule="evenodd" d="M270.566 373.986C279.091 376.396 288.94 373.657 295.553 366.196C304.554 356.042 304.154 340.989 294.66 332.573C285.167 324.158 270.174 325.567 261.174 335.721C258.643 338.576 256.855 341.819 255.804 345.192C258.881 346.062 261.786 347.603 264.304 349.835C271.128 355.884 273.253 365.363 270.566 373.986Z" fill="#0356A4"/>
<path d="M295.553 366.196L294.805 365.532V365.532L295.553 366.196ZM270.566 373.986L269.612 373.689L269.306 374.669L270.294 374.949L270.566 373.986ZM294.66 332.573L295.324 331.825L294.66 332.573ZM261.174 335.721L261.922 336.384L261.174 335.721ZM255.804 345.192L254.849 344.895L254.544 345.875L255.532 346.155L255.804 345.192ZM264.304 349.835L263.641 350.583L264.304 349.835ZM294.805 365.532C288.437 372.716 278.981 375.326 270.838 373.024L270.294 374.949C279.201 377.467 289.442 374.597 296.301 366.859L294.805 365.532ZM293.997 333.322C303.031 341.329 303.482 355.744 294.805 365.532L296.301 366.859C305.626 356.34 305.277 340.648 295.324 331.825L293.997 333.322ZM261.922 336.384C270.599 326.596 284.963 325.314 293.997 333.322L295.324 331.825C285.37 323.002 269.75 324.539 260.425 335.058L261.922 336.384ZM256.759 345.49C257.768 342.25 259.486 339.133 261.922 336.384L260.425 335.058C257.8 338.02 255.942 341.387 254.849 344.895L256.759 345.49ZM255.532 346.155C258.469 346.985 261.239 348.454 263.641 350.583L264.967 349.087C262.333 346.752 259.293 345.139 256.076 344.23L255.532 346.155ZM263.641 350.583C270.139 356.343 272.195 365.399 269.612 373.689L271.521 374.284C274.312 365.327 272.118 355.425 264.967 349.087L263.641 350.583Z" fill="#00386D"/>
<path d="M242.056 383.252C241.466 383.011 241.184 382.338 241.425 381.748L252.793 353.958C253.034 353.369 253.708 353.086 254.297 353.328C254.886 353.569 255.169 354.242 254.928 354.831L243.559 382.621C243.318 383.211 242.645 383.493 242.056 383.252ZM243.228 379.644C241.805 379.062 240.543 378.26 239.441 377.24C238.669 376.504 238.06 375.755 237.612 374.992C237.281 374.426 237.418 373.722 237.859 373.237C238.69 372.323 240.231 372.558 241.026 373.503C241.21 373.722 241.406 373.939 241.615 374.153C242.5 375.06 243.506 375.744 244.634 376.206C245.589 376.596 246.413 376.785 247.107 376.771C247.801 376.758 248.374 376.596 248.825 376.285C249.285 375.953 249.628 375.511 249.854 374.959C250.132 374.28 250.154 373.657 249.919 373.091C249.694 372.503 249.308 371.961 248.761 371.465C248.241 370.955 247.634 370.434 246.94 369.902C246.263 369.377 245.591 368.818 244.922 368.222C244.281 367.613 243.73 366.954 243.27 366.245C242.836 365.523 242.576 364.698 242.49 363.771C242.403 362.844 242.603 361.786 243.089 360.597C243.584 359.387 244.296 358.39 245.224 357.606C246.179 356.807 247.316 356.331 248.635 356.177C249.98 356.008 251.485 356.265 253.151 356.946C254.244 357.394 255.259 358.007 256.196 358.787C256.787 359.278 257.298 359.806 257.73 360.37C258.181 360.96 258.087 361.775 257.604 362.339C256.823 363.249 255.383 363.121 254.524 362.284C254.365 362.129 254.202 361.982 254.035 361.842C253.289 361.19 252.517 360.7 251.718 360.374C250.781 359.991 249.961 359.816 249.259 359.851C248.573 359.892 248 360.079 247.54 360.411C247.098 360.751 246.759 361.207 246.525 361.78C246.247 362.459 246.212 363.089 246.42 363.669C246.654 364.236 247.036 364.764 247.565 365.253C248.112 365.749 248.728 366.273 249.413 366.826C250.107 367.358 250.78 367.918 251.43 368.506C252.098 369.101 252.653 369.75 253.096 370.451C253.556 371.159 253.82 371.973 253.889 372.894C253.976 373.821 253.78 374.868 253.303 376.035C252.817 377.224 252.096 378.218 251.142 379.016C250.213 379.801 249.076 380.277 247.731 380.445C246.395 380.592 244.894 380.325 243.228 379.644Z" fill="#00386D"/>
<path d="M316.259 175.42L334.503 209.357C335.812 211.788 335.005 215.061 332.714 216.63L311.858 230.89C309.567 232.459 306.621 231.751 305.312 229.319L287.068 195.383C285.759 192.952 286.566 189.679 288.857 188.11L309.713 173.85C312.004 172.28 314.95 172.989 316.259 175.42Z" fill="#0356A4" stroke="#00386D" stroke-width="2"/>
<path d="M305.908 176.521L335.009 199.488C335.009 199.488 335.01 199.488 335.01 199.488C336.632 200.773 337.016 203.46 335.66 205.46L320.953 227.115C319.611 229.085 317.233 229.462 315.668 228.23L286.562 205.253C286.561 205.253 286.561 205.253 286.56 205.252C284.939 203.967 284.555 201.281 285.911 199.281C285.911 199.281 285.911 199.281 285.911 199.281L300.616 177.634C300.616 177.633 300.616 177.633 300.616 177.633C301.959 175.66 304.34 175.287 305.907 176.52C305.907 176.52 305.908 176.52 305.908 176.521Z" fill="#1EE0BD" stroke="#00386D" stroke-width="2"/>
<path d="M293.243 181.343L341.182 194.37C344.621 195.305 346.582 199.196 345.542 203.022L336.091 237.801C335.051 241.627 331.39 243.991 327.952 243.056L280.013 230.029C276.574 229.095 274.613 225.203 275.653 221.377L285.104 186.599C286.144 182.772 289.804 180.408 293.243 181.343Z" fill="#0356A4" stroke="#00386D" stroke-width="2"/>
<path d="M326.607 237.999L322.938 237.002L323.214 235.985L326.883 236.982L326.607 237.999ZM319.269 236.005L315.601 235.008L315.877 233.991L319.546 234.988L319.269 236.005ZM311.939 234.013L308.27 233.016L308.546 231.999L312.215 232.996L311.939 234.013ZM304.608 232.02L300.939 231.023L301.215 230.007L304.884 231.004L304.608 232.02ZM297.27 230.026L293.602 229.03L293.878 228.013L297.547 229.01L297.27 230.026ZM289.94 228.034L286.271 227.037L286.547 226.021L290.216 227.018L289.94 228.034ZM282.602 226.04L281.193 225.658C279.917 225.311 279.192 223.872 279.58 222.444L279.805 221.613L280.719 221.862L280.493 222.692C280.259 223.554 280.697 224.423 281.471 224.633L282.88 225.016L282.602 226.04ZM330.593 238.573L330.29 237.591C330.747 237.399 331.099 236.986 331.238 236.474L331.808 234.378L332.721 234.626L332.152 236.722C331.929 237.57 331.344 238.261 330.593 238.573ZM281.833 217.789L280.92 217.541L282.029 213.458L282.943 213.706L281.833 217.789ZM333.834 230.561L332.92 230.313L334.029 226.231L334.943 226.479L333.834 230.561ZM284.052 209.624L283.138 209.376L284.248 205.293L285.162 205.542L284.052 209.624ZM336.052 222.396L335.139 222.148L336.248 218.066L337.162 218.314L336.052 222.396ZM286.269 201.467L285.355 201.219L286.465 197.136L287.378 197.384L286.269 201.467ZM338.269 214.239L337.355 213.991L338.465 209.909L339.378 210.157L338.269 214.239ZM288.488 193.302L287.574 193.054L288.683 188.971L289.597 189.22L288.488 193.302ZM340.486 206.082L339.572 205.834L340.681 201.752L341.595 202L340.486 206.082ZM291.439 186.686L291.5 185.636C291.687 185.637 291.874 185.663 292.049 185.71L295.285 186.59L295.009 187.607L291.772 186.727C291.666 186.706 291.55 186.692 291.439 186.686ZM339.012 199.573L335.343 198.576L335.619 197.559L339.288 198.556L339.012 199.573ZM331.674 197.579L328.005 196.582L328.281 195.565L331.95 196.562L331.674 197.579ZM324.343 195.586L320.674 194.589L320.951 193.573L324.62 194.57L324.343 195.586ZM317.013 193.594L313.344 192.597L313.62 191.581L317.289 192.578L317.013 193.594ZM309.675 191.6L306.006 190.603L306.282 189.587L309.951 190.584L309.675 191.6ZM302.344 189.608L298.675 188.611L298.952 187.595L302.621 188.592L302.344 189.608Z" fill="#1EE0BD"/>
<path d="M331.317 210.194L342.686 213.284C344.144 213.68 345.143 215.422 344.63 217.31L342.538 225.009C342.025 226.896 340.281 227.893 338.823 227.497L327.454 224.407C324.092 223.494 322.008 219.598 323.096 215.592C324.185 211.586 327.954 209.28 331.317 210.194Z" fill="#1EE0BD" stroke="#00386D" stroke-width="2"/>
<path d="M107.117 334.638L109.163 288.478L106.033 288.18L103.988 334.34L100.858 334.041L100.961 331.733L72.796 329.046L72.6937 331.354L69.5643 331.056L71.6098 284.896L68.4803 284.597L66.4349 330.757L63.3055 330.459L65.5555 279.683L74.9437 280.578L74.6369 287.502L74.7934 287.517C74.6601 288.268 74.5735 289.036 74.5346 289.81C74.1392 298.733 80.1229 306.568 87.901 307.31C95.6792 308.052 102.304 301.42 102.699 292.497C102.729 291.722 102.711 290.945 102.645 290.174L102.802 290.189L103.108 283.265L112.497 284.161L110.247 334.937L107.117 334.638ZM78.459 307.628C76.7419 306.082 75.2325 304.083 74.0064 301.731L73.0005 324.43L77.6947 324.878L78.459 307.628ZM86.1358 311.687C84.5484 311.364 82.9926 310.765 81.5009 309.902L80.8241 325.177L85.5182 325.625L86.1358 311.687ZM94.0185 311.097C92.4633 311.668 90.8677 311.967 89.2652 311.985L88.6476 325.923L93.3417 326.371L94.0185 311.097ZM97.2355 309.419L96.4711 326.67L101.165 327.117L102.171 304.418C100.748 306.518 99.0746 308.213 97.2355 309.419Z" fill="#0356A4"/>
<path d="M104.305 352.929C102.257 352.723 100.352 351.335 99.0012 349.065C97.4328 351.034 95.4067 352.019 93.3594 351.81C91.3121 351.601 89.4074 350.213 88.0556 347.946C86.4872 349.914 84.4612 350.9 82.4139 350.69C80.3666 350.481 78.4619 349.093 77.11 346.827C75.9295 348.304 74.4816 349.237 72.9479 349.509C71.4142 349.781 69.8629 349.38 68.4886 348.356C67.1142 347.332 65.9779 345.73 65.2221 343.752C64.4663 341.773 64.1247 339.506 64.24 337.235L67.3673 337.555C67.2735 339.39 67.6778 341.201 68.4911 342.589C69.3045 343.977 70.4603 344.828 71.7043 344.956C72.9484 345.083 74.1787 344.476 75.1248 343.268C76.0709 342.06 76.6552 340.35 76.7492 338.514L78.3128 338.674C78.219 340.51 78.6232 342.321 79.4365 343.709C80.2498 345.097 81.4057 345.948 82.6498 346.076C83.894 346.203 85.1244 345.596 86.0705 344.388C87.0166 343.18 87.6009 341.469 87.6947 339.634L89.2584 339.794C89.1645 341.629 89.5687 343.441 90.3821 344.829C91.1954 346.217 92.3513 347.068 93.5954 347.195C94.8395 347.322 96.07 346.715 97.0161 345.507C97.9622 344.299 98.5464 342.589 98.6403 340.753L100.204 340.913C100.11 342.749 100.514 344.56 101.328 345.948C102.141 347.336 103.297 348.187 104.541 348.315C105.785 348.442 107.016 347.835 107.962 346.627C108.908 345.418 109.492 343.708 109.586 341.873L112.713 342.192C112.557 345.252 111.583 348.102 110.006 350.116C108.429 352.129 106.379 353.141 104.305 352.929Z" fill="#00386D"/>
</svg>
