<svg width="144" height="41" viewBox="0 0 144 41" fill="none" xmlns="http://www.w3.org/2000/svg">
<g>
<g clip-path="url(#clip0_1363_2826)">
<g clip-path="url(#clip1_1363_2826)">
<path fill-rule="evenodd" clip-rule="evenodd" d="M20 0.334961C8.95 0.334961 0 9.28496 0 20.335C0 29.185 5.725 36.66 13.675 39.31C14.675 39.485 15.05 38.885 15.05 38.36C15.05 37.885 15.025 36.31 15.025 34.635C10 35.56 8.7 33.41 8.3 32.285C8.075 31.71 7.1 29.935 6.25 29.46C5.55 29.085 4.55 28.16 6.225 28.135C7.8 28.11 8.925 29.585 9.3 30.185C11.1 33.21 13.975 32.36 15.125 31.835C15.3 30.535 15.825 29.66 16.4 29.16C11.95 28.66 7.3 26.935 7.3 19.285C7.3 17.11 8.075 15.31 9.35 13.91C9.15 13.41 8.45 11.36 9.55 8.60996C9.55 8.60996 11.225 8.08496 15.05 10.66C16.65 10.21 18.35 9.98496 20.05 9.98496C21.75 9.98496 23.45 10.21 25.05 10.66C28.875 8.05996 30.55 8.60996 30.55 8.60996C31.65 11.36 30.95 13.41 30.75 13.91C32.025 15.31 32.8 17.085 32.8 19.285C32.8 26.96 28.125 28.66 23.675 29.16C24.4 29.785 25.025 30.985 25.025 32.86C25.025 35.535 25 37.685 25 38.36C25 38.885 25.375 39.51 26.375 39.31C30.3453 37.9695 33.7953 35.4178 36.2394 32.0139C38.6836 28.61 39.9988 24.5254 40 20.335C40 9.28496 31.05 0.334961 20 0.334961Z" fill="currentColor"/>
</g>
</g>
<path d="M72.672 18.815C72.368 18.255 71.928 17.831 71.352 17.543C70.792 17.239 70.128 17.087 69.36 17.087C68.032 17.087 66.968 17.527 66.168 18.407C65.368 19.271 64.968 20.431 64.968 21.887C64.968 23.439 65.384 24.655 66.216 25.535C67.064 26.399 68.224 26.831 69.696 26.831C70.704 26.831 71.552 26.575 72.24 26.063C72.944 25.551 73.456 24.815 73.776 23.855H68.568V20.831H77.496V24.647C77.192 25.671 76.672 26.623 75.936 27.503C75.216 28.383 74.296 29.095 73.176 29.639C72.056 30.183 70.792 30.455 69.384 30.455C67.72 30.455 66.232 30.095 64.92 29.375C63.624 28.639 62.608 27.623 61.872 26.327C61.152 25.031 60.792 23.551 60.792 21.887C60.792 20.223 61.152 18.743 61.872 17.447C62.608 16.135 63.624 15.119 64.92 14.399C66.216 13.663 67.696 13.295 69.36 13.295C71.376 13.295 73.072 13.783 74.448 14.759C75.84 15.735 76.76 17.087 77.208 18.815H72.672ZM81.8333 15.551C81.1133 15.551 80.5213 15.343 80.0573 14.927C79.6093 14.495 79.3853 13.967 79.3853 13.343C79.3853 12.703 79.6093 12.175 80.0573 11.759C80.5213 11.327 81.1133 11.111 81.8333 11.111C82.5373 11.111 83.1133 11.327 83.5613 11.759C84.0253 12.175 84.2573 12.703 84.2573 13.343C84.2573 13.967 84.0253 14.495 83.5613 14.927C83.1133 15.343 82.5373 15.551 81.8333 15.551ZM83.8733 16.943V30.335H79.7693V16.943H83.8733ZM94.3114 26.855V30.335H92.2234C90.7354 30.335 89.5754 29.975 88.7434 29.255C87.9114 28.519 87.4954 27.327 87.4954 25.679V20.351H85.8634V16.943H87.4954V13.679H91.5994V16.943H94.2874V20.351H91.5994V25.727C91.5994 26.127 91.6954 26.415 91.8874 26.591C92.0794 26.767 92.3994 26.855 92.8474 26.855H94.3114ZM104.829 16.799C106.365 16.799 107.597 17.311 108.525 18.335C109.453 19.343 109.917 20.735 109.917 22.511V30.335H105.837V23.063C105.837 22.167 105.605 21.471 105.141 20.975C104.677 20.479 104.053 20.231 103.269 20.231C102.485 20.231 101.861 20.479 101.397 20.975C100.933 21.471 100.701 22.167 100.701 23.063V30.335H96.5974V12.575H100.701V18.743C101.117 18.151 101.685 17.679 102.405 17.327C103.125 16.975 103.933 16.799 104.829 16.799ZM125.993 16.943V30.335H121.889V28.511C121.473 29.103 120.905 29.583 120.185 29.951C119.481 30.303 118.697 30.479 117.833 30.479C116.809 30.479 115.905 30.255 115.121 29.807C114.337 29.343 113.729 28.679 113.297 27.815C112.865 26.951 112.649 25.935 112.649 24.767V16.943H116.729V24.215C116.729 25.111 116.961 25.807 117.425 26.303C117.889 26.799 118.513 27.047 119.297 27.047C120.097 27.047 120.729 26.799 121.193 26.303C121.657 25.807 121.889 25.111 121.889 24.215V16.943H125.993ZM133.045 18.839C133.429 18.215 133.981 17.711 134.701 17.327C135.421 16.943 136.245 16.751 137.173 16.751C138.277 16.751 139.277 17.031 140.173 17.591C141.069 18.151 141.773 18.951 142.285 19.991C142.813 21.031 143.077 22.239 143.077 23.615C143.077 24.991 142.813 26.207 142.285 27.263C141.773 28.303 141.069 29.111 140.173 29.687C139.277 30.247 138.277 30.527 137.173 30.527C136.229 30.527 135.405 30.343 134.701 29.975C133.997 29.591 133.445 29.087 133.045 28.463V30.335H128.941V12.575H133.045V18.839ZM138.901 23.615C138.901 22.591 138.613 21.791 138.037 21.215C137.477 20.623 136.781 20.327 135.949 20.327C135.133 20.327 134.437 20.623 133.861 21.215C133.301 21.807 133.021 22.615 133.021 23.639C133.021 24.663 133.301 25.471 133.861 26.063C134.437 26.655 135.133 26.951 135.949 26.951C136.765 26.951 137.461 26.655 138.037 26.063C138.613 25.455 138.901 24.639 138.901 23.615Z" fill="currentColor"/>
</g>
<defs>
<clipPath id="clip0_1363_2826">
<rect width="40" height="40" fill="currentColor" transform="translate(0 0.334961)"/>
</clipPath>
<clipPath id="clip1_1363_2826">
<rect width="40" height="40" fill="currentColor" transform="translate(0 0.334961)"/>
</clipPath>
</defs>
</svg>
