<svg width="178" height="39" viewBox="0 0 178 39" fill="none" xmlns="http://www.w3.org/2000/svg">
<g>
<path d="M56.9214 35.9567V11.8923H60.5019L60.8429 13.8346H61.0134C62.0363 12.5042 63.7748 11.5513 66.1953 11.5513C70.6251 11.5513 74.172 15.1651 74.172 20.5146C74.172 25.8639 70.6282 29.4778 66.1953 29.4778C63.8083 29.4778 62.1398 28.4883 61.2539 27.3648H61.0833V35.9536H56.9245L56.9214 35.9567ZM70.0102 20.5175C70.0102 17.3817 67.9977 15.4057 65.5436 15.4057C63.0897 15.4057 61.0773 17.3817 61.0773 20.5175C61.0773 23.6536 63.0897 25.6295 65.5436 25.6295C67.9977 25.6295 70.0102 23.6536 70.0102 20.5175Z" fill="black"/>
<path d="M76.2833 20.5179C76.2833 15.3025 80.0312 11.5547 85.0426 11.5547C90.0539 11.5547 93.8018 15.3025 93.8018 20.5179C93.8018 25.7334 90.0539 29.4813 85.0426 29.4813C80.0312 29.4813 76.2833 25.6969 76.2833 20.5179ZM89.6095 20.5179C89.6095 17.449 87.5635 15.4061 85.0426 15.4061C82.5216 15.4061 80.4422 17.4521 80.4422 20.5179C80.4422 23.5839 82.5216 25.5963 85.0426 25.5963C87.5635 25.5963 89.6095 23.5868 89.6095 20.5179Z" fill="black"/>
<path d="M96.8133 29.1401V5.28271H100.972V29.1431H96.8133V29.1401Z" fill="black"/>
<path d="M116.413 11.8921H120.842L113.343 32.8541C112.595 34.9335 111.571 35.9564 108.877 35.9564H104.855V32.105H108.265C108.88 32.105 109.218 31.7976 109.425 31.2861L109.833 30.1627L102.812 11.8921H107.242L111.709 23.8574H112.391L116.413 11.8921Z" fill="black"/>
<path d="M121.638 29.9923H125.864C126.034 31.1159 127.158 32.6503 129.819 32.6503C132.306 32.6503 133.944 31.0823 133.944 28.6953V26.275H133.773C132.854 27.2643 131.149 28.1504 128.966 28.1504C124.536 28.1504 121.126 24.7403 121.126 19.8325C121.126 14.9247 124.536 11.5513 128.966 11.5513C131.249 11.5513 132.921 12.4707 133.977 13.7677H134.148L134.489 11.8923H138.103V28.6953C138.103 33.2622 135.034 36.2977 129.819 36.2977C123.991 36.2977 121.741 32.4797 121.638 29.9923ZM133.944 19.8356C133.944 17.1442 132.035 15.2687 129.615 15.2687C127.194 15.2687 125.319 17.1442 125.319 19.8356C125.319 22.5271 127.228 24.436 129.615 24.436C132.002 24.436 133.944 22.5604 133.944 19.8356Z" fill="black"/>
<path d="M140.993 20.5179C140.993 15.3025 144.741 11.5547 149.752 11.5547C154.764 11.5547 158.512 15.3025 158.512 20.5179C158.512 25.7334 154.764 29.4813 149.752 29.4813C144.741 29.4813 140.993 25.6969 140.993 20.5179ZM154.319 20.5179C154.319 17.449 152.273 15.4061 149.752 15.4061C147.231 15.4061 145.152 17.4521 145.152 20.5179C145.152 23.5839 147.231 25.5963 149.752 25.5963C152.273 25.5963 154.319 23.5868 154.319 20.5179Z" fill="black"/>
<path d="M161.407 29.1399V11.8923H164.984L165.325 13.5272H165.496C166.178 12.7448 167.883 11.5513 170.471 11.5513C174.425 11.5513 177.287 14.4131 177.287 18.776V29.1368H173.129V19.3211C173.129 17.1046 171.561 15.5032 169.415 15.5032C167.268 15.5032 165.563 17.1746 165.563 19.3211V29.1368H161.404L161.407 29.1399Z" fill="black"/>
<path d="M32.7142 27.1275L42.9378 21.2241C43.4798 20.9105 43.8148 20.3289 43.8148 19.7048V7.89796C43.8148 7.27382 43.4798 6.69231 42.9378 6.37871L32.7142 0.475259C32.1722 0.161673 31.4994 0.16472 30.9605 0.475259L20.7367 6.37871C20.1949 6.69231 19.8599 7.27382 19.8599 7.89796V28.9969L12.6899 33.1345L5.51993 28.9969V20.7188L12.6899 16.5812L17.4182 19.312V13.7588L13.5667 11.5332C13.3018 11.381 12.9975 11.2988 12.6899 11.2988C12.3823 11.2988 12.078 11.381 11.8131 11.5332L1.58937 17.4366C1.04744 17.7502 0.712524 18.3318 0.712524 18.9559V30.7629C0.712524 31.387 1.04744 31.9684 1.58937 32.282L11.8131 38.1855C12.355 38.496 13.0249 38.496 13.5667 38.1855L23.7905 32.282C24.3325 31.9684 24.6673 31.387 24.6673 30.7629V9.66078L24.7951 9.5877L31.8343 5.52318L39.0044 9.66078V17.939L31.8343 22.0766L27.1121 19.3516V24.9051L30.9574 27.1246C31.4994 27.4351 32.1722 27.4351 32.7111 27.1246L32.7142 27.1275Z" fill="black"/>
</g>
</svg>
