<svg width="147" height="45" viewBox="0 0 147 45" fill="none" xmlns="http://www.w3.org/2000/svg">
<g>
<path d="M41.405 10.5633C40.0134 11.1799 38.5184 11.5966 36.9467 11.7849C38.5684 10.8146 39.7816 9.28737 40.36 7.48826C38.8364 8.39324 37.1689 9.03025 35.43 9.37159C34.2607 8.12303 32.7118 7.29547 31.0239 7.01738C29.336 6.7393 27.6035 7.02625 26.0954 7.83368C24.5873 8.64112 23.388 9.92386 22.6836 11.4828C21.9792 13.0417 21.8092 14.7895 22.2 16.4549C19.1128 16.2999 16.0927 15.4975 13.3357 14.0998C10.5787 12.702 8.14642 10.7402 6.19668 8.34159C5.53002 9.49159 5.14668 10.8249 5.14668 12.2449C5.14594 13.5233 5.46074 14.782 6.06315 15.9095C6.66556 17.037 7.53695 17.9983 8.60002 18.7083C7.36714 18.669 6.16147 18.3359 5.08335 17.7366V17.8366C5.08323 19.6295 5.7034 21.3672 6.83866 22.7549C7.97391 24.1426 9.5543 25.0948 11.3117 25.4499C10.168 25.7595 8.96891 25.805 7.80502 25.5833C8.30085 27.1259 9.26668 28.475 10.5673 29.4415C11.8679 30.408 13.4382 30.9436 15.0584 30.9733C12.3081 33.1323 8.9115 34.3034 5.41502 34.2983C4.79565 34.2984 4.17681 34.2623 3.56168 34.1899C7.11081 36.4719 11.2423 37.683 15.4617 37.6783C29.745 37.6783 37.5534 25.8483 37.5534 15.5883C37.5534 15.2549 37.545 14.9183 37.53 14.5849C39.0488 13.4865 40.3599 12.1264 41.4017 10.5683L41.405 10.5633Z" fill="currentColor"/>
<path d="M73.608 13.487V16.775H69.144V30.335H65.04V16.775H60.576V13.487H73.608ZM94.8917 16.943L91.2677 30.335H86.7317L84.6197 21.647L82.4357 30.335H77.9237L74.2757 16.943H78.3797L80.2757 26.519L82.5317 16.943H86.8757L89.1557 26.471L91.0277 16.943H94.8917ZM98.5208 15.551C97.8008 15.551 97.2088 15.343 96.7448 14.927C96.2968 14.495 96.0728 13.967 96.0728 13.343C96.0728 12.703 96.2968 12.175 96.7448 11.759C97.2088 11.327 97.8008 11.111 98.5208 11.111C99.2248 11.111 99.8008 11.327 100.249 11.759C100.713 12.175 100.945 12.703 100.945 13.343C100.945 13.967 100.713 14.495 100.249 14.927C99.8008 15.343 99.2248 15.551 98.5208 15.551ZM100.561 16.943V30.335H96.4568V16.943H100.561ZM110.999 26.855V30.335H108.911C107.423 30.335 106.263 29.975 105.431 29.255C104.599 28.519 104.183 27.327 104.183 25.679V20.351H102.551V16.943H104.183V13.679H108.287V16.943H110.975V20.351H108.287V25.727C108.287 26.127 108.383 26.415 108.575 26.591C108.767 26.767 109.087 26.855 109.535 26.855H110.999ZM120.749 26.855V30.335H118.661C117.173 30.335 116.013 29.975 115.181 29.255C114.349 28.519 113.933 27.327 113.933 25.679V20.351H112.301V16.943H113.933V13.679H118.037V16.943H120.725V20.351H118.037V25.727C118.037 26.127 118.133 26.415 118.325 26.591C118.517 26.767 118.837 26.855 119.285 26.855H120.749ZM135.659 23.423C135.659 23.807 135.635 24.207 135.587 24.623H126.299C126.363 25.455 126.627 26.095 127.091 26.543C127.571 26.975 128.155 27.191 128.843 27.191C129.867 27.191 130.579 26.759 130.979 25.895H135.347C135.123 26.775 134.715 27.567 134.123 28.271C133.547 28.975 132.819 29.527 131.939 29.927C131.059 30.327 130.075 30.527 128.987 30.527C127.675 30.527 126.507 30.247 125.483 29.687C124.459 29.127 123.659 28.327 123.083 27.287C122.507 26.247 122.219 25.031 122.219 23.639C122.219 22.247 122.499 21.031 123.059 19.991C123.635 18.951 124.435 18.151 125.459 17.591C126.483 17.031 127.659 16.751 128.987 16.751C130.283 16.751 131.435 17.023 132.443 17.567C133.451 18.111 134.235 18.887 134.795 19.895C135.371 20.903 135.659 22.079 135.659 23.423ZM131.459 22.343C131.459 21.639 131.219 21.079 130.739 20.663C130.259 20.247 129.659 20.039 128.939 20.039C128.251 20.039 127.667 20.239 127.187 20.639C126.723 21.039 126.435 21.607 126.323 22.343H131.459ZM141.928 19.175C142.408 18.439 143.008 17.863 143.728 17.447C144.448 17.015 145.248 16.799 146.128 16.799V21.143H145C143.976 21.143 143.208 21.367 142.696 21.815C142.184 22.247 141.928 23.015 141.928 24.119V30.335H137.824V16.943H141.928V19.175Z" fill="currentColor"/>
</g>
</svg>
