<svg width="121" height="121" viewBox="0 0 121 121" fill="none" xmlns="http://www.w3.org/2000/svg">
<circle cx="82.9222" cy="67.1349" r="23.8346" fill="#1EE0BD"/>
<path d="M18.6974 25.2202L30.4058 21.8032L42.1031 25.2202V32.2277C42.1031 39.593 37.3896 46.1318 30.4019 48.4601C23.4124 46.1319 18.6974 39.5916 18.6974 32.2244V25.2202Z" stroke="white" stroke-width="1.5" stroke-linecap="round" stroke-linejoin="round"/>
<path d="M30.4017 28.6157V41.1479" stroke="white" stroke-width="1.5" stroke-linecap="round" stroke-linejoin="round"/>
<path d="M26.463 34.4888H34.2688" stroke="white" stroke-width="1.5" stroke-linecap="round" stroke-linejoin="round"/>
<path d="M25.282 72.2446H36.6316C41.5671 72.2446 45.5681 76.2456 45.5681 81.1812V81.1812C45.5681 86.1167 41.5671 90.1177 36.6316 90.1177H25.282V72.2446Z" stroke="white" stroke-width="1.5" stroke-linecap="round" stroke-linejoin="round"/>
<rect x="13.9099" y="74.8677" width="11.3721" height="12.626" stroke="white" stroke-width="1.5" stroke-linecap="round" stroke-linejoin="round"/>
<rect x="18.1082" y="77.8071" width="3.4491" height="2.26172" stroke="white" stroke-width="1.5" stroke-linecap="round" stroke-linejoin="round"/>
<rect x="18.1082" y="82.2925" width="3.4491" height="2.26172" stroke="white" stroke-width="1.5" stroke-linecap="round" stroke-linejoin="round"/>
<path d="M36.4292 74.9878C38.2794 75.178 41.9903 76.5338 42.0318 80.4351" stroke="white" stroke-width="1.5" stroke-linecap="round" stroke-linejoin="round"/>
<path d="M30.4647 48.6958V48.6958C30.4647 50.824 32.19 52.5493 34.3182 52.5493H79.951C87.9036 52.5493 94.3505 58.9962 94.3505 66.9488V66.9488C94.3505 74.9015 87.9036 81.3483 79.951 81.3483H45.6756" stroke="white" stroke-width="1.5" stroke-linejoin="round"/>
</svg>
