<svg width="25" height="25" viewBox="0 0 25 25" fill="none" xmlns="http://www.w3.org/2000/svg">
<path fill-rule="evenodd" clip-rule="evenodd" d="M13.0405 4.62175C12.6499 4.23123 12.0168 4.23123 11.6262 4.62175C11.2357 5.01227 11.2357 5.64544 11.6262 6.03596L16.9191 11.3289H5.33334C4.78106 11.3289 4.33334 11.7766 4.33334 12.3289C4.33334 12.8811 4.78106 13.3289 5.33334 13.3289H16.9191L11.6262 18.6218C11.2357 19.0123 11.2357 19.6454 11.6262 20.036C12.0168 20.4265 12.6499 20.4265 13.0405 20.036L20.0397 13.0367C20.0422 13.0343 20.0446 13.0318 20.0469 13.0294C20.2234 12.8496 20.3325 12.6035 20.3333 12.3319C20.3333 12.3309 20.3333 12.3299 20.3333 12.3289C20.3333 12.3279 20.3333 12.3269 20.3333 12.3259C20.3329 12.1914 20.306 12.0631 20.2575 11.9461C20.2098 11.8308 20.1396 11.7227 20.0469 11.6283C20.0446 11.6259 20.0422 11.6235 20.0398 11.6211M13.0405 4.62175L20.0398 11.6211L13.0405 4.62175Z" fill="currentColor" />
</svg>
