<svg width="24" height="25" viewBox="0 0 24 25" fill="none" xmlns="http://www.w3.org/2000/svg">
<g opacity="1" clip-path="url(#clip0_1741_3585)">
<g clip-path="url(#clip1_1741_3585)">
<path opacity="0.6" d="M23.5 12.2119C23.5 18.5631 18.3514 23.7119 12 23.7119C5.64867 23.7119 0.5 18.5631 0.5 12.2119C0.5 5.86046 5.64866 0.711914 12 0.711914C18.3515 0.711914 23.5 5.86046 23.5 12.2119Z" stroke="#1EE0BD"/>
<path d="M13.0414 17.0328C13.2254 16.8524 13.2422 16.5701 13.0916 16.3711L13.0414 16.3141L8.88768 12.2422L13.0414 8.17035C13.2254 7.98994 13.2422 7.70762 13.0916 7.50868L13.0414 7.45169C12.8574 7.27128 12.5694 7.25488 12.3665 7.40249L12.3083 7.45169L7.78824 11.8829C7.60421 12.0633 7.58748 12.3456 7.73805 12.5446L7.78824 12.6016L12.3083 17.0328C12.5108 17.2313 12.839 17.2313 13.0414 17.0328Z" fill="#1EE0BD"/>
</g>
</g>
<defs>
<clipPath id="clip0_1741_3585">
<rect width="24" height="24" fill="white" transform="translate(0 0.211914)"/>
</clipPath>
<clipPath id="clip1_1741_3585">
<rect width="24" height="23.8834" fill="white" transform="translate(0 0.211914)"/>
</clipPath>
</defs>
</svg>
