<svg width="24" height="25" viewBox="0 0 24 25" fill="none" xmlns="http://www.w3.org/2000/svg">
<g clip-path="url(#clip0_1741_3590)">
<g clip-path="url(#clip1_1741_3590)">
<path opacity="0.6" d="M23.5 12.2119C23.5 18.5631 18.3514 23.7119 12 23.7119C5.64867 23.7119 0.5 18.5631 0.5 12.2119C0.5 5.86046 5.64866 0.711914 12 0.711914C18.3515 0.711914 23.5 5.86046 23.5 12.2119Z" stroke="#1EE0BD"/>
<path d="M11.0609 17.0328C10.8769 16.8524 10.8601 16.5701 11.0107 16.3711L11.0609 16.3141L15.2146 12.2422L11.0609 8.17035C10.8769 7.98994 10.8601 7.70762 11.0107 7.50868L11.0609 7.45169C11.2449 7.27128 11.5329 7.25488 11.7358 7.40249L11.794 7.45169L16.3141 11.8829C16.4981 12.0633 16.5148 12.3456 16.3642 12.5446L16.3141 12.6016L11.794 17.0328C11.5915 17.2313 11.2633 17.2313 11.0609 17.0328Z" fill="#1EE0BD"/>
</g>
</g>
<defs>
<clipPath id="clip0_1741_3590">
<rect width="24" height="24" fill="white" transform="translate(0 0.211914)"/>
</clipPath>
<clipPath id="clip1_1741_3590">
<rect width="24" height="23.8834" fill="white" transform="translate(0 0.211914)"/>
</clipPath>
</defs>
</svg>
