<svg width="56" height="55" viewBox="0 0 56 55" fill="none" xmlns="http://www.w3.org/2000/svg">
<g clip-path="url(#clip0_1356_3100)">
<path d="M28 0.311523C43.4654 0.311523 56 12.4103 56 27.3325C56 42.2572 43.4654 54.3535 28 54.3535C12.5371 54.3535 0 42.2559 0 27.3325C0 12.4103 12.5371 0.311523 28 0.311523Z" fill="#F5AC37"/>
<path d="M29.0295 29.2405H39.6691C39.8959 29.2405 40.003 29.2405 40.0193 28.9536C40.1063 27.9091 40.1063 26.8585 40.0193 25.8127C40.0193 25.6097 39.9148 25.5258 39.6867 25.5258H18.5122C18.2501 25.5258 18.1795 25.6097 18.1795 25.8468V28.8526C18.1795 29.2405 18.1795 29.2405 18.5991 29.2405H29.0295ZM38.8312 22.0129C38.8614 21.9363 38.8614 21.8524 38.8312 21.777C38.6535 21.4037 38.4431 21.0474 38.1986 20.713C37.8307 20.1415 37.3973 19.615 36.9033 19.142C36.6702 18.8563 36.4006 18.5997 36.0982 18.382C34.5836 17.1381 32.7831 16.2578 30.8477 15.8152C29.8712 15.6036 28.8733 15.5027 27.8728 15.5112H18.4756C18.2136 15.5112 18.1783 15.6121 18.1783 15.8322V21.8268C18.1783 22.0798 18.1783 22.1479 18.5109 22.1479H38.7052C38.7052 22.1479 38.8803 22.1138 38.9156 22.0129H38.8299H38.8312ZM38.8312 32.7534C38.5338 32.7218 38.2339 32.7218 37.9365 32.7534H18.5298C18.2677 32.7534 18.1795 32.7534 18.1795 33.0915V38.9524C18.1795 39.2223 18.1795 39.2904 18.5298 39.2904H27.4898C27.9182 39.322 28.3466 39.2928 28.7662 39.2065C30.0665 39.1165 31.3454 38.8442 32.5651 38.3955C33.0086 38.2471 33.437 38.0538 33.8415 37.8215H33.9637C36.0642 36.7673 37.7702 35.1112 38.8463 33.0781C38.8463 33.0781 38.9685 32.8227 38.8312 32.7559V32.7534ZM14.6628 42.3291V42.2282V38.2933V36.9594V32.9905C14.6628 32.7704 14.6628 32.7376 14.3831 32.7376H10.5854C10.375 32.7376 10.2881 32.7376 10.2881 32.4677V29.2588H14.3478C14.5746 29.2588 14.6628 29.2588 14.6628 28.9718V25.7969C14.6628 25.5939 14.6628 25.544 14.3831 25.544H10.5854C10.375 25.544 10.2881 25.544 10.2881 25.2741V22.3023C10.2881 22.1162 10.2881 22.0664 10.5678 22.0664H14.3302C14.5923 22.0664 14.6628 22.0664 14.6628 21.7454V12.6427C14.6628 12.3728 14.6628 12.3047 15.0131 12.3047H28.1374C29.09 12.3412 30.0363 12.4421 30.9725 12.6087C32.9015 12.9528 34.755 13.6179 36.4497 14.5676C37.5737 15.206 38.6081 15.9769 39.5292 16.8645C40.2222 17.5588 40.8472 18.3103 41.4016 19.1104C41.9522 19.9214 42.4096 20.7884 42.7687 21.6943C42.8128 21.9302 43.0471 22.0895 43.2916 22.0494H46.424C46.8259 22.0494 46.8259 22.0494 46.8436 22.4214V25.1914C46.8436 25.4613 46.739 25.5294 46.458 25.5294H44.0426C43.7981 25.5294 43.7276 25.5294 43.7452 25.8334C43.841 26.8621 43.841 27.8945 43.7452 28.9232C43.7452 29.2101 43.7452 29.2442 44.0791 29.2442H46.8423C46.9645 29.3962 46.8423 29.5482 46.8423 29.7014C46.8599 29.8971 46.8599 30.0953 46.8423 30.2911V32.3351C46.8423 32.6221 46.7554 32.7072 46.492 32.7072H43.1845C42.9539 32.6647 42.7296 32.8069 42.6767 33.0282C41.8892 35.0042 40.6292 36.7758 39.0013 38.196C38.4065 38.7128 37.7816 39.1992 37.1289 39.6479C36.4283 40.037 35.7466 40.4419 35.0284 40.7629C33.7067 41.3369 32.3207 41.76 30.8981 42.0287C29.5474 42.2622 28.1777 42.368 26.8031 42.3498H14.6578V42.3327L14.6628 42.3291Z" fill="#FEFEFD"/>
</g>
<defs>
<clipPath id="clip0_1356_3100">
<rect width="56" height="54.042" fill="white" transform="translate(0 0.311523)"/>
</clipPath>
</defs>
</svg>
