<svg width="42" height="42" viewBox="0 0 42 42" fill="none" xmlns="http://www.w3.org/2000/svg">
<circle opacity="0.2" cx="20.6746" cy="20.7891" r="20" stroke="currentColor"/>
<g clip-path="url(#clip0_1632_3090)">
<path d="M28.2361 13.8439C26.8213 13.1947 25.3284 12.7313 23.7947 12.4653C23.7808 12.463 23.7665 12.465 23.7538 12.4711C23.7411 12.4772 23.7306 12.4871 23.7238 12.4994C23.5315 12.8403 23.3188 13.2862 23.1702 13.6353C21.5169 13.3844 19.8352 13.3844 18.182 13.6353C18.0162 13.2464 17.8286 12.8672 17.6202 12.4994C17.6132 12.4872 17.6026 12.4774 17.59 12.4714C17.5773 12.4653 17.5631 12.4632 17.5492 12.4653C16.0152 12.7298 14.522 13.1935 13.1079 13.8439C13.0958 13.8486 13.0857 13.8572 13.0792 13.8685C10.2511 18.0944 9.47516 22.2167 9.85561 26.2871C9.85697 26.3062 9.86925 26.3253 9.88425 26.3376C11.5311 27.5575 13.3732 28.4889 15.332 29.0921C15.3458 29.0965 15.3607 29.0963 15.3744 29.0917C15.3881 29.087 15.4 29.0781 15.4083 29.0662C15.8283 28.4935 16.202 27.8894 16.5238 27.2539C16.5305 27.2409 16.5328 27.2259 16.5303 27.2114C16.5279 27.1969 16.5208 27.1836 16.5102 27.1735C16.5031 27.1668 16.4947 27.1617 16.4856 27.1585C15.8981 26.9327 15.3291 26.6614 14.7838 26.3471C14.7686 26.3385 14.7572 26.3243 14.7522 26.3076C14.7471 26.2908 14.7486 26.2728 14.7565 26.2571C14.7612 26.247 14.7682 26.2381 14.777 26.2312C14.8915 26.1453 15.0061 26.0553 15.1152 25.9653C15.1248 25.9576 15.1364 25.9526 15.1486 25.9509C15.1609 25.9492 15.1733 25.9509 15.1847 25.9558C18.7561 27.5867 22.622 27.5867 26.1497 25.9558C26.1615 25.9507 26.1744 25.9489 26.1872 25.9505C26.1999 25.9522 26.2119 25.9573 26.222 25.9653C26.3311 26.0553 26.4456 26.1453 26.5602 26.2312C26.5694 26.238 26.5769 26.247 26.5819 26.2573C26.5868 26.2677 26.5891 26.2792 26.5886 26.2906C26.5881 26.3021 26.5847 26.3133 26.5788 26.3231C26.5728 26.333 26.5646 26.3412 26.5547 26.3471C26.0106 26.6643 25.4409 26.9352 24.8515 27.1571C24.8421 27.1605 24.8336 27.166 24.8265 27.173C24.8194 27.1801 24.814 27.1886 24.8106 27.198C24.8075 27.2071 24.8062 27.2168 24.8069 27.2264C24.8076 27.236 24.8103 27.2454 24.8147 27.2539C25.142 27.888 25.517 28.4935 25.9288 29.0662C25.9371 29.0781 25.949 29.087 25.9627 29.0917C25.9765 29.0963 25.9913 29.0965 26.0052 29.0921C27.9672 28.4908 29.8123 27.5593 31.4611 26.3376C31.4693 26.3319 31.4762 26.3244 31.4811 26.3156C31.4861 26.3069 31.489 26.2971 31.4897 26.2871C31.9452 21.5812 30.7274 17.493 28.2633 13.8698C28.2609 13.8639 28.2571 13.8585 28.2524 13.854C28.2478 13.8495 28.2422 13.8461 28.2361 13.8439ZM17.057 23.808C15.9811 23.808 15.0961 22.8208 15.0961 21.6098C15.0961 20.3976 15.9647 19.4103 17.057 19.4103C18.1574 19.4103 19.0342 20.4058 19.0179 21.6098C19.0179 22.8208 18.1492 23.808 17.057 23.808ZM24.3061 23.808C23.2315 23.808 22.3452 22.8208 22.3452 21.6098C22.3452 20.3976 23.2138 19.4103 24.3061 19.4103C25.4065 19.4103 26.2847 20.4058 26.267 21.6098C26.267 22.8208 25.4065 23.808 24.3061 23.808Z" fill="currentColor"/>
</g>
<defs>
<clipPath id="clip0_1632_3090">
<rect width="21.8182" height="21.8182" fill="currentColor" transform="translate(9.7655 9.87988)"/>
</clipPath>
</defs>
</svg>
