<svg width="125" height="39" viewBox="0 0 125 39" fill="none" xmlns="http://www.w3.org/2000/svg">
<path fill-rule="evenodd" clip-rule="evenodd" d="M38.0391 14.553C38.3304 14.8406 38.4945 15.2342 38.4945 15.6451V25.8005C38.4945 32.789 32.9187 38.4544 26.0406 38.4544C22.8635 38.4544 19.9643 37.2456 17.7641 35.2559C17.5436 35.3212 17.3102 35.3561 17.0688 35.3561C15.7071 35.3561 14.6033 34.2438 14.6033 32.8717C14.6033 31.4995 15.7071 30.3872 17.0688 30.3872C18.4304 30.3872 19.5343 31.4995 19.5343 32.8717C19.5343 33.2346 19.457 33.5794 19.3182 33.8902C21.1328 35.4485 23.4787 36.3878 26.0406 36.3878C31.7954 36.3878 36.4608 31.6477 36.4608 25.8005L36.462 13.9054C36.462 13.5668 36.8667 13.3954 37.1067 13.6324L38.0391 14.553ZM21.931 28.4444L22.0025 28.5636C22.9362 30.1197 24.6253 31.1517 26.5514 31.1517C29.4842 31.1517 31.8617 28.7559 31.8617 25.8005C31.8617 22.8902 29.5556 20.522 26.6853 20.451L26.6183 20.4493H26.5514H7.58612C4.65333 20.4493 2.27584 22.8451 2.27584 25.8005C2.27584 28.7559 4.65333 31.1517 7.58612 31.1517C9.51224 31.1517 11.2013 30.1197 12.135 28.5636L12.2066 28.4444L12.2919 28.3348C13.3991 26.9123 15.1279 25.9916 17.0688 25.9916C19.0097 25.9916 20.7385 26.9123 21.8457 28.3348L21.931 28.4444ZM24.4652 18.156H7.58612C3.39642 18.156 0 21.5785 0 25.8005C0 30.0224 3.39642 33.445 7.58612 33.445C10.3415 33.445 12.7538 31.9647 14.0826 29.7502C14.7769 28.8581 15.8564 28.285 17.0688 28.285C18.2811 28.285 19.3606 28.8581 20.055 29.7502C21.3837 31.9647 23.796 33.445 26.5514 33.445C30.7411 33.445 34.1375 30.0224 34.1375 25.8005C34.1375 21.6424 30.8431 18.2597 26.7411 18.1583V18.156H26.5514H24.4652Z" fill="#1EE0BD"/>
<path d="M41.3444 6.88007C43.2297 6.88007 44.7581 5.33991 44.7581 3.44003C44.7581 1.54015 43.2297 0 41.3444 0C39.459 0 37.9306 1.54015 37.9306 3.44003C37.9306 5.33991 39.459 6.88007 41.3444 6.88007Z" fill="#0066FF"/>
<path d="M33.1893 6.88007C33.1893 8.2522 32.0854 9.36453 30.7238 9.36453C29.3621 9.36453 28.2583 8.2522 28.2583 6.88007C28.2583 5.50793 29.3621 4.3956 30.7238 4.3956C32.0854 4.3956 33.1893 5.50793 33.1893 6.88007Z" fill="#0066FF"/>
<path d="M35.8444 10.5112C35.8444 11.1445 35.335 11.6579 34.7065 11.6579C34.078 11.6579 33.5686 11.1445 33.5686 10.5112C33.5686 9.87792 34.078 9.36453 34.7065 9.36453C35.335 9.36453 35.8444 9.87792 35.8444 10.5112Z" fill="#0066FF"/>
<path fill-rule="evenodd" clip-rule="evenodd" d="M119 17.5876L117.903 15.4346L112.424 26.1871L111.246 28.5433H113.864L114.866 26.5711L119 17.5876ZM118.732 22.2153L120.764 26.1871L121.961 28.5433H124.579L123.382 26.1871L119.978 19.507L118.732 22.2153ZM63.5618 19.0437H65.8806V18.9876C65.8806 17.0241 64.3098 15.4346 62.3463 15.4346H57.0355C55.0907 15.4346 53.5199 17.0241 53.5199 18.9876V19.0437C53.5199 19.7917 53.7443 20.4836 54.137 21.0633C54.2679 21.2503 54.4362 21.4373 54.6045 21.6056C55.2216 22.2227 56.0818 22.5967 57.0355 22.5967H61.7479C62.739 22.5967 63.5618 23.4008 63.5618 24.3919C63.5618 25.383 62.739 26.1871 61.7479 26.1871H57.6526C56.6428 26.1871 55.8387 25.383 55.8387 24.3919H53.5199C53.5199 26.6733 55.3525 28.5246 57.6526 28.5246H61.7479C64.0293 28.5246 65.8806 26.6733 65.8806 24.3919C65.8806 23.4008 65.544 22.5032 64.9456 21.7739C64.9082 21.7178 64.8521 21.6617 64.796 21.6056L64.796 21.6056C64.048 20.7641 62.9634 20.2405 61.7479 20.2405H57.0355C56.381 20.2405 55.8387 19.7169 55.8387 19.0437V18.9876C55.8387 18.3144 56.381 17.7908 57.0355 17.7908H62.3463C63.0195 17.7908 63.5618 18.3144 63.5618 18.9876V19.0437ZM69.8959 21.9983C69.8959 19.6608 71.7846 17.7721 74.1221 17.7721H80.6671V15.4346H74.1221C70.4943 15.4346 67.5771 18.3705 67.5771 21.9983C67.5771 25.6074 70.4943 28.5433 74.1221 28.5433H80.6671V26.2058H74.1221C71.7846 26.2058 69.8959 24.3171 69.8959 21.9983ZM95.6278 15.4346H93.2903V21.9983C93.2903 24.3171 91.4016 26.2058 89.0828 26.2058C86.7453 26.2058 84.8566 24.3171 84.8566 21.9983V15.4346H82.5378V21.9983C82.5378 25.6074 85.455 28.5433 89.0828 28.5433C92.6919 28.5433 95.6278 25.6074 95.6278 21.9983V15.4346ZM110.566 24.3545C110.566 22.9146 109.836 21.643 108.714 20.895C109.07 20.334 109.275 19.6795 109.275 18.9876C109.275 17.0241 107.686 15.4533 105.741 15.4533H97.4942V28.5246V28.5433H106.395C108.696 28.5433 110.566 26.6733 110.566 24.3545ZM99.813 20.1844V17.7721H105.741C106.395 17.7721 106.938 18.3144 106.938 18.9876C106.938 19.6421 106.395 20.1844 105.741 20.1844H99.813ZM108.247 24.3545C108.247 25.383 107.405 26.2058 106.395 26.2058H99.813V22.5219H106.395C107.405 22.5219 108.247 23.3447 108.247 24.3545Z" fill="white"/>
<path fill-rule="evenodd" clip-rule="evenodd" d="M54.9966 36.0783H57.1221V36.072H57.3117C57.4068 36.061 57.5008 36.0305 57.5949 35.9867L57.5978 35.9854C57.9542 35.8281 58.2071 35.4696 58.2071 35.0509C58.2071 34.7693 58.0927 34.514 57.9051 34.3221C57.7111 34.1365 57.4529 34.0234 57.1683 34.0234H54.5306V38.099H54.9966V36.0783ZM64.0507 38.1053V34.0234H66.6883C66.9788 34.0234 67.2371 34.1424 67.4251 34.3284C67.6112 34.5125 67.7271 34.7735 67.7271 35.0571C67.7271 35.4698 67.4802 35.8287 67.1168 35.9921L67.1149 35.993C67.0236 36.0355 66.9268 36.0622 66.8238 36.0729L66.5917 36.0971L67.3382 37.5446L67.3385 37.5453L67.6207 38.099H67.0909L66.302 36.5741L66.2812 36.5398L66.2807 36.5389C66.1187 36.2649 65.8125 36.0846 65.4701 36.0846H64.5167V38.1053H64.0507ZM101.912 36.0612C101.912 34.9374 102.831 34.0234 103.973 34.0234H106.033V34.4906H103.973C103.092 34.4906 102.378 35.195 102.378 36.0612C102.378 36.9332 103.091 37.6381 103.973 37.6381H106.033V38.1053H103.973C102.831 38.1053 101.912 37.1916 101.912 36.0612ZM121.239 36.8582V34.0234H121.705V36.9505L121.706 36.9612C121.754 37.306 122.031 37.5911 122.393 37.6308L122.402 37.6318H124.579V38.099H122.487C122.29 38.099 122.105 38.0546 121.937 37.9714L121.934 37.9701C121.689 37.8541 121.487 37.655 121.37 37.4061L121.368 37.4032L121.367 37.4003C121.284 37.242 121.239 37.0601 121.239 36.8582ZM73.4121 36.0612C73.4121 34.9377 74.3301 34.0297 75.466 34.0297C76.6086 34.0297 77.5263 34.938 77.5263 36.0612C77.5263 37.191 76.6083 38.099 75.466 38.099C74.3303 38.099 73.4121 37.1913 73.4121 36.0612ZM82.7933 34.4969V34.0297H86.9075V34.4969H85.0866V38.1053H84.6142V34.4969H82.7933ZM92.1733 36.0612C92.1733 34.9377 93.0913 34.0297 94.2272 34.0297C95.3698 34.0297 96.2875 34.938 96.2875 36.0612C96.2875 37.191 95.3695 38.099 94.2272 38.099C93.0916 38.099 92.1733 37.1913 92.1733 36.0612ZM111.436 36.0612C111.436 34.9377 112.354 34.0297 113.49 34.0297C114.633 34.0297 115.551 34.938 115.551 36.0612C115.551 37.191 114.633 38.099 113.49 38.099C112.355 38.099 111.436 37.1913 111.436 36.0612ZM57.1683 34.4906H54.9966V35.6174H57.1683C57.2478 35.6174 57.3287 35.6002 57.4025 35.5642C57.6103 35.469 57.7347 35.2752 57.7347 35.0509C57.7347 34.8468 57.6254 34.7153 57.5745 34.6577L57.571 34.6538L57.5672 34.65C57.4939 34.5776 57.36 34.4906 57.1683 34.4906ZM66.6883 34.4906H64.5167V35.6174H66.6883C66.7669 35.6174 66.8469 35.6006 66.92 35.5654C67.133 35.4753 67.2547 35.2719 67.2547 35.0571C67.2547 34.8552 67.1479 34.7181 67.0945 34.6577L67.0875 34.6498L67.0794 34.6428C67.0169 34.5887 66.8849 34.4906 66.6883 34.4906ZM75.466 34.4906C74.5907 34.4906 73.8781 35.1955 73.8781 36.0612C73.8781 36.9328 74.5902 37.6381 75.466 37.6381C76.3418 37.6381 77.0539 36.9328 77.0539 36.0612C77.0539 35.1955 76.3413 34.4906 75.466 34.4906ZM94.2272 34.4906C93.3519 34.4906 92.6393 35.1955 92.6393 36.0612C92.6393 36.9328 93.3515 37.6381 94.2272 37.6381C95.103 37.6381 95.8152 36.9328 95.8152 36.0612C95.8152 35.1955 95.1026 34.4906 94.2272 34.4906ZM113.49 34.4906C112.615 34.4906 111.902 35.1955 111.902 36.0612C111.902 36.9328 112.615 37.6381 113.49 37.6381C114.366 37.6381 115.078 36.9328 115.078 36.0612C115.078 35.1955 114.366 34.4906 113.49 34.4906Z" fill="white"/>
</svg>
