<svg width="151" height="48" viewBox="0 0 151 48" fill="none" xmlns="http://www.w3.org/2000/svg">
<path fill-rule="evenodd" clip-rule="evenodd" d="M45.8387 18.3672C46.1897 18.7138 46.3875 19.1881 46.3875 19.6832V31.921C46.3875 40.3425 39.6684 47.1695 31.3801 47.1695C27.5515 47.1695 24.0578 45.7128 21.4065 43.3152C21.1408 43.3938 20.8596 43.4359 20.5686 43.4359C18.9277 43.4359 17.5976 42.0955 17.5976 40.442C17.5976 38.7886 18.9277 37.4481 20.5686 37.4481C22.2094 37.4481 23.5396 38.7886 23.5396 40.442C23.5396 40.8794 23.4466 41.2948 23.2793 41.6694C25.4659 43.5472 28.2929 44.6792 31.3801 44.6792C38.3149 44.6792 43.9368 38.9671 43.9368 31.921L43.9382 17.5869C43.9383 17.1788 44.4259 16.9724 44.7152 17.2579L45.8387 18.3672ZM26.4278 35.1069L26.514 35.2506C27.6391 37.1258 29.6745 38.3693 31.9956 38.3693C35.5297 38.3693 38.3947 35.4823 38.3947 31.921C38.3947 28.4139 35.6157 25.5601 32.1569 25.4746L32.0762 25.4726H31.9956H9.1416C5.60746 25.4726 2.74248 28.3596 2.74248 31.921C2.74248 35.4823 5.60746 38.3693 9.1416 38.3693C11.4627 38.3693 13.4981 37.1258 14.6232 35.2506L14.7094 35.1069L14.8122 34.9749C16.1465 33.2608 18.2297 32.1513 20.5686 32.1513C22.9075 32.1513 24.9907 33.2608 26.325 34.9749L26.4278 35.1069ZM29.4817 22.709H9.1416C4.09283 22.709 0 26.8333 0 31.921C0 37.0086 4.09283 41.1329 9.1416 41.1329C12.462 41.1329 15.3689 39.3491 16.9701 36.6805C17.8068 35.6055 19.1077 34.9149 20.5686 34.9149C22.0295 34.9149 23.3304 35.6055 24.1671 36.6805C25.7683 39.3491 28.6752 41.1329 31.9956 41.1329C37.0444 41.1329 41.1372 37.0086 41.1372 31.921C41.1372 26.9103 37.1673 22.834 32.2241 22.7118V22.709H31.9956H29.4817Z" fill="#1EE0BD"/>
<path d="M49.8217 9.12132C52.0937 9.12132 53.9354 7.26536 53.9354 4.97593C53.9354 2.68649 52.0937 0.830544 49.8217 0.830544C47.5498 0.830544 45.708 2.68649 45.708 4.97593C45.708 7.26536 47.5498 9.12132 49.8217 9.12132Z" fill="#0066FF"/>
<path d="M39.9945 9.12132C39.9945 10.7748 38.6643 12.1152 37.0235 12.1152C35.3826 12.1152 34.0525 10.7748 34.0525 9.12132C34.0525 7.46784 35.3826 6.12743 37.0235 6.12743C38.6643 6.12743 39.9945 7.46784 39.9945 9.12132Z" fill="#0066FF"/>
<path d="M43.1941 13.497C43.1941 14.2601 42.5801 14.8788 41.8228 14.8788C41.0655 14.8788 40.4516 14.2601 40.4516 13.497C40.4516 12.7339 41.0655 12.1152 41.8228 12.1152C42.5801 12.1152 43.1941 12.7339 43.1941 13.497Z" fill="#0066FF"/>
<path fill-rule="evenodd" clip-rule="evenodd" d="M143.4 22.0242L142.078 19.4297L135.476 32.3869L134.056 35.2262H137.211L138.418 32.8496L143.4 22.0242ZM143.077 27.6007L145.526 32.3869L146.968 35.2262H150.123L148.681 32.3869L144.579 24.3371L143.077 27.6007ZM76.5947 23.7788H79.3889V23.7112C79.3889 21.3451 77.496 19.4297 75.1299 19.4297H68.7302C66.3866 19.4297 64.4937 21.3451 64.4937 23.7112V23.7788C64.4937 24.6802 64.7641 25.5139 65.2373 26.2125C65.3951 26.4378 65.5979 26.6632 65.8007 26.866C66.5443 27.6096 67.5809 28.0603 68.7302 28.0603H74.4088C75.6031 28.0603 76.5947 29.0293 76.5947 30.2236C76.5947 31.4179 75.6031 32.3869 74.4088 32.3869H69.4738C68.2569 32.3869 67.288 31.4179 67.288 30.2236H64.4937C64.4937 32.9728 66.7021 35.2037 69.4738 35.2037H74.4088C77.158 35.2037 79.3889 32.9728 79.3889 30.2236C79.3889 29.0293 78.9833 27.9476 78.2622 27.0688C78.2171 27.0012 78.1495 26.9336 78.0819 26.866L78.0819 26.866C77.1805 25.8519 75.8736 25.221 74.4088 25.221H68.7302C67.9415 25.221 67.288 24.59 67.288 23.7788V23.7112C67.288 22.8999 67.9415 22.269 68.7302 22.269H75.1299C75.9412 22.269 76.5947 22.8999 76.5947 23.7112V23.7788ZM84.2275 27.3392C84.2275 24.5224 86.5034 22.2464 89.3202 22.2464H97.2072V19.4297H89.3202C84.9486 19.4297 81.4332 22.9675 81.4332 27.3392C81.4332 31.6883 84.9486 35.2262 89.3202 35.2262H97.2072V32.4094H89.3202C86.5034 32.4094 84.2275 30.1335 84.2275 27.3392ZM115.236 19.4297H112.419V27.3392C112.419 30.1335 110.143 32.4094 107.349 32.4094C104.532 32.4094 102.256 30.1335 102.256 27.3392V19.4297H99.4615V27.3392C99.4615 31.6883 102.977 35.2262 107.349 35.2262C111.698 35.2262 115.236 31.6883 115.236 27.3392V19.4297ZM133.236 30.1785C133.236 28.4434 132.357 26.9111 131.005 26.0097C131.433 25.3337 131.681 24.5449 131.681 23.7112C131.681 21.3451 129.766 19.4522 127.422 19.4522H117.485V35.2037V35.2262H128.211C130.983 35.2262 133.236 32.9728 133.236 30.1785ZM120.279 25.1534V22.2464H127.422C128.211 22.2464 128.864 22.8999 128.864 23.7112C128.864 24.4999 128.211 25.1534 127.422 25.1534H120.279ZM130.442 30.1785C130.442 31.4179 129.428 32.4094 128.211 32.4094H120.279V27.9702H128.211C129.428 27.9702 130.442 28.9617 130.442 30.1785Z" fill="white"/>
<path fill-rule="evenodd" clip-rule="evenodd" d="M66.2733 44.3061H68.8346V44.2986H69.063C69.1777 44.2853 69.2909 44.2485 69.4043 44.1958L69.4078 44.1941C69.8373 44.0046 70.142 43.5726 70.142 43.068C70.142 42.7288 70.0042 42.4211 69.778 42.1899C69.5443 41.9662 69.2332 41.8299 68.8902 41.8299H65.7117V46.7411H66.2733V44.3061ZM77.1838 46.7487V41.8299H80.3622C80.7123 41.8299 81.0235 41.9733 81.2501 42.1974C81.4744 42.4192 81.614 42.7338 81.614 43.0756C81.614 43.5729 81.3165 44.0054 80.8786 44.2022L80.8763 44.2033C80.7662 44.2545 80.6496 44.2867 80.5255 44.2996L80.2458 44.3287L81.1454 46.073L81.1458 46.0739L81.4858 46.7411H80.8474L79.8967 44.9036L79.8716 44.8622L79.871 44.8612C79.6758 44.531 79.3068 44.3137 78.8943 44.3137H77.7453V46.7487H77.1838ZM122.809 44.2855C122.809 42.9312 123.915 41.8299 125.292 41.8299H127.774V42.3929H125.292C124.23 42.3929 123.37 43.2417 123.37 44.2855C123.37 45.3364 124.229 46.1857 125.292 46.1857H127.774V46.7487H125.292C123.916 46.7487 122.809 45.6477 122.809 44.2855ZM146.098 45.2459V41.8299H146.66V45.3572L146.661 45.3701C146.719 45.7856 147.053 46.1291 147.489 46.177L147.5 46.1782H150.123V46.7411H147.602C147.365 46.7411 147.142 46.6876 146.939 46.5874L146.936 46.5858C146.64 46.446 146.397 46.2061 146.256 45.9062L146.254 45.9026L146.252 45.8992C146.153 45.7085 146.098 45.4893 146.098 45.2459ZM88.4647 44.2855C88.4647 42.9316 89.5709 41.8375 90.9397 41.8375C92.3166 41.8375 93.4225 42.932 93.4225 44.2855C93.4225 45.647 92.3163 46.7411 90.9397 46.7411C89.5712 46.7411 88.4647 45.6474 88.4647 44.2855ZM99.7695 42.4005V41.8375H104.727V42.4005H102.533V46.7487H101.964V42.4005H99.7695ZM111.073 44.2855C111.073 42.9316 112.179 41.8375 113.548 41.8375C114.925 41.8375 116.031 42.932 116.031 44.2855C116.031 45.647 114.924 46.7411 113.548 46.7411C112.179 46.7411 111.073 45.6474 111.073 44.2855ZM134.286 44.2855C134.286 42.9316 135.392 41.8375 136.761 41.8375C138.138 41.8375 139.243 42.932 139.243 44.2855C139.243 45.647 138.137 46.7411 136.761 46.7411C135.392 46.7411 134.286 45.6474 134.286 44.2855ZM68.8902 42.3929H66.2733V43.7507H68.8902C68.986 43.7507 69.0836 43.73 69.1724 43.6866C69.4228 43.5718 69.5728 43.3384 69.5728 43.068C69.5728 42.8221 69.441 42.6636 69.3797 42.5943L69.3755 42.5895L69.3709 42.585C69.2826 42.4977 69.1213 42.3929 68.8902 42.3929ZM80.3622 42.3929H77.7453V43.7507H80.3622C80.457 43.7507 80.5534 43.7304 80.6414 43.6881C80.8981 43.5795 81.0448 43.3344 81.0448 43.0756C81.0448 42.8322 80.9161 42.667 80.8517 42.5943L80.8432 42.5847L80.8336 42.5763C80.7582 42.5111 80.5992 42.3929 80.3622 42.3929ZM90.9397 42.3929C89.8849 42.3929 89.0262 43.2422 89.0262 44.2855C89.0262 45.3358 89.8844 46.1857 90.9397 46.1857C91.9951 46.1857 92.8533 45.3358 92.8533 44.2855C92.8533 43.2422 91.9945 42.3929 90.9397 42.3929ZM113.548 42.3929C112.493 42.3929 111.634 43.2422 111.634 44.2855C111.634 45.3358 112.492 46.1857 113.548 46.1857C114.603 46.1857 115.461 45.3358 115.461 44.2855C115.461 43.2422 114.603 42.3929 113.548 42.3929ZM136.761 42.3929C135.706 42.3929 134.847 43.2422 134.847 44.2855C134.847 45.3358 135.705 46.1857 136.761 46.1857C137.816 46.1857 138.674 45.3358 138.674 44.2855C138.674 43.2422 137.815 42.3929 136.761 42.3929Z" fill="white"/>
</svg>
