<svg width="56" height="57" viewBox="0 0 56 57" fill="none" xmlns="http://www.w3.org/2000/svg">
<g clip-path="url(#clip0_1356_3113)">
<path d="M28 56.334C33.5379 56.334 38.9514 54.6918 43.556 51.6152C48.1605 48.5384 51.7494 44.1655 53.8686 39.0491C55.9878 33.9328 56.5424 28.3029 55.462 22.8715C54.3816 17.44 51.7149 12.4509 47.799 8.53501C43.8831 4.61913 38.894 1.9524 33.4625 0.872009C28.031 -0.208376 22.4012 0.346115 17.2849 2.46537C12.1685 4.58462 7.79556 8.17345 4.71885 12.778C1.64217 17.3826 0 22.7961 0 28.334C0 35.7601 2.94999 42.882 8.20102 48.133C13.452 53.384 20.5739 56.334 28 56.334Z" fill="white"/>
<path d="M34.2471 27.2506C35.7148 26.4562 36.6331 25.0571 36.4186 22.7263C36.1298 19.541 33.5411 18.4729 30.2732 18.1687L30.2726 13.7505H27.7407L27.74 18.0526C27.0738 18.0526 26.3947 18.0665 25.7187 18.0809L25.7182 13.7511L23.1885 13.7508L23.188 18.168C22.6398 18.1799 22.1014 18.1912 21.5757 18.1912V18.1781L18.0833 18.1766L18.0838 21.0485C18.0838 21.0485 19.9536 21.0111 19.9228 21.0474C20.9479 21.0482 21.2827 21.6807 21.379 22.2266L21.3797 27.2599V34.3301C21.3346 34.6727 21.1446 35.2201 20.4278 35.2211C20.4605 35.2516 18.586 35.2208 18.586 35.2208L18.0838 38.4322H21.3782C21.9921 38.433 22.5952 38.4431 23.1869 38.4481L23.1891 42.9164L25.7182 42.9172L25.7175 38.4957C26.4132 38.5108 27.0848 38.5174 27.7409 38.5164L27.7401 42.9172H30.272L30.2734 38.4563C34.5293 38.1966 37.5088 37.0576 37.8793 32.8113C38.1778 29.3927 36.6634 27.8667 34.2471 27.2506ZM25.7792 21.2424C27.2072 21.2424 31.6981 20.7592 31.6988 23.9284C31.6981 26.9668 27.2086 26.6118 25.7792 26.6118V21.2424ZM25.7781 35.2429L25.7792 29.3226C27.4949 29.322 32.8762 28.798 32.8769 32.2814C32.8776 35.6219 27.4949 35.2416 25.7781 35.2429Z" fill="#F6941A"/>
<path d="M28 49.9172C39.9202 49.9172 49.5834 40.254 49.5834 28.3338C49.5834 16.4137 39.9202 6.75049 28 6.75049C16.0799 6.75049 6.41669 16.4137 6.41669 28.3338C6.41669 40.254 16.0799 49.9172 28 49.9172Z" stroke="#657786" stroke-width="1.83333"/>
<path d="M55.0833 28.334C55.0833 43.2917 42.9577 55.4173 28 55.4173C13.0423 55.4173 0.916667 43.2917 0.916667 28.334C0.916667 13.3763 13.0423 1.25065 28 1.25065C42.9577 1.25065 55.0833 13.3763 55.0833 28.334Z" stroke="#283947" stroke-width="1.83333"/>
<path d="M40.0371 18.4351L46.6666 12.0005M44.9544 46.4172L37.1446 38.862L44.9544 46.4172ZM16.029 18.4351L9.33331 12.0005L16.029 18.4351ZM11.1117 46.4172L18.9215 38.862L11.1117 46.4172Z" stroke="white" stroke-width="1.83333"/>
</g>
<defs>
<clipPath id="clip0_1356_3113">
<rect width="56" height="56" fill="white" transform="translate(0 0.333984)"/>
</clipPath>
</defs>
</svg>
