<svg width="100" height="100" viewBox="0 0 100 100" fill="none" xmlns="http://www.w3.org/2000/svg">
<rect width="100" height="100" fill="#060E18"/>
<path fill-rule="evenodd" clip-rule="evenodd" d="M79.352 36.2974C79.8983 36.8368 80.2062 37.5751 80.2062 38.3459V57.395C80.2062 70.5038 69.7474 81.1306 56.8458 81.1306C50.8864 81.1306 45.4481 78.8632 41.3211 75.1311C40.9075 75.2534 40.4697 75.319 40.0168 75.319C37.4627 75.319 35.3922 73.2325 35.3922 70.6588C35.3922 68.085 37.4627 65.9985 40.0168 65.9985C42.5709 65.9985 44.6415 68.085 44.6415 70.6588C44.6415 71.3395 44.4966 71.9862 44.2363 72.5692C47.6399 75.4922 52.0403 77.2542 56.8458 77.2542C67.6404 77.2542 76.3914 68.3629 76.3914 57.395L76.3937 35.0827C76.3937 34.4475 77.1528 34.1262 77.6031 34.5707L79.352 36.2974ZM49.1371 62.3542L49.2713 62.5778C51.0227 65.4968 54.191 67.4324 57.8039 67.4324C63.3051 67.4324 67.7647 62.9385 67.7647 57.395C67.7647 51.9359 63.439 47.4937 58.0549 47.3606L57.9294 47.3575H57.8039H22.2297C16.7285 47.3575 12.2689 51.8514 12.2689 57.395C12.2689 62.9385 16.7285 67.4324 22.2297 67.4324C25.8426 67.4324 29.011 65.4968 30.7623 62.5778L30.8965 62.3542L31.0565 62.1486C33.1334 59.4805 36.3761 57.7534 40.0168 57.7534C43.6575 57.7534 46.9002 59.4805 48.9771 62.1486L49.1371 62.3542ZM53.8908 43.0557H22.2297C14.3708 43.0557 8 49.4756 8 57.395C8 65.3143 14.3708 71.7342 22.2297 71.7342C27.3982 71.7342 31.9231 68.9575 34.4154 64.8036C35.7179 63.1303 37.7428 62.0552 40.0168 62.0552C42.2909 62.0552 44.3157 63.1303 45.6182 64.8036C48.1105 68.9575 52.6354 71.7342 57.8039 71.7342C65.6628 71.7342 72.0336 65.3143 72.0336 57.395C72.0336 49.5955 65.8541 43.2504 58.1597 43.0601V43.0557H57.8039H53.8908Z" fill="#1EE0BD"/>
<path d="M85.5518 21.9053C89.0883 21.9053 91.9552 19.0164 91.9552 15.4527C91.9552 11.8889 89.0883 9 85.5518 9C82.0154 9 79.1485 11.8889 79.1485 15.4527C79.1485 19.0164 82.0154 21.9053 85.5518 21.9053Z" fill="#0066FF"/>
<path d="M70.2549 21.9053C70.2549 24.4791 68.1844 26.5656 65.6303 26.5656C63.0761 26.5656 61.0056 24.4791 61.0056 21.9053C61.0056 19.3315 63.0761 17.2451 65.6303 17.2451C68.1844 17.2451 70.2549 19.3315 70.2549 21.9053Z" fill="#0066FF"/>
<path d="M75.2353 28.7164C75.2353 29.9043 74.2797 30.8673 73.1009 30.8673C71.922 30.8673 70.9664 29.9043 70.9664 28.7164C70.9664 27.5285 71.922 26.5656 73.1009 26.5656C74.2797 26.5656 75.2353 27.5285 75.2353 28.7164Z" fill="#0066FF"/>
</svg>
