<svg width="84" height="73" viewBox="0 0 84 73" fill="none" xmlns="http://www.w3.org/2000/svg">
<path fill-rule="evenodd" clip-rule="evenodd" d="M71.352 27.2974C71.8983 27.8368 72.2062 28.5751 72.2062 29.3459V48.395C72.2062 61.5038 61.7474 72.1306 48.8458 72.1306C42.8864 72.1306 37.4481 69.8632 33.3211 66.1311C32.9075 66.2534 32.4697 66.319 32.0168 66.319C29.4627 66.319 27.3922 64.2325 27.3922 61.6588C27.3922 59.085 29.4627 56.9985 32.0168 56.9985C34.5709 56.9985 36.6415 59.085 36.6415 61.6588C36.6415 62.3395 36.4966 62.9862 36.2363 63.5692C39.6399 66.4922 44.0403 68.2542 48.8458 68.2542C59.6404 68.2542 68.3914 59.3629 68.3914 48.395L68.3937 26.0827C68.3937 25.4475 69.1528 25.1262 69.6031 25.5707L71.352 27.2974ZM41.1371 53.3542L41.2713 53.5778C43.0227 56.4968 46.191 58.4324 49.8039 58.4324C55.3051 58.4324 59.7647 53.9385 59.7647 48.395C59.7647 42.9359 55.439 38.4937 50.0549 38.3606L49.9294 38.3575H49.8039H14.2297C8.7285 38.3575 4.26891 42.8514 4.26891 48.395C4.26891 53.9385 8.7285 58.4324 14.2297 58.4324C17.8426 58.4324 21.011 56.4968 22.7623 53.5778L22.8965 53.3542L23.0565 53.1486C25.1334 50.4805 28.3761 48.7534 32.0168 48.7534C35.6575 48.7534 38.9002 50.4805 40.9771 53.1486L41.1371 53.3542ZM45.8908 34.0557H14.2297C6.37085 34.0557 0 40.4756 0 48.395C0 56.3143 6.37085 62.7342 14.2297 62.7342C19.3982 62.7342 23.9231 59.9575 26.4154 55.8036C27.7179 54.1303 29.7428 53.0552 32.0168 53.0552C34.2909 53.0552 36.3157 54.1303 37.6182 55.8036C40.1105 59.9575 44.6354 62.7342 49.8039 62.7342C57.6628 62.7342 64.0336 56.3143 64.0336 48.395C64.0336 40.5955 57.8541 34.2504 50.1597 34.0601V34.0557H49.8039H45.8908Z" fill="#1EE0BD"/>
<path d="M77.5518 12.9053C81.0883 12.9053 83.9552 10.0164 83.9552 6.45265C83.9552 2.88895 81.0883 0 77.5518 0C74.0154 0 71.1485 2.88895 71.1485 6.45265C71.1485 10.0164 74.0154 12.9053 77.5518 12.9053Z" fill="#0066FF"/>
<path d="M62.2549 12.9053C62.2549 15.4791 60.1844 17.5656 57.6303 17.5656C55.0761 17.5656 53.0056 15.4791 53.0056 12.9053C53.0056 10.3315 55.0761 8.24506 57.6303 8.24506C60.1844 8.24506 62.2549 10.3315 62.2549 12.9053Z" fill="#0066FF"/>
<path d="M67.2353 19.7164C67.2353 20.9043 66.2797 21.8673 65.1009 21.8673C63.922 21.8673 62.9664 20.9043 62.9664 19.7164C62.9664 18.5285 63.922 17.5656 65.1009 17.5656C66.2797 17.5656 67.2353 18.5285 67.2353 19.7164Z" fill="#0066FF"/>
</svg>
