<svg width="142" height="36" viewBox="0 0 142 36" fill="none" xmlns="http://www.w3.org/2000/svg">
<g clip-path="url(#clip0_1363_2711)">
<path d="M1.30286 10.9421V25.0579C1.30286 25.9562 1.78148 26.7883 2.56201 27.2375L14.7854 34.2917C15.5659 34.7409 16.5231 34.7409 17.3037 34.2917L29.527 27.2375C30.3076 26.7883 30.7862 25.9562 30.7862 25.0579V10.9421C30.7862 10.0438 30.3076 9.21171 29.527 8.76254L17.3037 1.70834C16.5231 1.25917 15.5659 1.25917 14.7854 1.70834L2.56201 8.76254C1.78885 9.21171 1.30286 10.0438 1.30286 10.9421Z" fill="#010C1E"/>
<path d="M18.7174 20.7356L16.9723 25.5144C16.9207 25.647 16.9207 25.7943 16.9723 25.9268L19.9692 34.1518L23.4374 32.1489L19.277 20.7356C19.1813 20.4705 18.8131 20.4705 18.7174 20.7356Z" fill="white"/>
<path d="M22.2077 12.6947C22.112 12.4296 21.7438 12.4296 21.6481 12.6947L19.9029 17.4736C19.8514 17.6061 19.8514 17.7534 19.9029 17.8859L24.8144 31.3537L28.2825 29.3508L22.2077 12.6947Z" fill="white"/>
<path d="M16.0445 2.23113C16.1329 2.23113 16.2138 2.25322 16.2948 2.2974L29.5196 9.93332C29.6743 10.0217 29.77 10.1837 29.77 10.3604V25.6322C29.77 25.809 29.6743 25.971 29.5196 26.0593L16.2948 33.7026C16.2212 33.7468 16.1329 33.7689 16.0445 33.7689C15.9561 33.7689 15.8751 33.7468 15.7941 33.7026L2.5767 26.0667C2.42207 25.9783 2.32635 25.8163 2.32635 25.6396V10.3604C2.32635 10.1837 2.42207 10.0217 2.5767 9.93332L15.8015 2.2974C15.8751 2.25322 15.9635 2.23113 16.0445 2.23113ZM16.0445 0C15.5732 0 15.102 0.125179 14.6822 0.368173L1.45746 8.00409C0.618021 8.49008 0.0952148 9.38842 0.0952148 10.3604V25.6322C0.0952148 26.6042 0.618021 27.5099 1.45746 27.9959L14.6822 35.6318C15.102 35.8748 15.5732 36 16.0445 36C16.5158 36 16.987 35.8748 17.4067 35.6318L30.6315 27.9959C31.4783 27.5099 31.9938 26.6116 31.9938 25.6322V10.3604C31.9938 9.38842 31.471 8.48272 30.6315 7.99673L17.4141 0.368173C16.987 0.125179 16.5158 0 16.0445 0Z" fill="white"/>
<path d="M7.30408 31.3684L8.51905 28.0401L10.9637 30.0724L8.68105 32.1636L7.30408 31.3684Z" fill="#213147"/>
<path d="M14.9326 9.27063H11.5822C11.3318 9.27063 11.1036 9.42526 11.0226 9.66089L3.83582 29.3655L7.30401 31.3684L15.2197 9.66826C15.286 9.47681 15.1461 9.27063 14.9326 9.27063Z" fill="white"/>
<path d="M20.8013 9.27063H17.4509C17.2006 9.27063 16.9723 9.42526 16.8913 9.66089L8.68103 32.1637L12.1492 34.1665L21.0811 9.67562C21.1547 9.47681 21.0075 9.27063 20.8013 9.27063Z" fill="white"/>
<path d="M46.2714 13.3721C46.6028 13.3721 46.89 13.4383 47.1182 13.5782C47.3465 13.7182 47.5748 13.9832 47.7957 14.3809L52.1696 22.3187C52.2138 22.407 52.2211 22.4807 52.199 22.5396C52.1769 22.5985 52.1107 22.6279 52.0076 22.6279H50.3287C50.1814 22.6279 50.0784 22.569 50.0268 22.4586L49.0917 20.7576H42.8842L41.9712 22.4586C41.9123 22.5764 41.8092 22.6279 41.6693 22.6279H39.9536C39.8358 22.6279 39.7695 22.5985 39.7474 22.5396C39.7253 22.4807 39.7327 22.407 39.7769 22.3187L44.1139 14.3809C44.3349 13.9832 44.5484 13.7182 44.7619 13.5782C44.9755 13.4383 45.2185 13.3721 45.4983 13.3721H46.2714ZM43.7016 19.2113H48.2522L46.1536 15.3381C46.1168 15.2792 46.0726 15.2424 46.0064 15.2424H45.9254C45.8665 15.2424 45.8149 15.2718 45.7781 15.3381L43.7016 19.2113Z" fill="white"/>
<path d="M61.779 13.3721C62.7951 13.3721 63.5167 13.6003 63.9586 14.0569C64.4004 14.5134 64.6213 15.1908 64.6213 16.0892V16.8403C64.6213 17.5987 64.4666 18.1951 64.1574 18.637C63.8481 19.0788 63.3474 19.3586 62.6479 19.4837L64.9084 22.2819C64.9526 22.326 64.9674 22.3923 64.9453 22.4807C64.9305 22.569 64.8569 22.6132 64.7317 22.6132H63.0308C62.9129 22.6132 62.8393 22.5985 62.7951 22.5764C62.7509 22.547 62.7068 22.5028 62.6626 22.4439L60.5714 19.6973H56.3005V22.326C56.3005 22.5175 56.2048 22.6132 56.0134 22.6132H54.5849C54.3787 22.6132 54.283 22.5175 54.283 22.326V13.7697C54.283 13.5046 54.4155 13.3721 54.6806 13.3721H61.779ZM56.3079 18.0921H61.3666C61.8158 18.0921 62.1324 17.9963 62.3165 17.8049C62.5006 17.6134 62.5963 17.3189 62.5963 16.9213V16.369C62.5963 15.9714 62.5006 15.6768 62.3165 15.4854C62.1324 15.2939 61.8158 15.1982 61.3666 15.1982H56.4773C56.3595 15.1982 56.3079 15.2498 56.3079 15.3602V18.0921Z" fill="white"/>
<path d="M75.6738 13.3721C76.5795 13.3721 77.2275 13.5562 77.6104 13.917C77.9933 14.2778 78.1848 14.8227 78.1848 15.5517V16.1849C78.1848 16.9213 77.9049 17.4809 77.338 17.8638C77.9418 18.2172 78.251 18.7842 78.251 19.5647V20.3305C78.251 20.684 78.2142 21.0006 78.1332 21.2804C78.0522 21.5602 77.927 21.8032 77.7429 22.0021C77.5589 22.2009 77.3232 22.3555 77.0213 22.4586C76.7194 22.5617 76.3512 22.6206 75.9094 22.6206H68.06C67.7949 22.6206 67.6624 22.488 67.6624 22.223V13.7697C67.6624 13.5046 67.7949 13.3721 68.06 13.3721H75.6738ZM69.6873 17.2158H75.1068C75.5486 17.2158 75.8432 17.1495 76.0052 17.017C76.1672 16.8844 76.2408 16.693 76.2408 16.4353V15.9861C76.2408 15.7137 76.1672 15.5148 76.0125 15.3823C75.8579 15.2571 75.6075 15.1908 75.2688 15.1908H69.864C69.7462 15.1908 69.6947 15.2498 69.6947 15.3602V17.2158H69.6873ZM69.6873 18.659V20.6251C69.6873 20.7429 69.7462 20.7944 69.8567 20.7944H75.2762C75.6296 20.7944 75.88 20.7282 76.0273 20.603C76.1745 20.4778 76.2555 20.2716 76.2555 19.9918V19.4911C76.2555 19.2187 76.1745 19.0125 76.0125 18.8726C75.8505 18.7327 75.5486 18.659 75.1068 18.659H69.6873Z" fill="white"/>
<path d="M83.1772 13.3721C83.3686 13.3721 83.4644 13.4678 83.4644 13.6592V22.326C83.4644 22.5175 83.3686 22.6132 83.1772 22.6132H81.7487C81.5425 22.6132 81.4468 22.5175 81.4468 22.326V13.6666C81.4468 13.4752 81.5499 13.3794 81.7487 13.3794L83.1772 13.3721Z" fill="white"/>
<path d="M97.0206 13.3721C97.2267 13.3721 97.3225 13.4678 97.3225 13.6592V14.9552C97.3225 15.1614 97.2194 15.2571 97.0206 15.2571H92.8749V22.326C92.8749 22.5175 92.7792 22.6132 92.5877 22.6132H91.1445C90.9531 22.6132 90.8573 22.5175 90.8573 22.326V15.2571H86.7117C86.5055 15.2571 86.4098 15.154 86.4098 14.9552V13.6592C86.4098 13.4678 86.5129 13.3721 86.7117 13.3721H97.0206Z" fill="white"/>
<path d="M107.469 13.3721C108.485 13.3721 109.207 13.6003 109.649 14.0569C110.091 14.5134 110.312 15.1908 110.312 16.0892V16.8403C110.312 17.5987 110.157 18.1951 109.848 18.637C109.538 19.0788 109.038 19.3586 108.338 19.4837L110.599 22.2819C110.643 22.326 110.658 22.3923 110.636 22.4807C110.621 22.569 110.547 22.6132 110.422 22.6132H108.721C108.603 22.6132 108.53 22.5985 108.485 22.5764C108.441 22.547 108.397 22.5028 108.353 22.4439L106.262 19.6973H101.991V22.326C101.991 22.5175 101.895 22.6132 101.704 22.6132H100.275C100.069 22.6132 99.9733 22.5175 99.9733 22.326V13.7697C99.9733 13.5046 100.106 13.3721 100.371 13.3721H107.469ZM102.006 18.0921H107.064C107.513 18.0921 107.83 17.9963 108.014 17.8049C108.198 17.6134 108.294 17.3189 108.294 16.9213V16.369C108.294 15.9714 108.198 15.6768 108.014 15.4854C107.83 15.2939 107.513 15.1982 107.064 15.1982H102.175C102.057 15.1982 102.006 15.2498 102.006 15.3602V18.0921Z" fill="white"/>
<path d="M114.899 13.3721C115.09 13.3721 115.186 13.4678 115.186 13.6592V18.9315C115.186 19.2849 115.216 19.5795 115.275 19.8077C115.333 20.0434 115.429 20.2275 115.562 20.36C115.694 20.4999 115.871 20.5956 116.099 20.6472C116.328 20.7061 116.607 20.7355 116.953 20.7355H120.613C120.959 20.7355 121.239 20.7061 121.467 20.6472C121.696 20.5883 121.872 20.4925 122.005 20.36C122.137 20.2201 122.233 20.036 122.285 19.8077C122.336 19.5721 122.366 19.2849 122.366 18.9315V13.6592C122.366 13.4678 122.461 13.3721 122.653 13.3721H124.096C124.287 13.3721 124.383 13.4678 124.383 13.6592V19.1303C124.383 19.7636 124.317 20.3011 124.184 20.7503C124.052 21.1921 123.838 21.5529 123.544 21.8327C123.249 22.1125 122.866 22.3113 122.395 22.4365C121.924 22.5617 121.357 22.6206 120.687 22.6206H116.88C116.21 22.6206 115.643 22.5617 115.179 22.4365C114.715 22.3113 114.332 22.1125 114.038 21.8327C113.743 21.5529 113.529 21.1921 113.39 20.7503C113.25 20.3085 113.183 19.7636 113.183 19.1303V13.6592C113.183 13.4678 113.286 13.3721 113.485 13.3721H114.899Z" fill="white"/>
<path d="M130.06 13.3721C130.252 13.3721 130.421 13.3868 130.561 13.4089C130.701 13.4383 130.826 13.4825 130.929 13.5635C131.032 13.6372 131.128 13.7402 131.217 13.8654C131.298 13.9906 131.386 14.16 131.474 14.3735L134.221 20.7134C134.258 20.7944 134.317 20.8313 134.405 20.8313H134.567C134.655 20.8313 134.714 20.7944 134.751 20.7134L137.498 14.3735C137.586 14.16 137.674 13.9906 137.755 13.8654C137.836 13.7402 137.932 13.6372 138.042 13.5635C138.146 13.4899 138.271 13.4383 138.403 13.4089C138.543 13.3794 138.705 13.3721 138.897 13.3721H140.31C140.767 13.3721 141.076 13.4752 141.238 13.6813C141.4 13.8875 141.474 14.241 141.474 14.7417V22.326C141.474 22.5175 141.371 22.6132 141.172 22.6132H139.824C139.633 22.6132 139.537 22.5175 139.537 22.326V15.4265C139.537 15.3381 139.5 15.2939 139.434 15.2939H139.316C139.228 15.2939 139.169 15.3308 139.147 15.397L136.481 21.3173C136.378 21.5529 136.268 21.7591 136.157 21.9211C136.047 22.0831 135.929 22.2156 135.804 22.326C135.679 22.4291 135.532 22.5101 135.37 22.5543C135.208 22.5985 135.016 22.6206 134.795 22.6206H134.162C133.941 22.6206 133.75 22.5985 133.588 22.5543C133.426 22.5101 133.278 22.4365 133.153 22.326C133.028 22.223 132.903 22.0831 132.8 21.9211C132.689 21.7591 132.579 21.5602 132.476 21.3173L129.81 15.397C129.781 15.3234 129.729 15.2939 129.641 15.2939H129.523C129.449 15.2939 129.42 15.3381 129.42 15.4265V22.326C129.42 22.5175 129.324 22.6132 129.133 22.6132H127.785C127.579 22.6132 127.483 22.5175 127.483 22.326V14.7417C127.483 14.241 127.564 13.8875 127.719 13.6813C127.881 13.4752 128.19 13.3721 128.654 13.3721H130.06Z" fill="white"/>
</g>
<defs>
<clipPath id="clip0_1363_2711">
<rect width="141.379" height="36" fill="white" transform="translate(0.0952148)"/>
</clipPath>
</defs>
</svg>
