<svg width="202" height="51" viewBox="0 0 202 51" fill="none" xmlns="http://www.w3.org/2000/svg">
<g>
<path d="M1.83777 15.4129V35.2488C1.83777 36.5112 2.52085 37.6805 3.63479 38.3117L21.0796 48.2245C22.1936 48.8556 23.5597 48.8556 24.6737 48.2245L42.1185 38.3117C43.2324 37.6805 43.9155 36.5112 43.9155 35.2488V15.4129C43.9155 14.1505 43.2324 12.9812 42.1185 12.3501L24.6737 2.43726C23.5597 1.80607 22.1936 1.80607 21.0796 2.43726L3.63479 12.3501C2.53136 12.9812 1.83777 14.1505 1.83777 15.4129Z" fill="transparent"/>
<path d="M26.6912 29.1754L24.2006 35.8908C24.1271 36.0771 24.1271 36.284 24.2006 36.4703L28.4778 48.0283L33.4275 45.2138L27.4899 29.1754C27.3533 28.8029 26.8279 28.8029 26.6912 29.1754Z" fill="black"/>
<path d="M31.6726 17.8761C31.536 17.5036 31.0105 17.5036 30.8739 17.8761L28.3833 24.5915C28.3097 24.7778 28.3097 24.9847 28.3833 25.171L35.3928 44.0963L40.3425 41.2819L31.6726 17.8761Z" fill="black"/>
<path d="M22.8766 3.17237C23.0027 3.17237 23.1183 3.20341 23.2339 3.26549L42.1079 13.9957C42.3286 14.1199 42.4652 14.3475 42.4652 14.5959V36.0564C42.4652 36.3047 42.3286 36.5323 42.1079 36.6565L23.2339 47.3971C23.1288 47.4592 23.0027 47.4902 22.8766 47.4902C22.7505 47.4902 22.6349 47.4592 22.5193 47.3971L3.65577 36.6669C3.43508 36.5427 3.29846 36.3151 3.29846 36.0667V14.5959C3.29846 14.3475 3.43508 14.1199 3.65577 13.9957L22.5298 3.26549C22.6349 3.20341 22.761 3.17237 22.8766 3.17237ZM22.8766 0.0371094C22.204 0.0371094 21.5314 0.213015 20.9324 0.554479L2.05841 11.2847C0.860392 11.9676 0.114258 13.23 0.114258 14.5959V36.0564C0.114258 37.4222 0.860392 38.695 2.05841 39.3779L20.9324 50.1081C21.5314 50.4496 22.204 50.6255 22.8766 50.6255C23.5492 50.6255 24.2217 50.4496 24.8207 50.1081L43.6948 39.3779C44.9033 38.695 45.6389 37.4326 45.6389 36.0564V14.5959C45.6389 13.23 44.8928 11.9573 43.6948 11.2744L24.8313 0.554479C24.2217 0.213015 23.5492 0.0371094 22.8766 0.0371094Z" fill="black"/>
<path d="M10.4025 44.117L12.1364 39.4399L15.6254 42.2958L12.3676 45.2345L10.4025 44.117Z" fill="#1EE0BD"/>
<path d="M21.2898 13.0645H16.5082C16.1509 13.0645 15.8251 13.2817 15.7095 13.6129L5.45282 41.3025L10.4025 44.117L21.6996 13.6232C21.7942 13.3542 21.5945 13.0645 21.2898 13.0645Z" fill="black"/>
<path d="M29.6655 13.0645H24.8839C24.5266 13.0645 24.2008 13.2817 24.0853 13.6129L12.3678 45.2345L17.3175 48.049L30.0648 13.6336C30.1699 13.3542 29.9597 13.0645 29.6655 13.0645Z" fill="black"/>
<path d="M66.0157 18.8276C66.4886 18.8276 66.8985 18.9208 67.2243 19.1174C67.55 19.314 67.8758 19.6865 68.1911 20.2452L74.4334 31.3997C74.4964 31.5239 74.507 31.6274 74.4754 31.7101C74.4439 31.7929 74.3493 31.8343 74.2022 31.8343H71.8062C71.596 31.8343 71.4489 31.7515 71.3753 31.5963L70.0407 29.2061H61.1816L59.8785 31.5963C59.7945 31.7619 59.6473 31.8343 59.4477 31.8343H56.9991C56.8309 31.8343 56.7364 31.7929 56.7048 31.7101C56.6733 31.6274 56.6838 31.5239 56.7469 31.3997L62.9366 20.2452C63.2519 19.6865 63.5567 19.314 63.8614 19.1174C64.1662 18.9208 64.513 18.8276 64.9123 18.8276H66.0157ZM62.3481 27.0331H68.8426L65.8476 21.5904C65.7951 21.5076 65.732 21.4559 65.6374 21.4559H65.5218C65.4378 21.4559 65.3642 21.4973 65.3116 21.5904L62.3481 27.0331Z" fill="black"/>
<path d="M88.1476 18.8276C89.5978 18.8276 90.6277 19.1484 91.2582 19.7899C91.8888 20.4315 92.2041 21.3834 92.2041 22.6458V23.7013C92.2041 24.767 91.9834 25.6052 91.542 26.226C91.1006 26.8469 90.386 27.2401 89.3877 27.416L92.6139 31.348C92.677 31.4101 92.698 31.5032 92.6664 31.6274C92.6454 31.7515 92.5403 31.8136 92.3617 31.8136H89.9341C89.766 31.8136 89.6609 31.7929 89.5978 31.7619C89.5348 31.7205 89.4717 31.6584 89.4087 31.5756L86.4241 27.716H80.329V31.4101C80.329 31.6791 80.1924 31.8136 79.9191 31.8136H77.8804C77.5861 31.8136 77.4495 31.6791 77.4495 31.4101V19.3864C77.4495 19.0139 77.6387 18.8276 78.017 18.8276H88.1476ZM80.3395 25.4603H87.5591C88.2001 25.4603 88.652 25.3258 88.9148 25.0568C89.1775 24.7877 89.3141 24.3738 89.3141 23.8151V23.039C89.3141 22.4803 89.1775 22.0664 88.9148 21.7973C88.652 21.5283 88.2001 21.3938 87.5591 21.3938H80.5812C80.413 21.3938 80.3395 21.4662 80.3395 21.6214V25.4603Z" fill="black"/>
<path d="M107.978 18.8276C109.271 18.8276 110.195 19.0863 110.742 19.5933C111.288 20.1004 111.561 20.8661 111.561 21.8905V22.7803C111.561 23.8151 111.162 24.6015 110.353 25.1395C111.215 25.6362 111.656 26.433 111.656 27.5298V28.6059C111.656 29.1026 111.603 29.5475 111.488 29.9407C111.372 30.3339 111.194 30.6754 110.931 30.9548C110.668 31.2342 110.332 31.4515 109.901 31.5963C109.47 31.7412 108.945 31.824 108.314 31.824H97.1117C96.7334 31.824 96.5442 31.6377 96.5442 31.2652V19.3864C96.5442 19.0139 96.7334 18.8276 97.1117 18.8276H107.978ZM99.4341 24.229H107.169C107.799 24.229 108.22 24.1358 108.451 23.9496C108.682 23.7633 108.787 23.4943 108.787 23.1321V22.501C108.787 22.1181 108.682 21.8387 108.461 21.6525C108.241 21.4766 107.883 21.3834 107.4 21.3834H99.6864C99.5182 21.3834 99.4447 21.4662 99.4447 21.6214V24.229H99.4341ZM99.4341 26.2571V29.0198C99.4341 29.1854 99.5182 29.2578 99.6759 29.2578H107.41C107.915 29.2578 108.272 29.1647 108.482 28.9888C108.693 28.8129 108.808 28.5231 108.808 28.1299V27.4263C108.808 27.0435 108.693 26.7537 108.461 26.5571C108.23 26.3605 107.799 26.2571 107.169 26.2571H99.4341Z" fill="black"/>
<path d="M118.686 18.8276C118.96 18.8276 119.096 18.9622 119.096 19.2312V31.4101C119.096 31.6791 118.96 31.8136 118.686 31.8136H116.648C116.353 31.8136 116.217 31.6791 116.217 31.4101V19.2415C116.217 18.9725 116.364 18.838 116.648 18.838L118.686 18.8276Z" fill="black"/>
<path d="M138.443 18.8276C138.738 18.8276 138.874 18.9622 138.874 19.2312V21.0523C138.874 21.3421 138.727 21.4766 138.443 21.4766H132.527V31.4101C132.527 31.6791 132.39 31.8136 132.117 31.8136H130.057C129.784 31.8136 129.647 31.6791 129.647 31.4101V21.4766H123.731C123.437 21.4766 123.3 21.3317 123.3 21.0523V19.2312C123.3 18.9622 123.447 18.8276 123.731 18.8276H138.443Z" fill="black"/>
<path d="M153.356 18.8276C154.806 18.8276 155.836 19.1484 156.466 19.7899C157.097 20.4315 157.412 21.3834 157.412 22.6458V23.7013C157.412 24.767 157.191 25.6052 156.75 26.226C156.309 26.8469 155.594 27.2401 154.596 27.416L157.822 31.348C157.885 31.4101 157.906 31.5032 157.874 31.6274C157.853 31.7515 157.748 31.8136 157.57 31.8136H155.142C154.974 31.8136 154.869 31.7929 154.806 31.7619C154.743 31.7205 154.68 31.6584 154.617 31.5756L151.632 27.716H145.537V31.4101C145.537 31.6791 145.4 31.8136 145.127 31.8136H143.088C142.794 31.8136 142.657 31.6791 142.657 31.4101V19.3864C142.657 19.0139 142.847 18.8276 143.225 18.8276H153.356ZM145.558 25.4603H152.778C153.419 25.4603 153.87 25.3258 154.133 25.0568C154.396 24.7877 154.533 24.3738 154.533 23.8151V23.039C154.533 22.4803 154.396 22.0664 154.133 21.7973C153.87 21.5283 153.419 21.3938 152.778 21.3938H145.8C145.631 21.3938 145.558 21.4662 145.558 21.6214V25.4603Z" fill="black"/>
<path d="M163.959 18.8276C164.232 18.8276 164.369 18.9622 164.369 19.2312V26.6399C164.369 27.1366 164.411 27.5505 164.495 27.8713C164.579 28.2024 164.716 28.4611 164.905 28.6473C165.094 28.8439 165.346 28.9784 165.672 29.0509C165.998 29.1336 166.397 29.175 166.891 29.175H172.114C172.608 29.175 173.007 29.1336 173.333 29.0509C173.659 28.9681 173.911 28.8336 174.1 28.6473C174.289 28.4507 174.426 28.192 174.5 27.8713C174.573 27.5401 174.615 27.1366 174.615 26.6399V19.2312C174.615 18.9622 174.752 18.8276 175.025 18.8276H177.085C177.358 18.8276 177.495 18.9622 177.495 19.2312V26.9193C177.495 27.8092 177.4 28.5645 177.211 29.1957C177.022 29.8166 176.717 30.3236 176.297 30.7168C175.876 31.11 175.33 31.3894 174.657 31.5653C173.985 31.7412 173.175 31.824 172.219 31.824H166.786C165.83 31.824 165.02 31.7412 164.358 31.5653C163.696 31.3894 163.15 31.11 162.73 30.7168C162.309 30.3236 162.004 29.8166 161.805 29.1957C161.605 28.5749 161.51 27.8092 161.51 26.9193V19.2312C161.51 18.9622 161.658 18.8276 161.941 18.8276H163.959Z" fill="black"/>
<path d="M185.597 18.8276C185.87 18.8276 186.112 18.8483 186.311 18.8794C186.511 18.9208 186.69 18.9828 186.837 19.0967C186.984 19.2001 187.121 19.345 187.247 19.5209C187.362 19.6968 187.488 19.9348 187.615 20.2349L191.534 29.144C191.587 29.2578 191.671 29.3095 191.797 29.3095H192.028C192.154 29.3095 192.238 29.2578 192.291 29.144L196.211 20.2349C196.337 19.9348 196.463 19.6968 196.579 19.5209C196.694 19.345 196.831 19.2001 196.989 19.0967C197.136 18.9932 197.314 18.9208 197.503 18.8794C197.703 18.838 197.934 18.8276 198.208 18.8276H200.225C200.877 18.8276 201.318 18.9725 201.549 19.2622C201.781 19.552 201.886 20.0486 201.886 20.7523V31.4101C201.886 31.6791 201.739 31.8136 201.455 31.8136H199.532C199.258 31.8136 199.122 31.6791 199.122 31.4101V21.7146C199.122 21.5904 199.069 21.5283 198.975 21.5283H198.807C198.68 21.5283 198.596 21.58 198.565 21.6732L194.761 29.9925C194.613 30.3236 194.456 30.6133 194.298 30.841C194.141 31.0686 193.972 31.2549 193.794 31.4101C193.615 31.5549 193.405 31.6687 193.174 31.7308C192.943 31.7929 192.669 31.824 192.354 31.824H191.45C191.135 31.824 190.862 31.7929 190.631 31.7308C190.399 31.6687 190.189 31.5653 190.011 31.4101C189.832 31.2652 189.653 31.0686 189.506 30.841C189.349 30.6133 189.191 30.3339 189.044 29.9925L185.24 21.6732C185.197 21.5697 185.124 21.5283 184.998 21.5283H184.83C184.725 21.5283 184.683 21.5904 184.683 21.7146V31.4101C184.683 31.6791 184.546 31.8136 184.273 31.8136H182.35C182.055 31.8136 181.919 31.6791 181.919 31.4101V20.7523C181.919 20.0486 182.034 19.552 182.255 19.2622C182.486 18.9725 182.928 18.8276 183.59 18.8276H185.597Z" fill="black"/>
</g>
</svg>
