<svg width="155" height="45" viewBox="0 0 155 45" fill="none" xmlns="http://www.w3.org/2000/svg">
<g clip-path="url(#clip0_1363_2816)">
<path d="M35.8626 9.60248C33.2689 8.41215 30.532 7.56259 27.7201 7.07498C27.6946 7.07069 27.6685 7.07439 27.6452 7.08559C27.6219 7.09678 27.6027 7.11491 27.5901 7.13748C27.2376 7.76248 26.8476 8.57998 26.5751 9.21998C23.5441 8.76 20.4611 8.76 17.4301 9.21998C17.1261 8.50703 16.7823 7.81176 16.4001 7.13748C16.3873 7.11515 16.368 7.09723 16.3448 7.08608C16.3216 7.07492 16.2956 7.07105 16.2701 7.07498C13.4576 7.55998 10.7201 8.40998 8.12762 9.60248C8.10543 9.61095 8.08688 9.62685 8.07512 9.64748C2.89012 17.395 1.46762 24.9525 2.16512 32.415C2.16762 32.45 2.19012 32.485 2.21762 32.5075C5.23693 34.744 8.6141 36.4516 12.2051 37.5575C12.2305 37.5655 12.2577 37.5652 12.2829 37.5566C12.3081 37.5481 12.3299 37.5318 12.3451 37.51C13.1151 36.46 13.8001 35.3525 14.3901 34.1875C14.4024 34.1635 14.4066 34.1362 14.4021 34.1096C14.3976 34.083 14.3846 34.0586 14.3651 34.04C14.3522 34.0278 14.3369 34.0184 14.3201 34.0125C13.243 33.5985 12.1999 33.1012 11.2001 32.525C11.1722 32.5092 11.1514 32.4832 11.1421 32.4525C11.1328 32.4218 11.1357 32.3886 11.1501 32.36C11.1586 32.3414 11.1715 32.3251 11.1876 32.3125C11.3976 32.155 11.6076 31.99 11.8076 31.825C11.8253 31.8108 11.8465 31.8016 11.8689 31.7986C11.8914 31.7955 11.9143 31.7986 11.9351 31.8075C18.4826 34.7975 25.5701 34.7975 32.0376 31.8075C32.0592 31.7981 32.083 31.7948 32.1063 31.7979C32.1296 31.801 32.1517 31.8103 32.1701 31.825C32.3701 31.99 32.5801 32.155 32.7901 32.3125C32.8071 32.3249 32.8208 32.3414 32.8299 32.3604C32.839 32.3794 32.8432 32.4004 32.8423 32.4214C32.8413 32.4425 32.8351 32.4629 32.8242 32.481C32.8134 32.4991 32.7982 32.5142 32.7801 32.525C31.7827 33.1065 30.7382 33.6032 29.6576 34.01C29.6404 34.0162 29.6247 34.0262 29.6118 34.0391C29.5988 34.0521 29.5889 34.0677 29.5826 34.085C29.5768 34.1017 29.5745 34.1194 29.5758 34.137C29.5771 34.1546 29.582 34.1718 29.5901 34.1875C30.1901 35.35 30.8776 36.46 31.6326 37.51C31.6479 37.5318 31.6697 37.5481 31.6948 37.5566C31.72 37.5652 31.7473 37.5655 31.7726 37.5575C35.3696 36.455 38.7523 34.7472 41.7751 32.5075C41.7903 32.497 41.8028 32.4832 41.8119 32.4672C41.821 32.4512 41.8264 32.4333 41.8276 32.415C42.6626 23.7875 40.4301 16.2925 35.9126 9.64998C35.9081 9.63901 35.9013 9.62911 35.8927 9.62093C35.884 9.61275 35.8738 9.60646 35.8626 9.60248ZM15.3676 27.87C13.3951 27.87 11.7726 26.06 11.7726 23.84C11.7726 21.6175 13.3651 19.8075 15.3676 19.8075C17.3851 19.8075 18.9926 21.6325 18.9626 23.84C18.9626 26.06 17.3701 27.87 15.3676 27.87ZM28.6576 27.87C26.6876 27.87 25.0626 26.06 25.0626 23.84C25.0626 21.6175 26.6551 19.8075 28.6576 19.8075C30.6751 19.8075 32.2851 21.6325 32.2526 23.84C32.2526 26.06 30.6751 27.87 28.6576 27.87Z" fill="currentColor"/>
</g>
<path d="M67.8 13.487C69.576 13.487 71.128 13.839 72.456 14.543C73.784 15.247 74.808 16.239 75.528 17.519C76.264 18.783 76.632 20.247 76.632 21.911C76.632 23.559 76.264 25.023 75.528 26.303C74.808 27.583 73.776 28.575 72.432 29.279C71.104 29.983 69.56 30.335 67.8 30.335H61.488V13.487H67.8ZM67.536 26.783C69.088 26.783 70.296 26.359 71.16 25.511C72.024 24.663 72.456 23.463 72.456 21.911C72.456 20.359 72.024 19.151 71.16 18.287C70.296 17.423 69.088 16.991 67.536 16.991H65.592V26.783H67.536ZM80.9895 15.551C80.2695 15.551 79.6775 15.343 79.2135 14.927C78.7655 14.495 78.5415 13.967 78.5415 13.343C78.5415 12.703 78.7655 12.175 79.2135 11.759C79.6775 11.327 80.2695 11.111 80.9895 11.111C81.6935 11.111 82.2695 11.327 82.7175 11.759C83.1815 12.175 83.4135 12.703 83.4135 13.343C83.4135 13.967 83.1815 14.495 82.7175 14.927C82.2695 15.343 81.6935 15.551 80.9895 15.551ZM83.0295 16.943V30.335H78.9255V16.943H83.0295ZM91.4516 30.527C90.2836 30.527 89.2436 30.327 88.3316 29.927C87.4196 29.527 86.6996 28.983 86.1716 28.295C85.6436 27.591 85.3476 26.807 85.2836 25.943H89.3396C89.3876 26.407 89.6036 26.783 89.9876 27.071C90.3716 27.359 90.8436 27.503 91.4036 27.503C91.9156 27.503 92.3076 27.407 92.5796 27.215C92.8676 27.007 93.0116 26.743 93.0116 26.423C93.0116 26.039 92.8116 25.759 92.4116 25.583C92.0116 25.391 91.3636 25.183 90.4676 24.959C89.5076 24.735 88.7076 24.503 88.0676 24.263C87.4276 24.007 86.8756 23.615 86.4116 23.087C85.9476 22.543 85.7156 21.815 85.7156 20.903C85.7156 20.135 85.9236 19.439 86.3396 18.815C86.7716 18.175 87.3956 17.671 88.2116 17.303C89.0436 16.935 90.0276 16.751 91.1636 16.751C92.8436 16.751 94.1636 17.167 95.1236 17.999C96.0996 18.831 96.6596 19.935 96.8036 21.311H93.0116C92.9476 20.847 92.7396 20.479 92.3876 20.207C92.0516 19.935 91.6036 19.799 91.0436 19.799C90.5636 19.799 90.1956 19.895 89.9396 20.087C89.6836 20.263 89.5556 20.511 89.5556 20.831C89.5556 21.215 89.7556 21.503 90.1556 21.695C90.5716 21.887 91.2116 22.079 92.0756 22.271C93.0676 22.527 93.8756 22.783 94.4996 23.039C95.1236 23.279 95.6676 23.679 96.1316 24.239C96.6116 24.783 96.8596 25.519 96.8756 26.447C96.8756 27.231 96.6516 27.935 96.2036 28.559C95.7716 29.167 95.1396 29.647 94.3076 29.999C93.4916 30.351 92.5396 30.527 91.4516 30.527ZM98.5704 23.639C98.5704 22.247 98.8504 21.031 99.4104 19.991C99.9864 18.951 100.778 18.151 101.786 17.591C102.81 17.031 103.978 16.751 105.29 16.751C106.97 16.751 108.37 17.191 109.49 18.071C110.626 18.951 111.37 20.191 111.722 21.791H107.354C106.986 20.767 106.274 20.255 105.218 20.255C104.466 20.255 103.866 20.551 103.418 21.143C102.97 21.719 102.746 22.551 102.746 23.639C102.746 24.727 102.97 25.567 103.418 26.159C103.866 26.735 104.466 27.023 105.218 27.023C106.274 27.023 106.986 26.511 107.354 25.487H111.722C111.37 27.055 110.626 28.287 109.49 29.183C108.354 30.079 106.954 30.527 105.29 30.527C103.978 30.527 102.81 30.247 101.786 29.687C100.778 29.127 99.9864 28.327 99.4104 27.287C98.8504 26.247 98.5704 25.031 98.5704 23.639ZM120.014 30.527C118.702 30.527 117.518 30.247 116.462 29.687C115.422 29.127 114.598 28.327 113.99 27.287C113.398 26.247 113.102 25.031 113.102 23.639C113.102 22.263 113.406 21.055 114.014 20.015C114.622 18.959 115.454 18.151 116.51 17.591C117.566 17.031 118.75 16.751 120.062 16.751C121.374 16.751 122.558 17.031 123.614 17.591C124.67 18.151 125.502 18.959 126.11 20.015C126.718 21.055 127.022 22.263 127.022 23.639C127.022 25.015 126.71 26.231 126.086 27.287C125.478 28.327 124.638 29.127 123.566 29.687C122.51 30.247 121.326 30.527 120.014 30.527ZM120.014 26.975C120.798 26.975 121.462 26.687 122.006 26.111C122.566 25.535 122.846 24.711 122.846 23.639C122.846 22.567 122.574 21.743 122.03 21.167C121.502 20.591 120.846 20.303 120.062 20.303C119.262 20.303 118.598 20.591 118.07 21.167C117.542 21.727 117.278 22.551 117.278 23.639C117.278 24.711 117.534 25.535 118.046 26.111C118.574 26.687 119.23 26.975 120.014 26.975ZM133.303 19.175C133.783 18.439 134.383 17.863 135.103 17.447C135.823 17.015 136.623 16.799 137.503 16.799V21.143H136.375C135.351 21.143 134.583 21.367 134.071 21.815C133.559 22.247 133.303 23.015 133.303 24.119V30.335H129.199V16.943H133.303V19.175ZM138.649 23.615C138.649 22.239 138.905 21.031 139.417 19.991C139.945 18.951 140.657 18.151 141.553 17.591C142.449 17.031 143.449 16.751 144.553 16.751C145.433 16.751 146.233 16.935 146.953 17.303C147.689 17.671 148.265 18.167 148.681 18.791V12.575H152.785V30.335H148.681V28.415C148.297 29.055 147.745 29.567 147.025 29.951C146.321 30.335 145.497 30.527 144.553 30.527C143.449 30.527 142.449 30.247 141.553 29.687C140.657 29.111 139.945 28.303 139.417 27.263C138.905 26.207 138.649 24.991 138.649 23.615ZM148.681 23.639C148.681 22.615 148.393 21.807 147.817 21.215C147.257 20.623 146.569 20.327 145.753 20.327C144.937 20.327 144.241 20.623 143.665 21.215C143.105 21.791 142.825 22.591 142.825 23.615C142.825 24.639 143.105 25.455 143.665 26.063C144.241 26.655 144.937 26.951 145.753 26.951C146.569 26.951 147.257 26.655 147.817 26.063C148.393 25.471 148.681 24.663 148.681 23.639Z" fill="currentColor"/>
<defs>
<clipPath id="clip0_1363_2816">
<rect width="40" height="40" fill="currentColor" transform="translate(2 2.33496)"/>
</clipPath>
</defs>
</svg>
