<svg width="42" height="42" viewBox="0 0 42 42" fill="none" xmlns="http://www.w3.org/2000/svg">
<circle opacity="0.2" cx="20.6746" cy="20.7891" r="20" stroke="white"/>
<rect opacity="0.01" x="8.67456" y="8.78906" width="24" height="24" fill="black"/>
<path fill-rule="evenodd" clip-rule="evenodd" d="M25.8371 11.8829C24.2612 10.9632 22.5402 10.5034 20.6741 10.5034C18.8081 10.5034 17.0871 10.9632 15.5112 11.8829C13.9353 12.8025 12.6875 14.0503 11.7679 15.6262C10.8482 17.2021 10.3884 18.9231 10.3884 20.7891C10.3884 23.0302 11.0424 25.0458 12.3505 26.836C13.6585 28.6262 15.3482 29.865 17.4197 30.5525C17.6607 30.5972 17.8393 30.5659 17.9554 30.4588C18.0715 30.3516 18.1295 30.2177 18.1295 30.057C18.1295 30.0213 18.1273 29.778 18.1228 29.3271C18.1183 28.8762 18.1161 28.4811 18.1161 28.1418L17.8081 28.1954C17.6116 28.2311 17.3639 28.2467 17.0648 28.2423C16.7657 28.2378 16.4554 28.2065 16.134 28.1485C15.8125 28.0905 15.5134 27.9565 15.2366 27.7467C14.9599 27.5369 14.7634 27.2623 14.6474 26.9231L14.5134 26.615C14.4241 26.4097 14.2835 26.182 14.0916 25.932C13.8996 25.682 13.7054 25.5123 13.509 25.4231L13.4152 25.3561C13.3527 25.3115 13.2947 25.2579 13.2411 25.1954C13.1875 25.1329 13.1474 25.0704 13.1206 25.0079C13.0938 24.9454 13.1161 24.894 13.1875 24.8539C13.259 24.8137 13.3884 24.7936 13.5759 24.7936L13.8438 24.8338C14.0224 24.8695 14.2433 24.9766 14.5067 25.1552C14.7701 25.3338 14.9866 25.5659 15.1563 25.8516C15.3616 26.2177 15.6094 26.4967 15.8996 26.6887C16.1898 26.8807 16.4822 26.9766 16.7768 26.9766C17.0715 26.9766 17.3259 26.9543 17.5402 26.9097C17.7545 26.865 17.9554 26.7981 18.1429 26.7088C18.2322 26.1106 18.4509 25.6507 18.7991 25.3293C18.2902 25.2757 17.8326 25.1954 17.4264 25.0882C17.0201 24.9811 16.6005 24.807 16.1674 24.5659C15.7344 24.3248 15.375 24.0257 15.0893 23.6686C14.8036 23.3115 14.5692 22.8427 14.3862 22.2623C14.2032 21.682 14.1116 21.0123 14.1116 20.2534C14.1116 19.1909 14.4643 18.2713 15.1697 17.4945C14.8393 16.682 14.875 15.7713 15.2768 14.7623C15.5268 14.682 15.9063 14.7423 16.4152 14.9432C16.9241 15.144 17.2969 15.3159 17.5335 15.4588C17.7701 15.6016 17.9599 15.7222 18.1027 15.8204C18.9331 15.5882 19.7902 15.4722 20.6741 15.4722C21.5581 15.4722 22.4152 15.5882 23.2456 15.8204L23.7545 15.499C24.1027 15.2847 24.5134 15.0882 24.9866 14.9097C25.4599 14.7311 25.8215 14.682 26.0715 14.7623C26.4732 15.7713 26.509 16.682 26.1786 17.4945C26.884 18.2713 27.2366 19.1909 27.2366 20.2534C27.2366 21.0123 27.1451 21.6842 26.9621 22.269C26.7791 22.8539 26.5424 23.3226 26.2523 23.6753C25.9621 24.028 25.6005 24.3248 25.1674 24.5659C24.7344 24.807 24.3148 24.9811 23.9085 25.0882C23.5023 25.1954 23.0447 25.2757 22.5357 25.3293C23 25.7311 23.2322 26.365 23.2322 27.2311C23.2322 27.7757 23.2299 28.3762 23.2255 29.0324C23.221 29.6887 23.2188 30.0302 23.2188 30.057C23.2188 30.2177 23.2768 30.3516 23.3929 30.4588C23.509 30.5659 23.6875 30.5972 23.9286 30.5525C26 29.865 27.6898 28.6262 28.9978 26.836C30.3058 25.0458 30.9599 23.0302 30.9599 20.7891C30.9599 18.9231 30.5 17.2021 29.5804 15.6262C28.6607 14.0503 27.413 12.8025 25.8371 11.8829ZM14.192 25.1152C14.2813 25.1598 14.3126 25.2134 14.2858 25.2759C14.2501 25.3473 14.192 25.3562 14.1117 25.3027C14.0224 25.258 13.9912 25.2045 14.0179 25.142C14.0447 25.0973 14.1028 25.0884 14.192 25.1152ZM14.7009 25.7309C14.7634 25.6863 14.7545 25.6149 14.6741 25.5167C14.5848 25.4363 14.5134 25.4229 14.4598 25.4765C14.3973 25.5211 14.4063 25.5926 14.4866 25.6908C14.5759 25.7801 14.6473 25.7934 14.7009 25.7309ZM15.1031 26.0795C15.1835 26.1866 15.1835 26.2714 15.1031 26.3339C15.0317 26.3875 14.9558 26.3563 14.8755 26.2402C14.7951 26.1241 14.7951 26.0438 14.8755 25.9991C14.9558 25.9366 15.0317 25.9634 15.1031 26.0795ZM15.6654 26.8961C15.7368 26.8247 15.719 26.7399 15.6118 26.6416C15.5047 26.5345 15.4154 26.5211 15.344 26.6015C15.2636 26.6729 15.2815 26.7577 15.3976 26.8559C15.5047 26.9631 15.594 26.9765 15.6654 26.8961ZM16.2545 27.0168C16.3974 27.0615 16.4554 27.1329 16.4286 27.2311C16.3929 27.3382 16.3081 27.365 16.1741 27.3115C16.0224 27.2757 15.9643 27.2088 16 27.1106C16.0357 27.0123 16.1206 26.9811 16.2545 27.0168ZM17.2728 27.2979C17.2728 27.1818 17.1969 27.1327 17.0451 27.1505C16.9022 27.1505 16.8308 27.1997 16.8308 27.2979C16.8308 27.4139 16.9067 27.463 17.0585 27.4452C17.2013 27.4452 17.2728 27.3961 17.2728 27.2979ZM17.8084 27.0437C17.9513 27.0258 18.0316 27.066 18.0495 27.1642C18.0673 27.2535 18.0048 27.316 17.862 27.3517C17.7191 27.3874 17.6388 27.3517 17.6209 27.2446C17.603 27.1374 17.6655 27.0705 17.8084 27.0437Z" fill="white"/>
</svg>
