<svg width="156" height="156" viewBox="0 0 156 156" fill="none" xmlns="http://www.w3.org/2000/svg">
<path fill-rule="evenodd" clip-rule="evenodd" d="M129.459 64.5751C130.299 65.4041 130.772 66.5389 130.772 67.7235V97.0012C130.772 117.149 114.697 133.482 94.8682 133.482C85.7088 133.482 77.3504 129.997 71.0074 124.261C70.3716 124.449 69.6989 124.55 69.0027 124.55C65.0771 124.55 61.8948 121.343 61.8948 117.387C61.8948 113.431 65.0771 110.224 69.0027 110.224C72.9283 110.224 76.1106 113.431 76.1106 117.387C76.1106 118.433 75.888 119.427 75.4878 120.323C80.7191 124.816 87.4824 127.524 94.8682 127.524C111.459 127.524 124.909 113.859 124.909 97.0012L124.913 62.7082C124.913 61.7319 126.079 61.2379 126.771 61.9212L129.459 64.5751ZM83.0203 104.623L83.2265 104.967C85.9183 109.453 90.7879 112.428 96.3408 112.428C104.796 112.428 111.65 105.521 111.65 97.0012C111.65 88.6109 105.002 81.7834 96.7266 81.5788L96.5337 81.574H96.3408H41.6646C33.2095 81.574 26.3553 88.481 26.3553 97.0012C26.3553 105.521 33.2095 112.428 41.6646 112.428C47.2175 112.428 52.0871 109.453 54.779 104.967L54.9851 104.623L55.2311 104.307C58.4232 100.207 63.4071 97.5521 69.0027 97.5521C74.5983 97.5521 79.5822 100.207 82.7743 104.307L83.0203 104.623ZM90.3264 74.9623H41.6646C29.5859 74.9623 19.7941 84.8295 19.7941 97.0012C19.7941 109.173 29.5859 119.04 41.6646 119.04C49.6084 119.04 56.563 114.772 60.3936 108.388C62.3954 105.816 65.5076 104.164 69.0027 104.164C72.4978 104.164 75.61 105.816 77.6118 108.388C81.4425 114.772 88.397 119.04 96.3408 119.04C108.42 119.04 118.211 109.173 118.211 97.0012C118.211 85.0137 108.714 75.2615 96.8876 74.9691V74.9623H96.3408H90.3264Z" fill="#1EE0BD"/>
<path d="M138.988 42.4549C144.424 42.4549 148.83 38.0147 148.83 32.5375C148.83 27.0602 144.424 22.62 138.988 22.62C133.553 22.62 129.147 27.0602 129.147 32.5375C129.147 38.0147 133.553 42.4549 138.988 42.4549Z" fill="#0066FF"/>
<path d="M115.477 42.4549C115.477 46.4107 112.295 49.6176 108.37 49.6176C104.444 49.6176 101.262 46.4107 101.262 42.4549C101.262 38.4991 104.444 35.2923 108.37 35.2923C112.295 35.2923 115.477 38.4991 115.477 42.4549Z" fill="#0066FF"/>
<path d="M123.132 52.9234C123.132 54.7492 121.663 56.2292 119.852 56.2292C118.04 56.2292 116.571 54.7492 116.571 52.9234C116.571 51.0976 118.04 49.6176 119.852 49.6176C121.663 49.6176 123.132 51.0976 123.132 52.9234Z" fill="#0066FF"/>
</svg>
