<svg width="154" height="45" viewBox="0 0 154 45" fill="none" xmlns="http://www.w3.org/2000/svg">
<g>
<g clip-path="url(#clip0_1363_2821)">
<path d="M8.01535 13.6525C8.03782 13.4293 8.00773 13.2039 7.92751 12.9945C7.84729 12.785 7.71915 12.5972 7.55335 12.4461L4.12869 8.28996V7.66846H14.7584L22.9754 25.8276L30.1987 7.66846H40.3334V8.28996L37.4055 11.1151C37.2815 11.2109 37.1857 11.3386 37.1286 11.4845C37.0714 11.6305 37.055 11.7892 37.081 11.9438V32.7228C37.055 32.8774 37.0714 33.0361 37.1286 33.182C37.1857 33.328 37.2815 33.4557 37.4055 33.5515L40.2655 36.3785V37.0018H25.8849V36.3803L28.8475 33.4836C29.139 33.1903 29.139 33.1041 29.139 32.6568V15.8598L20.9037 36.9321H19.7927L10.2044 15.8598V29.9838C10.1255 30.576 10.3217 31.1755 10.736 31.6045L14.5879 36.3125V36.9321H3.66669V36.3125L7.51669 31.6045C7.72039 31.3919 7.87158 31.1346 7.95816 30.8532C8.04474 30.5718 8.06433 30.2741 8.01535 29.9838V13.6525Z" fill="currentColor"/>
</g>
<path d="M72.568 13.487V30.335H68.464V20.231L64.696 30.335H61.384L57.592 20.207V30.335H53.488V13.487H58.336L63.064 25.151L67.744 13.487H72.568ZM88.1432 23.423C88.1432 23.807 88.1193 24.207 88.0713 24.623H78.7833C78.8473 25.455 79.1113 26.095 79.5753 26.543C80.0553 26.975 80.6393 27.191 81.3273 27.191C82.3513 27.191 83.0633 26.759 83.4633 25.895H87.8313C87.6073 26.775 87.1993 27.567 86.6073 28.271C86.0313 28.975 85.3033 29.527 84.4233 29.927C83.5433 30.327 82.5593 30.527 81.4713 30.527C80.1593 30.527 78.9913 30.247 77.9673 29.687C76.9433 29.127 76.1433 28.327 75.5673 27.287C74.9913 26.247 74.7033 25.031 74.7033 23.639C74.7033 22.247 74.9833 21.031 75.5433 19.991C76.1193 18.951 76.9193 18.151 77.9433 17.591C78.9673 17.031 80.1433 16.751 81.4713 16.751C82.7673 16.751 83.9193 17.023 84.9273 17.567C85.9353 18.111 86.7193 18.887 87.2793 19.895C87.8553 20.903 88.1432 22.079 88.1432 23.423ZM83.9433 22.343C83.9433 21.639 83.7033 21.079 83.2233 20.663C82.7433 20.247 82.1433 20.039 81.4233 20.039C80.7353 20.039 80.1513 20.239 79.6713 20.639C79.2073 21.039 78.9193 21.607 78.8073 22.343H83.9433ZM89.4923 23.615C89.4923 22.239 89.7483 21.031 90.2603 19.991C90.7883 18.951 91.5003 18.151 92.3963 17.591C93.2923 17.031 94.2923 16.751 95.3963 16.751C96.2763 16.751 97.0763 16.935 97.7963 17.303C98.5323 17.671 99.1083 18.167 99.5243 18.791V12.575H103.628V30.335H99.5243V28.415C99.1403 29.055 98.5883 29.567 97.8683 29.951C97.1643 30.335 96.3403 30.527 95.3963 30.527C94.2923 30.527 93.2923 30.247 92.3963 29.687C91.5003 29.111 90.7883 28.303 90.2603 27.263C89.7483 26.207 89.4923 24.991 89.4923 23.615ZM99.5243 23.639C99.5243 22.615 99.2363 21.807 98.6603 21.215C98.1003 20.623 97.4123 20.327 96.5963 20.327C95.7803 20.327 95.0843 20.623 94.5083 21.215C93.9483 21.791 93.6683 22.591 93.6683 23.615C93.6683 24.639 93.9483 25.455 94.5083 26.063C95.0843 26.655 95.7803 26.951 96.5963 26.951C97.4123 26.951 98.1003 26.655 98.6603 26.063C99.2363 25.471 99.5243 24.663 99.5243 23.639ZM108.661 15.551C107.941 15.551 107.349 15.343 106.885 14.927C106.437 14.495 106.213 13.967 106.213 13.343C106.213 12.703 106.437 12.175 106.885 11.759C107.349 11.327 107.941 11.111 108.661 11.111C109.365 11.111 109.941 11.327 110.389 11.759C110.853 12.175 111.085 12.703 111.085 13.343C111.085 13.967 110.853 14.495 110.389 14.927C109.941 15.343 109.365 15.551 108.661 15.551ZM110.701 16.943V30.335H106.597V16.943H110.701ZM126.9 16.943V30.335H122.796V28.511C122.38 29.103 121.812 29.583 121.092 29.951C120.388 30.303 119.604 30.479 118.74 30.479C117.716 30.479 116.812 30.255 116.028 29.807C115.244 29.343 114.636 28.679 114.204 27.815C113.772 26.951 113.556 25.935 113.556 24.767V16.943H117.636V24.215C117.636 25.111 117.868 25.807 118.332 26.303C118.796 26.799 119.42 27.047 120.204 27.047C121.004 27.047 121.636 26.799 122.1 26.303C122.564 25.807 122.796 25.111 122.796 24.215V16.943H126.9ZM146.935 16.799C148.599 16.799 149.919 17.303 150.895 18.311C151.887 19.319 152.383 20.719 152.383 22.511V30.335H148.303V23.063C148.303 22.199 148.071 21.535 147.607 21.071C147.159 20.591 146.535 20.351 145.735 20.351C144.935 20.351 144.303 20.591 143.839 21.071C143.391 21.535 143.167 22.199 143.167 23.063V30.335H139.087V23.063C139.087 22.199 138.855 21.535 138.391 21.071C137.943 20.591 137.319 20.351 136.519 20.351C135.719 20.351 135.087 20.591 134.623 21.071C134.175 21.535 133.951 22.199 133.951 23.063V30.335H129.847V16.943H133.951V18.623C134.367 18.063 134.911 17.623 135.583 17.303C136.255 16.967 137.015 16.799 137.863 16.799C138.871 16.799 139.767 17.015 140.551 17.447C141.351 17.879 141.975 18.495 142.423 19.295C142.887 18.559 143.519 17.959 144.319 17.495C145.119 17.031 145.991 16.799 146.935 16.799Z" fill="currentColor"/>
</g>
<defs>
<clipPath id="clip0_1363_2821">
<rect width="44" height="44" fill="currentColor" transform="translate(0 0.334961)"/>
</clipPath>
</defs>
</svg>
