<svg width="42" height="42" viewBox="0 0 42 42" fill="none" xmlns="http://www.w3.org/2000/svg">
<circle opacity="0.2" cx="20.6746" cy="20.7891" r="20" stroke="white"/>
<rect opacity="0.01" x="8.67456" y="8.78906" width="24" height="24" fill="white"/>
<path d="M29.3179 14.5692L30.9599 12.9915V12.646H25.2732L21.2206 22.7817L16.6107 12.646H10.6482V12.9915L12.5661 15.3112C12.7536 15.4826 12.85 15.7344 12.8259 15.9862V25.1014C12.8849 25.4308 12.7804 25.7656 12.55 26.004L10.3884 28.6371V28.9772H16.5116V28.6317L14.3527 26.0067C14.1182 25.7687 14.0083 25.4348 14.0554 25.104V17.2183L19.4313 28.9826H20.0554L24.6786 17.2183V26.5906C24.6786 26.8371 24.6786 26.888 24.5179 27.0514L22.8545 28.6665V29.0121H30.9224V28.6665L29.3179 27.0889C29.1786 26.9817 29.1063 26.8022 29.1357 26.6281V15.0299C29.1075 14.8546 29.1774 14.6778 29.3179 14.5692Z" fill="white"/>
</svg>
