<svg width="149" height="36" viewBox="0 0 149 36" fill="none" xmlns="http://www.w3.org/2000/svg">
<g clip-path="url(#clip2_1363_2696)">
<path d="M48.2246 24.6946C46.6704 24.6946 45.3971 24.3289 44.4045 23.5975C43.4249 22.8531 42.9352 21.7952 42.9352 20.4239C42.9352 20.1365 42.9678 19.7839 43.0331 19.366C43.2029 18.4257 43.4445 17.2959 43.758 15.9769C44.6461 12.3853 46.9382 10.5895 50.6342 10.5895C51.6399 10.5895 52.541 10.7593 53.3377 11.0988C54.1344 11.4253 54.7613 11.9216 55.2184 12.5877C55.6755 13.2407 55.9041 14.0243 55.9041 14.9386C55.9041 15.2128 55.8714 15.5589 55.8062 15.9769C55.6102 17.1392 55.3751 18.2689 55.1009 19.366C54.6437 21.1553 53.8536 22.494 52.7304 23.382C51.6072 24.2571 50.1053 24.6946 48.2246 24.6946ZM48.4989 21.8736C49.2303 21.8736 49.8506 21.6581 50.36 21.2271C50.8824 20.7961 51.2546 20.1365 51.4766 19.2484C51.777 18.0208 52.0055 16.9498 52.1623 16.0356C52.2146 15.7614 52.2407 15.4806 52.2407 15.1932C52.2407 14.0047 51.6203 13.4105 50.3796 13.4105C49.6482 13.4105 49.0213 13.626 48.4989 14.057C47.9895 14.488 47.6238 15.1475 47.4018 16.0356C47.1667 16.9107 46.9316 17.9816 46.6966 19.2484C46.6443 19.5097 46.6182 19.7839 46.6182 20.0712C46.6182 21.2728 47.2451 21.8736 48.4989 21.8736Z" fill="black"/>
<path d="M57.8919 24.4987C57.7482 24.4987 57.6372 24.453 57.5589 24.3616C57.4936 24.257 57.474 24.1395 57.5001 24.0089L60.2036 11.2751C60.2297 11.1314 60.3015 11.0139 60.4191 10.9225C60.5366 10.8311 60.6607 10.7853 60.7913 10.7853H66.0023C67.452 10.7853 68.6144 11.0857 69.4894 11.6865C70.3775 12.2873 70.8216 13.1558 70.8216 14.292C70.8216 14.6185 70.7825 14.9581 70.7041 15.3107C70.3775 16.8127 69.718 17.9228 68.7254 18.6411C67.7459 19.3594 66.4007 19.7186 64.6898 19.7186H62.0451L61.1439 24.0089C61.1178 24.1526 61.046 24.2701 60.9284 24.3616C60.8109 24.453 60.6868 24.4987 60.5562 24.4987H57.8919ZM64.8269 17.0151C65.3755 17.0151 65.8522 16.8649 66.257 16.5645C66.675 16.2641 66.9492 15.8332 67.0798 15.2716C67.119 15.0495 67.1386 14.8536 67.1386 14.6838C67.1386 14.3051 67.0276 14.0178 66.8056 13.8219C66.5836 13.6129 66.2048 13.5084 65.6693 13.5084H63.3185L62.574 17.0151H64.8269Z" fill="black"/>
<path d="M75.2357 24.4987C75.092 24.4987 74.981 24.453 74.9026 24.3616C74.8243 24.257 74.7981 24.1395 74.8242 24.0089L76.9988 13.861H73.5117C73.368 13.861 73.257 13.8153 73.1786 13.7239C73.1133 13.6194 73.0938 13.5019 73.1199 13.3713L73.5705 11.2751C73.5966 11.1314 73.6684 11.0139 73.7859 10.9225C73.9035 10.8311 74.0276 10.7853 74.1582 10.7853H84.6979C84.8415 10.7853 84.9525 10.8311 85.0309 10.9225C85.0831 11.0008 85.1093 11.0792 85.1093 11.1576C85.1093 11.1967 85.1027 11.2359 85.0896 11.2751L84.6391 13.3713C84.6129 13.5149 84.5412 13.6325 84.4235 13.7239C84.3191 13.8153 84.195 13.861 84.0514 13.861H80.5838L78.4093 24.0089C78.3832 24.1526 78.3114 24.2701 78.1938 24.3616C78.0762 24.453 77.9522 24.4987 77.8216 24.4987H75.2357Z" fill="black"/>
<path d="M85.6089 24.4987C85.4653 24.4987 85.3543 24.453 85.276 24.3616C85.1975 24.257 85.1714 24.1395 85.1975 24.0089L87.9207 11.2751C87.9468 11.1314 88.0186 11.0139 88.1362 10.9225C88.2537 10.8311 88.3777 10.7853 88.5084 10.7853H91.1531C91.2967 10.7853 91.4078 10.8311 91.4861 10.9225C91.5384 11.0008 91.5645 11.0792 91.5645 11.1576C91.5645 11.1967 91.5579 11.2359 91.5449 11.2751L88.8414 24.0089C88.8152 24.1526 88.7435 24.2701 88.6259 24.3616C88.5084 24.453 88.3843 24.4987 88.2537 24.4987H85.6089Z" fill="black"/>
<path d="M93.0685 24.4987C92.9249 24.4987 92.8138 24.453 92.7355 24.3616C92.6571 24.2701 92.631 24.1526 92.6571 24.0089L95.3606 11.2751C95.3867 11.1314 95.4585 11.0139 95.5761 10.9225C95.6937 10.8311 95.8243 10.7853 95.9679 10.7853H98.0837C98.3972 10.7853 98.5995 10.929 98.691 11.2163L100.826 17.3873L105.587 11.2163C105.652 11.1118 105.744 11.0139 105.861 10.9225C105.992 10.8311 106.148 10.7853 106.331 10.7853H108.467C108.61 10.7853 108.721 10.8311 108.8 10.9225C108.852 11.0008 108.878 11.0792 108.878 11.1576C108.878 11.1967 108.872 11.2359 108.858 11.2751L106.155 24.0089C106.129 24.1526 106.057 24.2701 105.939 24.3616C105.822 24.453 105.698 24.4987 105.567 24.4987H103.197C103.053 24.4987 102.942 24.453 102.864 24.3616C102.798 24.257 102.779 24.1395 102.805 24.0089L104.333 16.78L101.336 20.7569C101.205 20.9006 101.081 21.0115 100.963 21.0899C100.846 21.1683 100.709 21.2075 100.552 21.2075H99.5334C99.2591 21.2075 99.0698 21.0573 98.9653 20.7569L97.5744 16.6037L96.0071 24.0089C95.981 24.1526 95.9091 24.2701 95.7916 24.3616C95.674 24.453 95.55 24.4987 95.4194 24.4987H93.0685Z" fill="black"/>
<path d="M110.361 24.4987C110.217 24.4987 110.106 24.453 110.028 24.3616C109.949 24.257 109.923 24.1395 109.949 24.0089L112.672 11.2751C112.698 11.1314 112.77 11.0139 112.888 10.9225C113.005 10.8311 113.129 10.7853 113.26 10.7853H115.905C116.049 10.7853 116.16 10.8311 116.238 10.9225C116.29 11.0008 116.316 11.0792 116.316 11.1576C116.316 11.1967 116.31 11.2359 116.296 11.2751L113.593 24.0089C113.567 24.1526 113.495 24.2701 113.377 24.3616C113.26 24.453 113.136 24.4987 113.005 24.4987H110.361Z" fill="black"/>
<path d="M122.659 24.6946C121.51 24.6946 120.524 24.5379 119.701 24.2245C118.891 23.911 118.277 23.4931 117.859 22.9707C117.454 22.4482 117.252 21.8671 117.252 21.2271C117.252 21.1226 117.265 20.9659 117.291 20.757C117.317 20.6394 117.37 20.5414 117.448 20.4631C117.54 20.3847 117.644 20.3456 117.762 20.3456H120.269C120.426 20.3456 120.543 20.3717 120.621 20.4239C120.713 20.4762 120.804 20.5676 120.896 20.6982C120.987 21.0377 121.196 21.3185 121.523 21.5405C121.862 21.7626 122.326 21.8736 122.913 21.8736C123.658 21.8736 124.259 21.756 124.716 21.521C125.173 21.2859 125.448 20.9659 125.539 20.561C125.552 20.5088 125.558 20.4304 125.558 20.3259C125.558 19.9995 125.356 19.7448 124.951 19.5619C124.546 19.366 123.802 19.1375 122.718 18.8763C121.451 18.602 120.491 18.1906 119.838 17.6421C119.185 17.0805 118.859 16.3491 118.859 15.4479C118.859 15.1345 118.898 14.8145 118.976 14.488C119.237 13.2734 119.884 12.32 120.915 11.6278C121.96 10.9356 123.305 10.5895 124.951 10.5895C125.944 10.5895 126.826 10.7658 127.596 11.1184C128.366 11.4711 128.961 11.9216 129.379 12.4702C129.81 13.0056 130.025 13.5411 130.025 14.0766C130.025 14.2333 130.019 14.3443 130.005 14.4096C129.979 14.5272 129.921 14.6251 129.829 14.7035C129.751 14.7818 129.653 14.821 129.535 14.821H126.91C126.623 14.821 126.427 14.71 126.323 14.488C126.31 14.1876 126.152 13.9329 125.852 13.724C125.552 13.515 125.16 13.4105 124.677 13.4105C124.102 13.4105 123.626 13.515 123.247 13.724C122.881 13.9329 122.652 14.2398 122.561 14.6447C122.548 14.71 122.541 14.7949 122.541 14.8994C122.541 15.2128 122.724 15.474 123.09 15.683C123.469 15.8789 124.129 16.0813 125.069 16.2903C126.532 16.5776 127.596 16.989 128.262 17.5245C128.941 18.06 129.28 18.7717 129.28 19.6598C129.28 19.9603 129.241 20.2868 129.163 20.6394C128.876 21.9715 128.177 22.9838 127.067 23.6759C125.97 24.355 124.501 24.6946 122.659 24.6946Z" fill="black"/>
<path d="M131.88 24.4987C131.736 24.4987 131.625 24.453 131.546 24.3616C131.468 24.2701 131.442 24.1526 131.468 24.0089L134.172 11.2751C134.197 11.1314 134.269 11.0139 134.387 10.9225C134.505 10.8311 134.635 10.7853 134.779 10.7853H136.894C137.208 10.7853 137.411 10.929 137.502 11.2163L139.638 17.3873L144.398 11.2163C144.463 11.1118 144.555 11.0139 144.672 10.9225C144.803 10.8311 144.959 10.7853 145.142 10.7853H147.278C147.422 10.7853 147.533 10.8311 147.611 10.9225C147.663 11.0008 147.689 11.0792 147.689 11.1576C147.689 11.1967 147.683 11.2359 147.669 11.2751L144.966 24.0089C144.94 24.1526 144.868 24.2701 144.75 24.3616C144.633 24.453 144.509 24.4987 144.378 24.4987H142.008C141.864 24.4987 141.753 24.453 141.675 24.3616C141.609 24.257 141.59 24.1395 141.616 24.0089L143.144 16.78L140.147 20.7569C140.016 20.9006 139.892 21.0115 139.775 21.0899C139.657 21.1683 139.52 21.2075 139.363 21.2075H138.344C138.07 21.2075 137.881 21.0573 137.777 20.7569L136.385 16.6037L134.818 24.0089C134.792 24.1526 134.72 24.2701 134.602 24.3616C134.485 24.453 134.361 24.4987 134.23 24.4987H131.88Z" fill="black"/>
</g>
<g clip-path="url(#clip3_1363_2696)">
<path fill-rule="evenodd" clip-rule="evenodd" d="M17.708 35.6128C27.4353 35.6128 35.3208 27.7273 35.3208 18C35.3208 8.27272 27.4353 0.387207 17.708 0.387207C7.98073 0.387207 0.0952148 8.27272 0.0952148 18C0.0952148 27.7273 7.98073 35.6128 17.708 35.6128ZM12.5744 22.6812C11.5257 22.6812 10.6665 22.4344 9.99671 21.9409C9.33574 21.4386 9.00525 20.7248 9.00525 19.7994C9.00525 19.6055 9.0273 19.3675 9.07133 19.0855C9.18596 18.451 9.34898 17.6887 9.56048 16.7986C10.1597 14.3751 11.7064 13.1633 14.2005 13.1633C14.879 13.1633 15.4871 13.2779 16.0247 13.507C16.5623 13.7273 16.9853 14.0622 17.2938 14.5117C17.6022 14.9523 17.7565 15.4811 17.7565 16.098C17.7565 16.283 17.7344 16.5166 17.6903 16.7986C17.5582 17.5829 17.3995 18.3453 17.2144 19.0855C16.906 20.2929 16.3728 21.1962 15.6149 21.7955C14.857 22.386 13.8436 22.6812 12.5744 22.6812ZM12.7595 20.7776C13.2531 20.7776 13.6717 20.6322 14.0154 20.3414C14.3679 20.0506 14.6191 19.6055 14.7689 19.0063C14.9715 18.1778 15.1258 17.4551 15.2316 16.8383C15.2668 16.6532 15.2844 16.4638 15.2844 16.2698C15.2844 15.4679 14.8658 15.0669 14.0286 15.0669C13.535 15.0669 13.1121 15.2123 12.7595 15.5031C12.4159 15.794 12.1691 16.239 12.0193 16.8383C11.8606 17.4287 11.702 18.1514 11.5434 19.0063C11.5081 19.1825 11.4905 19.3675 11.4905 19.5614C11.4905 20.3722 11.9135 20.7776 12.7595 20.7776ZM18.1386 22.4564C18.1915 22.5182 18.2664 22.549 18.3634 22.549H20.1612C20.2493 22.549 20.3331 22.5182 20.4124 22.4564C20.4916 22.3947 20.5401 22.3155 20.5578 22.2185L21.1659 19.3235H22.9505C24.1049 19.3235 25.0127 19.0811 25.6737 18.5964C26.3435 18.1117 26.7885 17.3626 27.0088 16.3491C27.0617 16.1112 27.0881 15.882 27.0881 15.6617C27.0881 14.895 26.7885 14.309 26.1892 13.9035C25.5987 13.4982 24.8144 13.2955 23.8362 13.2955H20.3198C20.2317 13.2955 20.148 13.3263 20.0687 13.388C19.9893 13.4497 19.9409 13.529 19.9232 13.626L18.099 22.2185C18.0814 22.3067 18.0945 22.3859 18.1386 22.4564ZM24.008 17.1952C23.7348 17.3978 23.4131 17.4992 23.043 17.4992H21.5228L22.0251 15.133H23.6114C23.9728 15.133 24.2283 15.2034 24.3782 15.3445C24.528 15.4766 24.6029 15.6705 24.6029 15.9261C24.6029 16.0407 24.5896 16.1728 24.5632 16.3227C24.4751 16.7016 24.29 16.9925 24.008 17.1952Z" fill="black"/>
</g>
<defs>
<clipPath id="clip2_1363_2696">
<rect width="104.754" height="14.6655" fill="black" transform="translate(42.9352 10.5895)"/>
</clipPath>
<clipPath id="clip3_1363_2696">
<rect width="35.2256" height="35.2256" fill="black" transform="translate(0.0952148 0.387207)"/>
</clipPath>
</defs>
</svg>
