<svg width="149" height="32" viewBox="0 0 149 32" fill="none" xmlns="http://www.w3.org/2000/svg">
<path d="M47.2407 29.9367V9.76593H50.2418L50.5276 11.394H50.6706C51.528 10.2789 52.9851 9.4801 55.014 9.4801C58.7271 9.4801 61.7001 12.5092 61.7001 16.9932C61.7001 21.4769 58.7297 24.506 55.014 24.506C53.0133 24.506 51.6147 23.6766 50.8722 22.735H50.7292V29.9341H47.2433L47.2407 29.9367ZM58.2116 16.9956C58.2116 14.3671 56.5248 12.7109 54.4678 12.7109C52.4109 12.7109 50.7241 14.3671 50.7241 16.9956C50.7241 19.6242 52.4109 21.2804 54.4678 21.2804C56.5248 21.2804 58.2116 19.6242 58.2116 16.9956Z" fill="white"/>
<path d="M63.4697 16.9959C63.4697 12.6243 66.6112 9.48291 70.8118 9.48291C75.0122 9.48291 78.1537 12.6243 78.1537 16.9959C78.1537 21.3674 75.0122 24.5089 70.8118 24.5089C66.6112 24.5089 63.4697 21.3368 63.4697 16.9959ZM74.6397 16.9959C74.6397 14.4235 72.9248 12.7112 70.8118 12.7112C68.6987 12.7112 66.9557 14.4261 66.9557 16.9959C66.9557 19.5658 68.6987 21.2526 70.8118 21.2526C72.9248 21.2526 74.6397 19.5682 74.6397 16.9959Z" fill="white"/>
<path d="M80.6779 24.2228V4.22565H84.1638V24.2253H80.6779V24.2228Z" fill="white"/>
<path d="M97.106 9.76575H100.819L94.5335 27.336C93.9058 29.079 93.0482 29.9364 90.7898 29.9364H87.4186V26.7082H90.2769C90.7924 26.7082 91.0756 26.4505 91.2492 26.0217L91.5911 25.0801L85.7063 9.76575H89.4194L93.1632 19.795H93.7348L97.106 9.76575Z" fill="white"/>
<path d="M101.486 24.9373H105.028C105.171 25.8791 106.112 27.1652 108.343 27.1652C110.428 27.1652 111.801 25.8509 111.801 23.8502V21.8215H111.658C110.887 22.6507 109.458 23.3934 107.628 23.3934C103.915 23.3934 101.057 20.5351 101.057 16.4214C101.057 12.3077 103.915 9.4801 107.628 9.4801C109.542 9.4801 110.943 10.2508 111.829 11.3379H111.972L112.257 9.76593H115.287V23.8502C115.287 27.6781 112.714 30.2225 108.343 30.2225C103.458 30.2225 101.572 27.0223 101.486 24.9373ZM111.801 16.424C111.801 14.168 110.201 12.5961 108.172 12.5961C106.143 12.5961 104.571 14.168 104.571 16.424C104.571 18.68 106.171 20.2801 108.172 20.2801C110.173 20.2801 111.801 18.7079 111.801 16.424Z" fill="white"/>
<path d="M117.709 16.9959C117.709 12.6243 120.851 9.48291 125.051 9.48291C129.252 9.48291 132.393 12.6243 132.393 16.9959C132.393 21.3674 129.252 24.5089 125.051 24.5089C120.851 24.5089 117.709 21.3368 117.709 16.9959ZM128.879 16.9959C128.879 14.4235 127.164 12.7112 125.051 12.7112C122.938 12.7112 121.195 14.4261 121.195 16.9959C121.195 19.5658 122.938 21.2526 125.051 21.2526C127.164 21.2526 128.879 19.5682 128.879 16.9959Z" fill="white"/>
<path d="M134.82 24.2228V9.76593H137.819L138.104 11.1363H138.247C138.819 10.4805 140.248 9.4801 142.418 9.4801C145.732 9.4801 148.131 11.8789 148.131 15.5359V24.2202H144.645V15.9928C144.645 14.1349 143.331 12.7926 141.532 12.7926C139.733 12.7926 138.303 14.1936 138.303 15.9928V24.2202H134.817L134.82 24.2228Z" fill="white"/>
<path d="M26.9504 22.536L35.5197 17.5878C35.974 17.3249 36.2548 16.8375 36.2548 16.3143V6.41786C36.2548 5.89471 35.974 5.40729 35.5197 5.14443L26.9504 0.196178C26.496 -0.0666681 25.9321 -0.0641145 25.4804 0.196178L16.9109 5.14443C16.4567 5.40729 16.1759 5.89471 16.1759 6.41786V24.1029L10.1661 27.571L4.1562 24.1029V17.1642L10.1661 13.6961L14.1293 15.9851V11.3304L10.901 9.4649C10.6789 9.33731 10.4239 9.2684 10.1661 9.2684C9.90825 9.2684 9.65318 9.33731 9.43115 9.4649L0.86162 14.4131C0.40737 14.676 0.126648 15.1635 0.126648 15.6866V25.5831C0.126648 26.1063 0.40737 26.5936 0.86162 26.8565L9.43115 31.8048C9.88531 32.0651 10.4468 32.0651 10.901 31.8048L19.4705 26.8565C19.9248 26.5936 20.2054 26.1063 20.2054 25.5831V7.89545L20.3126 7.83419L26.2128 4.42733L32.2227 7.89545V14.8343L26.2128 18.3024L22.2546 16.0183V20.6732L25.4778 22.5335C25.9321 22.7938 26.496 22.7938 26.9478 22.5335L26.9504 22.536Z" fill="white"/>
</svg>
