<svg width="366" height="387" viewBox="0 0 366 387" fill="none" xmlns="http://www.w3.org/2000/svg">
<rect x="0.666687" width="365.231" height="387" rx="24" fill="black" fill-opacity="0.2"/>
<path opacity="0.1" d="M232.088 279.501H131.028C117.602 279.501 106.716 268.614 106.716 255.188V178.985C106.716 165.559 117.602 154.673 131.028 154.673H232.27C245.696 154.673 256.582 165.559 256.582 178.985V255.188C256.401 268.614 245.515 279.501 232.088 279.501ZM131.028 167.192C124.497 167.192 119.235 172.453 119.235 178.985V255.188C119.235 261.72 124.497 266.982 131.028 266.982H232.27C238.801 266.982 244.063 261.72 244.063 255.188V178.985C244.063 172.453 238.801 167.192 232.27 167.192H131.028ZM225.194 154.673H212.675C212.675 137.436 198.704 123.466 181.468 123.466C164.231 123.466 150.261 137.436 150.261 154.673H137.742C137.742 130.542 157.518 110.947 181.468 110.947C205.599 110.947 225.194 130.542 225.194 154.673Z" fill="white"/>
<path d="M181.468 245.209C176.206 245.209 172.033 241.036 172.033 235.775V198.399C172.033 193.137 176.206 188.964 181.468 188.964C186.729 188.964 190.902 193.137 190.902 198.399V235.775C190.902 241.036 186.729 245.209 181.468 245.209Z" fill="#1EE0BD"/>
</svg>
