<svg width="172" height="45" viewBox="0 0 172 45" fill="none" xmlns="http://www.w3.org/2000/svg">
<g>
<g clip-path="url(#clip0_1363_2811)">
<path d="M41.1386 8.80893L35.3292 36.2058C34.8906 38.1391 33.7479 38.6203 32.1241 37.7101L23.2718 31.1871L19.0011 35.2956C18.5281 35.7686 18.1334 36.1632 17.2218 36.1632L17.8584 27.1487L34.2636 12.3248C34.9772 11.6896 34.1082 11.3362 33.1553 11.9728L12.8741 24.7438L4.1428 22.0103C2.24393 21.4177 2.20955 20.1114 4.5388 19.1998L38.6897 6.04243C40.2709 5.4498 41.6542 6.39443 41.1386 8.8103V8.80893Z" fill="currentColor"/>
</g>
<path d="M65.608 13.487V16.775H61.144V30.335H57.04V16.775H52.576V13.487H65.608ZM80.2917 23.423C80.2917 23.807 80.2677 24.207 80.2197 24.623H70.9317C70.9957 25.455 71.2597 26.095 71.7237 26.543C72.2037 26.975 72.7877 27.191 73.4757 27.191C74.4997 27.191 75.2117 26.759 75.6117 25.895H79.9797C79.7557 26.775 79.3477 27.567 78.7557 28.271C78.1797 28.975 77.4517 29.527 76.5717 29.927C75.6917 30.327 74.7077 30.527 73.6197 30.527C72.3077 30.527 71.1397 30.247 70.1157 29.687C69.0917 29.127 68.2917 28.327 67.7157 27.287C67.1397 26.247 66.8517 25.031 66.8517 23.639C66.8517 22.247 67.1317 21.031 67.6917 19.991C68.2677 18.951 69.0677 18.151 70.0917 17.591C71.1157 17.031 72.2917 16.751 73.6197 16.751C74.9157 16.751 76.0677 17.023 77.0757 17.567C78.0837 18.111 78.8677 18.887 79.4277 19.895C80.0037 20.903 80.2917 22.079 80.2917 23.423ZM76.0917 22.343C76.0917 21.639 75.8517 21.079 75.3717 20.663C74.8917 20.247 74.2917 20.039 73.5717 20.039C72.8837 20.039 72.2997 20.239 71.8197 20.639C71.3557 21.039 71.0677 21.607 70.9557 22.343H76.0917ZM86.5608 12.575V30.335H82.4568V12.575H86.5608ZM102.159 23.423C102.159 23.807 102.135 24.207 102.087 24.623H92.7989C92.8629 25.455 93.1269 26.095 93.5909 26.543C94.0709 26.975 94.6549 27.191 95.3429 27.191C96.3669 27.191 97.0789 26.759 97.4789 25.895H101.847C101.623 26.775 101.215 27.567 100.623 28.271C100.047 28.975 99.3189 29.527 98.4389 29.927C97.5589 30.327 96.5749 30.527 95.4869 30.527C94.1749 30.527 93.0069 30.247 91.9829 29.687C90.9589 29.127 90.1589 28.327 89.5829 27.287C89.0069 26.247 88.7189 25.031 88.7189 23.639C88.7189 22.247 88.9989 21.031 89.5589 19.991C90.1349 18.951 90.9349 18.151 91.9589 17.591C92.9829 17.031 94.1589 16.751 95.4869 16.751C96.7829 16.751 97.9349 17.023 98.9429 17.567C99.9509 18.111 100.735 18.887 101.295 19.895C101.871 20.903 102.159 22.079 102.159 23.423ZM97.9589 22.343C97.9589 21.639 97.7189 21.079 97.2389 20.663C96.7589 20.247 96.1589 20.039 95.4389 20.039C94.7509 20.039 94.1669 20.239 93.6869 20.639C93.2229 21.039 92.9349 21.607 92.8229 22.343H97.9589ZM109.412 16.751C110.356 16.751 111.18 16.943 111.884 17.327C112.604 17.711 113.156 18.215 113.54 18.839V16.943H117.644V30.311C117.644 31.543 117.396 32.655 116.9 33.647C116.42 34.655 115.676 35.455 114.668 36.047C113.676 36.639 112.436 36.935 110.948 36.935C108.964 36.935 107.356 36.463 106.124 35.519C104.892 34.591 104.188 33.327 104.012 31.727H108.068C108.196 32.239 108.5 32.639 108.98 32.927C109.46 33.231 110.052 33.383 110.756 33.383C111.604 33.383 112.276 33.135 112.772 32.639C113.284 32.159 113.54 31.383 113.54 30.311V28.415C113.14 29.039 112.588 29.551 111.884 29.951C111.18 30.335 110.356 30.527 109.412 30.527C108.308 30.527 107.308 30.247 106.412 29.687C105.516 29.111 104.804 28.303 104.276 27.263C103.764 26.207 103.508 24.991 103.508 23.615C103.508 22.239 103.764 21.031 104.276 19.991C104.804 18.951 105.516 18.151 106.412 17.591C107.308 17.031 108.308 16.751 109.412 16.751ZM113.54 23.639C113.54 22.615 113.252 21.807 112.676 21.215C112.116 20.623 111.428 20.327 110.612 20.327C109.796 20.327 109.1 20.623 108.524 21.215C107.964 21.791 107.684 22.591 107.684 23.615C107.684 24.639 107.964 25.455 108.524 26.063C109.1 26.655 109.796 26.951 110.612 26.951C111.428 26.951 112.116 26.655 112.676 26.063C113.252 25.471 113.54 24.663 113.54 23.639ZM124.717 19.175C125.197 18.439 125.797 17.863 126.517 17.447C127.237 17.015 128.037 16.799 128.917 16.799V21.143H127.789C126.765 21.143 125.997 21.367 125.485 21.815C124.973 22.247 124.717 23.015 124.717 24.119V30.335H120.613V16.943H124.717V19.175ZM130.063 23.615C130.063 22.239 130.319 21.031 130.831 19.991C131.359 18.951 132.071 18.151 132.967 17.591C133.863 17.031 134.863 16.751 135.967 16.751C136.911 16.751 137.735 16.943 138.439 17.327C139.159 17.711 139.711 18.215 140.095 18.839V16.943H144.199V30.335H140.095V28.439C139.695 29.063 139.135 29.567 138.415 29.951C137.711 30.335 136.887 30.527 135.943 30.527C134.855 30.527 133.863 30.247 132.967 29.687C132.071 29.111 131.359 28.303 130.831 27.263C130.319 26.207 130.063 24.991 130.063 23.615ZM140.095 23.639C140.095 22.615 139.807 21.807 139.231 21.215C138.671 20.623 137.983 20.327 137.167 20.327C136.351 20.327 135.655 20.623 135.079 21.215C134.519 21.791 134.239 22.591 134.239 23.615C134.239 24.639 134.519 25.455 135.079 26.063C135.655 26.655 136.351 26.951 137.167 26.951C137.983 26.951 138.671 26.655 139.231 26.063C139.807 25.471 140.095 24.663 140.095 23.639ZM164.256 16.799C165.92 16.799 167.24 17.303 168.216 18.311C169.208 19.319 169.704 20.719 169.704 22.511V30.335H165.624V23.063C165.624 22.199 165.392 21.535 164.928 21.071C164.48 20.591 163.856 20.351 163.056 20.351C162.256 20.351 161.624 20.591 161.16 21.071C160.712 21.535 160.488 22.199 160.488 23.063V30.335H156.408V23.063C156.408 22.199 156.176 21.535 155.712 21.071C155.264 20.591 154.64 20.351 153.84 20.351C153.04 20.351 152.408 20.591 151.944 21.071C151.496 21.535 151.272 22.199 151.272 23.063V30.335H147.168V16.943H151.272V18.623C151.688 18.063 152.232 17.623 152.904 17.303C153.576 16.967 154.336 16.799 155.184 16.799C156.192 16.799 157.088 17.015 157.872 17.447C158.672 17.879 159.296 18.495 159.744 19.295C160.208 18.559 160.84 17.959 161.64 17.495C162.44 17.031 163.312 16.799 164.256 16.799Z" fill="currentColor"/>
</g>
<defs>
<clipPath id="clip0_1363_2811">
<rect width="44" height="44" fill="currentColor" transform="translate(0 0.334961)"/>
</clipPath>
</defs>
</svg>
