<svg width="42" height="42" viewBox="0 0 42 42" fill="none" xmlns="http://www.w3.org/2000/svg">
<rect opacity="0.01" x="8.67456" y="8.78906" width="24" height="24" fill="black"/>
<path d="M32.0216 13.7524C31.3792 14.6932 30.6016 15.4947 29.689 16.1567C29.6988 16.2906 29.7037 16.4921 29.7037 16.7611C29.7037 18.0089 29.5213 19.2537 29.1566 20.4954C28.7918 21.7373 28.2378 22.9293 27.4948 24.0715C26.7516 25.2137 25.8666 26.224 24.8398 27.1021C23.8129 27.9804 22.5748 28.6811 21.1255 29.2043C19.6761 29.7275 18.1266 29.9893 16.477 29.9893C13.8768 29.9893 11.4969 29.2934 9.33765 27.9018C9.67292 27.9399 10.047 27.9589 10.4597 27.9589C12.619 27.9589 14.5432 27.2969 16.232 25.9728C15.2248 25.9532 14.3226 25.6437 13.5255 25.0442C12.7284 24.445 12.1812 23.6797 11.8839 22.7488C12.2007 22.7966 12.4937 22.8206 12.7627 22.8206C13.1755 22.8206 13.5832 22.7677 13.9861 22.662C12.9114 22.441 12.0214 21.9061 11.3164 21.0574C10.6114 20.2087 10.2589 19.223 10.2589 18.1004V18.0432C10.9111 18.408 11.6119 18.6046 12.3611 18.6329C11.7274 18.2104 11.2236 17.6589 10.8503 16.9784C10.4768 16.298 10.2895 15.5592 10.2884 14.7621C10.2884 13.917 10.4996 13.1353 10.9222 12.4167C12.0829 13.8464 13.496 14.9905 15.1616 15.8491C16.8271 16.7076 18.6094 17.1848 20.5083 17.2806C20.4321 16.9158 20.3941 16.5608 20.3941 16.2157C20.3941 14.9297 20.8473 13.8335 21.7537 12.927C22.6602 12.0206 23.7565 11.5674 25.0425 11.5674C26.3862 11.5674 27.5186 12.0569 28.4399 13.0357C29.4864 12.8343 30.4703 12.4603 31.3913 11.9137C31.0364 13.0167 30.3554 13.871 29.3482 14.4765C30.2411 14.3807 31.1335 14.1406 32.0251 13.7561L32.0216 13.7524Z" fill="white"/>
<circle opacity="0.2" cx="20.6746" cy="20.7891" r="20" stroke="white"/>
</svg>
