<svg width="56" height="57" viewBox="0 0 56 57" fill="none" xmlns="http://www.w3.org/2000/svg">
<g clip-path="url(#clip0_1356_3094)">
<g clip-path="url(#clip1_1356_3094)">
<path d="M28 56.3325C33.5379 56.3325 38.9514 54.6903 43.556 51.6137C48.1605 48.537 51.7494 44.164 53.8686 39.0476C55.9878 33.9313 56.5424 28.3015 55.462 22.87C54.3816 17.4386 51.7149 12.4494 47.799 8.53354C43.8831 4.61767 38.894 1.95093 33.4625 0.870544C28.031 -0.209841 22.4012 0.34465 17.2849 2.4639C12.1685 4.58316 7.79556 8.17198 4.71885 12.7766C1.64217 17.3811 0 22.7947 0 28.3325C0 35.7586 2.94999 42.8805 8.20102 48.1315C13.452 53.3825 20.5739 56.3325 28 56.3325Z" fill="#2775C9"/>
<path fill-rule="evenodd" clip-rule="evenodd" d="M22.1614 44.7129C18.861 43.5078 16.011 41.3173 13.9973 38.4382C11.9835 35.5591 10.9035 32.1305 10.9035 28.617C10.9035 25.1036 11.9835 21.6751 13.9973 18.796C16.011 15.9168 18.861 13.7264 22.1614 12.5212C22.3729 12.4283 22.5542 12.2779 22.6845 12.087C22.8147 11.8961 22.8888 11.6726 22.8982 11.4417V9.84235C22.9119 9.70071 22.8881 9.55797 22.8292 9.42847C22.7703 9.29897 22.6784 9.1872 22.5626 9.10443C22.4469 9.02165 22.3114 8.97085 22.1698 8.95696C22.0282 8.94314 21.8854 8.96682 21.7558 9.02556C17.5997 10.3502 13.9725 12.9622 11.3986 16.4841C8.82473 20.0059 7.4375 24.2549 7.4375 28.617C7.4375 32.9792 8.82473 37.2283 11.3986 40.7501C13.9725 44.2719 17.5997 46.8839 21.7558 48.2085C21.8854 48.2673 22.0282 48.291 22.1698 48.2771C22.3114 48.2633 22.4469 48.2124 22.5626 48.1297C22.6784 48.0469 22.7703 47.9352 22.8292 47.8057C22.8881 47.6761 22.9119 47.5334 22.8982 47.3917V45.7925C22.8888 45.5616 22.8147 45.3379 22.6845 45.1471C22.5542 44.9563 22.3729 44.8058 22.1614 44.7129ZM35.5503 32.6895C35.5503 28.6913 33.1171 27.3433 28.4105 26.6979C24.932 26.1952 24.2637 25.3784 24.2637 23.7563C24.2637 22.1341 25.4404 21.1231 27.6908 21.1231C29.7414 21.1231 30.9237 21.8371 31.4092 23.4878C31.4607 23.6685 31.5692 23.8278 31.7183 23.9419C31.8676 24.0561 32.0496 24.1192 32.2374 24.1218H34.0366C34.1542 24.1243 34.2708 24.1008 34.3782 24.053C34.4856 24.0053 34.5811 23.9344 34.658 23.8455C34.7349 23.7566 34.7913 23.6518 34.8231 23.5387C34.8549 23.4255 34.8613 23.3067 34.842 23.1908C34.2708 20.5805 32.5116 19.0098 29.7528 18.5185V15.7654C29.7528 15.5382 29.6625 15.3203 29.5018 15.1597C29.3412 14.9989 29.1233 14.9087 28.896 14.9087H27.1825C26.9552 14.9087 26.7373 14.9989 26.5767 15.1597C26.416 15.3203 26.3257 15.5382 26.3257 15.7654V18.4214C22.8986 18.9012 20.7338 21.1631 20.7338 24.0647C20.7338 27.8173 23.0186 29.2739 27.7936 29.9193C31.0437 30.4505 31.9689 31.1531 31.9689 32.998C31.9689 34.8429 30.3982 36.0824 28.1821 36.0824C25.1947 36.0824 24.1838 34.7744 23.8468 33.078C23.8076 32.8833 23.7029 32.708 23.5501 32.5811C23.3973 32.4543 23.2057 32.3837 23.0071 32.3811H21.0537C20.9372 32.3804 20.8218 32.4051 20.7159 32.4536C20.6099 32.5021 20.5157 32.5732 20.4401 32.6619C20.3645 32.7506 20.3092 32.8547 20.278 32.9671C20.2469 33.0794 20.2406 33.1971 20.2597 33.3121C20.7567 36.1681 22.5902 38.2585 26.3257 38.7612V41.4686C26.3257 41.6958 26.416 41.9138 26.5767 42.0744C26.7373 42.2351 26.9552 42.3254 27.1825 42.3254H28.896C29.1233 42.3254 29.3412 42.2351 29.5018 42.0744C29.6625 41.9138 29.7528 41.6958 29.7528 41.4686V38.7612C33.2941 38.2014 35.5503 35.7568 35.5503 32.6895ZM33.9075 8.95696C34.0491 8.94314 34.1919 8.96682 34.3215 9.02556C38.4776 10.3502 42.1048 12.9622 44.6787 16.4841C47.2526 20.0059 48.6398 24.2549 48.6398 28.617C48.6398 32.9792 47.2526 37.2283 44.6787 40.7501C42.1048 44.2719 38.4776 46.8839 34.3215 48.2085C34.1919 48.2673 34.0491 48.291 33.9075 48.2771C33.7659 48.2633 33.6304 48.2124 33.5147 48.1297C33.3989 48.0469 33.307 47.9352 33.2481 47.8057C33.1892 47.6761 33.1654 47.5334 33.1791 47.3917V45.7925C33.1767 45.5587 33.2461 45.33 33.3779 45.1369C33.5096 44.9438 33.6974 44.7959 33.9159 44.7129C37.2163 43.5078 40.0664 41.3173 42.0801 38.4382C44.0938 35.5591 45.1738 32.1305 45.1738 28.617C45.1738 25.1036 44.0938 21.6751 42.0801 18.796C40.0664 15.9168 37.2163 13.7264 33.9159 12.5212C33.7044 12.4283 33.5231 12.2779 33.3928 12.087C33.2625 11.8961 33.1885 11.6726 33.1791 11.4417V9.84235C33.1654 9.70071 33.1892 9.55797 33.2481 9.42847C33.307 9.29897 33.3989 9.1872 33.5147 9.10443C33.6304 9.02165 33.7659 8.97085 33.9075 8.95696Z" fill="white"/>
</g>
</g>
<defs>
<clipPath id="clip0_1356_3094">
<rect width="56" height="56" fill="white" transform="translate(0 0.33252)"/>
</clipPath>
<clipPath id="clip1_1356_3094">
<rect width="56" height="56" fill="white" transform="translate(0 0.33252)"/>
</clipPath>
</defs>
</svg>
