<svg width="56" height="57" viewBox="0 0 56 57" fill="none" xmlns="http://www.w3.org/2000/svg">
<g clip-path="url(#clip0_1356_3088)">
<g clip-path="url(#clip1_1356_3088)">
<path d="M28 56.3325C33.5379 56.3325 38.9514 54.6903 43.556 51.6137C48.1605 48.537 51.7494 44.164 53.8686 39.0476C55.9879 33.9313 56.5424 28.3015 55.462 22.87C54.3816 17.4385 51.7149 12.4494 47.799 8.53354C43.8831 4.61767 38.894 1.95093 33.4626 0.870544C28.031 -0.209841 22.4012 0.34465 17.2849 2.4639C12.1686 4.58316 7.79555 8.17198 4.71885 12.7766C1.64218 17.3811 0 22.7947 0 28.3325C0 35.7586 2.95 42.8805 8.20101 48.1315C13.452 53.3825 20.5739 56.3325 28 56.3325Z" fill="#22A079"/>
<path d="M31.3836 30.3036V30.2993C31.2008 30.3121 30.257 30.3673 28.1569 30.3673C26.4777 30.3673 25.3001 30.3206 24.8835 30.2993V30.3036C18.4259 30.0188 13.6092 28.8964 13.6092 27.5488C13.6092 26.2054 18.4301 25.0789 24.8835 24.794V29.1855C25.3043 29.2153 26.5159 29.2876 28.1867 29.2876C30.1932 29.2876 31.1965 29.2025 31.3836 29.1855V24.7983C37.8285 25.0873 42.6323 26.2097 42.6323 27.5531C42.6323 28.8964 37.8242 30.0188 31.3836 30.3079V30.3036ZM31.3836 24.3434V20.4153H40.3749V14.4253H15.8964V20.4153H24.8877V24.3434C17.5798 24.6792 12.0873 26.1247 12.0873 27.8592C12.0873 29.5937 17.5841 31.039 24.8877 31.3791V43.9713H31.3878V31.3791C38.683 31.0433 44.167 29.5979 44.167 27.8634C44.167 26.1332 38.683 24.6835 31.3878 24.3476" fill="#FEFEFE"/>
</g>
</g>
<defs>
<clipPath id="clip0_1356_3088">
<rect width="56" height="56" fill="white" transform="translate(0 0.33252)"/>
</clipPath>
<clipPath id="clip1_1356_3088">
<rect width="56" height="56" fill="white" transform="translate(0 0.33252)"/>
</clipPath>
</defs>
</svg>
