<svg width="121" height="121" viewBox="0 0 121 121" fill="none" xmlns="http://www.w3.org/2000/svg">
<circle cx="42.3457" cy="44.3658" r="23.8485" fill="#1EE0BD"/>
<path d="M70.4612 46.5945C68.5096 46.0375 66.449 45.7393 64.3186 45.7393C51.9824 45.7393 41.9819 55.7397 41.9819 68.0759C41.9819 80.4121 51.9824 90.4126 64.3186 90.4126C76.6548 90.4126 86.6553 80.4121 86.6553 68.0759C86.6553 63.3374 85.1798 58.9435 82.6631 55.3286" stroke="white" stroke-width="1.5" stroke-linecap="round" stroke-linejoin="round"/>
<path d="M57.9259 36.6485C43.28 39.6116 32.254 52.556 32.254 68.0758C32.254 85.7846 46.6098 100.14 64.3186 100.14C82.0274 100.14 96.3832 85.7846 96.3832 68.0758C96.3832 60.5705 93.8046 53.6675 89.4851 48.2043M66.8749 36.1116C69.7511 36.3384 72.5206 36.9448 75.1332 37.8807M85.3939 43.9097C86.2669 44.6716 87.0981 45.48 87.8838 46.3311" stroke="white" stroke-width="1.5" stroke-linecap="round" stroke-linejoin="round"/>
<path d="M58.6068 32.5643V21.2405H66.0222V32.5643H70.1128L62.214 40.7811L53.9972 32.5643H58.6068Z" stroke="white" stroke-width="1.5" stroke-linejoin="round"/>
<path d="M75.1505 46.4892V31.0107H85.2866V46.4892H90.878L80.0812 57.7208L68.8496 46.4892H75.1505Z" stroke="white" stroke-width="1.5" stroke-linejoin="round"/>
<path d="M94.2984 34.6837V26.281H99.801V34.6837H102.836L96.9752 40.781L90.8779 34.6837H94.2984Z" stroke="white" stroke-width="1.5" stroke-linejoin="round"/>
<path d="M66.3381 78.481C65.8368 78.481 65.4304 78.0746 65.4304 77.5733V58.5781C65.4304 58.0768 65.8368 57.6704 66.3381 57.6704C66.8394 57.6704 67.2458 58.0768 67.2458 58.5781V77.5733C67.2458 78.0746 66.8394 78.481 66.3381 78.481ZM66.1167 76.0457C64.9064 76.0457 63.7478 75.876 62.6409 75.5365C61.9088 75.3023 61.2768 75.026 60.7448 74.7078C60.2848 74.4327 60.1566 73.8488 60.3747 73.3592C60.6934 72.644 61.609 72.4161 62.3141 72.7567C62.6225 72.9057 62.9529 73.0427 63.3051 73.1677C64.2201 73.4924 65.1573 73.6547 66.1167 73.6547C66.9285 73.6547 67.5853 73.5662 68.0871 73.3891C68.5889 73.212 68.9579 72.9758 69.194 72.6806C69.4302 72.3707 69.5482 72.0238 69.5482 71.6401C69.5482 71.1678 69.3785 70.7914 69.039 70.511C68.6996 70.2158 68.2568 69.987 67.7107 69.8247C67.1794 69.6476 66.5816 69.4852 65.9174 69.3376C65.268 69.19 64.6113 69.0203 63.9471 68.8284C63.2977 68.6218 62.6999 68.3635 62.1538 68.0536C61.6225 67.7289 61.1871 67.3009 60.8476 66.7695C60.5082 66.2382 60.3384 65.5593 60.3384 64.7327C60.3384 63.8915 60.5598 63.124 61.0026 62.4303C61.4601 61.7218 62.1464 61.161 63.0615 60.7477C63.9914 60.3197 65.1647 60.1057 66.5816 60.1057C67.5115 60.1057 68.4339 60.2238 69.349 60.4599C69.8968 60.6013 70.4022 60.7797 70.8654 60.9951C71.392 61.24 71.5823 61.8668 71.3638 62.405C71.0843 63.0937 70.2577 63.3624 69.5653 63.0922C69.2754 62.9791 68.9819 62.8839 68.6848 62.8066C67.9469 62.6 67.2384 62.4967 66.5595 62.4967C65.7625 62.4967 65.1131 62.5926 64.6113 62.7845C64.1242 62.9764 63.7626 63.2273 63.5264 63.5372C63.3051 63.8472 63.1944 64.2014 63.1944 64.5999C63.1944 65.0722 63.3567 65.4559 63.6814 65.7511C64.0209 66.0316 64.4563 66.2529 64.9876 66.4153C65.5337 66.5777 66.1388 66.74 66.803 66.9024C67.4672 67.0499 68.124 67.2197 68.7734 67.4115C69.4375 67.6034 70.0353 67.8543 70.5666 68.1643C71.1127 68.4742 71.5481 68.8949 71.8728 69.4262C72.2123 69.9575 72.382 70.6291 72.382 71.4408C72.382 72.2674 72.1533 73.0348 71.6957 73.7433C71.2529 74.437 70.5666 74.9978 69.6368 75.4258C68.707 75.8391 67.5336 76.0457 66.1167 76.0457Z" fill="white"/>
</svg>
